M48
; DRILL file {KiCad (5.1.9)-1} date 04/29/21 17:58:59
; FORMAT={-:-/ absolute / inch / decimal}
; #@! TF.CreationDate,2021-04-29T17:58:59+08:00
; #@! TF.GenerationSoftware,Kicad,Pcbnew,(5.1.9)-1
; #@! TF.FileFunction,Plated,1,2,PTH
FMAT,2
INCH
T1C0.0120
T2C0.0315
T3C0.0394
%
G90
G05
T1
X5.621Y-1.75
X5.625Y-1.45
X5.625Y-1.65
X5.65Y-2.05
X5.675Y-1.55
X5.675Y-2.2
X5.7Y-1.25
X5.725Y-1.6
X5.725Y-1.975
X5.8Y-1.625
X5.825Y-1.75
X5.875Y-1.7
X5.875Y-1.7309
X5.9Y-1.525
X5.976Y-1.457
X6.0389Y-1.5601
X6.075Y-1.525
X6.075Y-1.65
X6.075Y-1.82
X6.1Y-2.025
X6.1077Y-1.4993
X6.125Y-2.25
X6.15Y-1.82
X6.2Y-1.7
X6.2191Y-1.819
X6.225Y-1.675
X6.2479Y-1.6521
X6.25Y-1.82
X6.2875Y-1.8205
X6.3249Y-1.7741
X6.325Y-2.25
X6.35Y-2.025
X6.374Y-1.399
X6.4059Y-1.4
X6.5Y-1.4
X6.55Y-2.25
X6.575Y-1.375
X6.75Y-2.225
X6.775Y-1.3
X6.775Y-2.025
T2
X6.55Y-1.5579
X6.55Y-1.75
T3
X5.6Y-1.3
X5.6Y-1.4
X5.6Y-1.5
X5.6Y-1.6
X5.6Y-1.7
X5.6Y-1.8
X5.6Y-1.9
X5.6Y-2.0
X5.6Y-2.1
X5.6Y-2.2
X5.75Y-1.45
X5.75Y-1.55
X5.75Y-1.65
X5.8Y-1.3
X5.85Y-1.45
X5.85Y-1.55
X5.85Y-1.65
X5.9Y-1.3
X6.0Y-1.3
X6.1Y-1.3
X6.2Y-1.3
X6.3Y-1.3
X6.4Y-1.3
X6.5Y-1.3
X6.6Y-1.3
X6.7Y-1.3
T0
M30
