%TF.GenerationSoftware,KiCad,Pcbnew,(5.1.9)-1*%
%TF.CreationDate,2021-04-29T17:29:05+08:00*%
%TF.ProjectId,arduino_pro_mini,61726475-696e-46f5-9f70-726f5f6d696e,rev?*%
%TF.SameCoordinates,Original*%
%TF.FileFunction,Copper,L2,Bot*%
%TF.FilePolarity,Positive*%
%FSLAX46Y46*%
G04 Gerber Fmt 4.6, Leading zero omitted, Abs format (unit mm)*
G04 Created by KiCad (PCBNEW (5.1.9)-1) date 2021-04-29 17:29:05*
%MOMM*%
%LPD*%
G01*
G04 APERTURE LIST*
%TA.AperFunction,ComponentPad*%
%ADD10O,1.700000X1.700000*%
%TD*%
%TA.AperFunction,ComponentPad*%
%ADD11R,1.700000X1.700000*%
%TD*%
%TA.AperFunction,ComponentPad*%
%ADD12C,1.500000*%
%TD*%
%TA.AperFunction,ViaPad*%
%ADD13C,0.635000*%
%TD*%
%TA.AperFunction,Conductor*%
%ADD14C,0.250000*%
%TD*%
%TA.AperFunction,Conductor*%
%ADD15C,0.254000*%
%TD*%
%TA.AperFunction,Conductor*%
%ADD16C,0.100000*%
%TD*%
G04 APERTURE END LIST*
D10*
%TO.P,J1,6*%
%TO.N,GND*%
X148590000Y-41910000D03*
%TO.P,J1,5*%
%TO.N,RESET*%
X146050000Y-41910000D03*
%TO.P,J1,4*%
%TO.N,MOSI*%
X148590000Y-39370000D03*
%TO.P,J1,3*%
%TO.N,SCK*%
X146050000Y-39370000D03*
%TO.P,J1,2*%
%TO.N,RAW*%
X148590000Y-36830000D03*
D11*
%TO.P,J1,1*%
%TO.N,MISO*%
X146050000Y-36830000D03*
%TD*%
D12*
%TO.P,Y1,2*%
%TO.N,Net-(C7-Pad2)*%
X166370000Y-39570000D03*
%TO.P,Y1,1*%
%TO.N,Net-(C6-Pad1)*%
X166370000Y-44450000D03*
%TD*%
D10*
%TO.P,J3,10*%
%TO.N,D10*%
X142240000Y-55880000D03*
%TO.P,J3,9*%
%TO.N,A7*%
X142240000Y-53340000D03*
%TO.P,J3,8*%
%TO.N,A6*%
X142240000Y-50800000D03*
%TO.P,J3,7*%
%TO.N,A3*%
X142240000Y-48260000D03*
%TO.P,J3,6*%
%TO.N,A2*%
X142240000Y-45720000D03*
%TO.P,J3,5*%
%TO.N,A1*%
X142240000Y-43180000D03*
%TO.P,J3,4*%
%TO.N,A0*%
X142240000Y-40640000D03*
%TO.P,J3,3*%
%TO.N,VCC*%
X142240000Y-38100000D03*
%TO.P,J3,2*%
%TO.N,GND*%
X142240000Y-35560000D03*
D11*
%TO.P,J3,1*%
%TO.N,RAW*%
X142240000Y-33020000D03*
%TD*%
D10*
%TO.P,J2,10*%
%TO.N,TX*%
X170180000Y-33020000D03*
%TO.P,J2,9*%
%TO.N,RX*%
X167640000Y-33020000D03*
%TO.P,J2,8*%
%TO.N,D2*%
X165100000Y-33020000D03*
%TO.P,J2,7*%
%TO.N,D3*%
X162560000Y-33020000D03*
%TO.P,J2,6*%
%TO.N,D4*%
X160020000Y-33020000D03*
%TO.P,J2,5*%
%TO.N,D5*%
X157480000Y-33020000D03*
%TO.P,J2,4*%
%TO.N,D6*%
X154940000Y-33020000D03*
%TO.P,J2,3*%
%TO.N,D7*%
X152400000Y-33020000D03*
%TO.P,J2,2*%
%TO.N,D8*%
X149860000Y-33020000D03*
D11*
%TO.P,J2,1*%
%TO.N,D9*%
X147320000Y-33020000D03*
%TD*%
D13*
%TO.N,GND*%
X160655000Y-57150000D03*
X155575000Y-57150000D03*
X171450000Y-56515000D03*
X172085000Y-51435000D03*
X144780000Y-31750000D03*
X166370000Y-57150000D03*
X158115000Y-42545000D03*
X142875000Y-36830000D03*
X147320000Y-41275000D03*
X159703067Y-46240788D03*
%TO.N,RAW*%
X161290000Y-51435000D03*
%TO.N,VCC*%
X149860000Y-38735000D03*
%TO.N,RESET*%
X156210000Y-46227640D03*
X154940000Y-51435000D03*
%TO.N,MOSI*%
X154305000Y-38735000D03*
%TO.N,SCK*%
X144145000Y-39370000D03*
X151790171Y-37007567D03*
%TO.N,TX*%
X172085000Y-33020000D03*
X157966367Y-46201447D03*
%TO.N,RX*%
X157480000Y-43180000D03*
X167004994Y-34925000D03*
%TO.N,D2*%
X165100000Y-35560000D03*
X158750791Y-46227640D03*
%TO.N,D3*%
X162709863Y-35560000D03*
X160653667Y-45061278D03*
%TO.N,D4*%
X161898562Y-35533563D03*
X158696131Y-41963869D03*
%TO.N,D10*%
X144145000Y-55880000D03*
X155136656Y-38081931D03*
%TO.N,A7*%
X143510000Y-52070000D03*
X154305000Y-41910000D03*
%TO.N,A6*%
X145415000Y-40640000D03*
X153387115Y-39625296D03*
%TO.N,A3*%
X154305000Y-46227640D03*
%TO.N,A2*%
X147955000Y-44450000D03*
%TO.N,A1*%
X142772501Y-44450000D03*
X149225000Y-43964863D03*
%TO.N,A0*%
X142875000Y-41910000D03*
X149225000Y-43180000D03*
%TD*%
D14*
%TO.N,GND*%
X147955000Y-41910000D02*
X147320000Y-41275000D01*
X148590000Y-41910000D02*
X147955000Y-41910000D01*
X158115000Y-42545000D02*
X158115000Y-44652721D01*
X158115000Y-44652721D02*
X159703067Y-46240788D01*
%TO.N,RAW*%
X156494334Y-38562914D02*
X155420990Y-37489570D01*
X149792081Y-36830000D02*
X148590000Y-36830000D01*
X156494334Y-45635279D02*
X156494334Y-38562914D01*
X161290000Y-51435000D02*
X161290000Y-50430945D01*
X154524363Y-37489570D02*
X153380878Y-38633055D01*
X155420990Y-37489570D02*
X154524363Y-37489570D01*
X153380878Y-38633055D02*
X151595136Y-38633055D01*
X151595136Y-38633055D02*
X149792081Y-36830000D01*
X161290000Y-50430945D02*
X156494334Y-45635279D01*
%TO.N,VCC*%
X145564852Y-38100000D02*
X149225000Y-38100000D01*
X144737361Y-38927491D02*
X145564852Y-38100000D01*
X144737361Y-39654334D02*
X144737361Y-38927491D01*
X144429334Y-39962361D02*
X144737361Y-39654334D01*
X143860666Y-39962361D02*
X144429334Y-39962361D01*
X149225000Y-38100000D02*
X149860000Y-38735000D01*
X142240000Y-38341695D02*
X143860666Y-39962361D01*
X142240000Y-38100000D02*
X142240000Y-38341695D01*
%TO.N,RESET*%
X156210000Y-46227640D02*
X155575000Y-46862640D01*
X155575000Y-46862640D02*
X155575000Y-50800000D01*
X155575000Y-50800000D02*
X154940000Y-51435000D01*
%TO.N,MOSI*%
X148590000Y-39370000D02*
X152309505Y-39370000D01*
X152309505Y-39370000D02*
X152646579Y-39032926D01*
X152646579Y-39032926D02*
X154007074Y-39032926D01*
X154007074Y-39032926D02*
X154305000Y-38735000D01*
%TO.N,SCK*%
X149707604Y-34925000D02*
X151790171Y-37007567D01*
X144145000Y-39370000D02*
X144145000Y-35560000D01*
X144145000Y-35560000D02*
X144780000Y-34925000D01*
X144780000Y-34925000D02*
X149707604Y-34925000D01*
%TO.N,TX*%
X157966367Y-46448064D02*
X157966367Y-46201447D01*
X161213043Y-49694740D02*
X157966367Y-46448064D01*
X172720000Y-48811739D02*
X171836999Y-49694740D01*
X172720000Y-33655000D02*
X172720000Y-48811739D01*
X171836999Y-49694740D02*
X161213043Y-49694740D01*
X172085000Y-33020000D02*
X172720000Y-33655000D01*
%TO.N,RX*%
X157480000Y-37534498D02*
X160089498Y-34925000D01*
X157480000Y-43180000D02*
X157480000Y-37534498D01*
X160089498Y-34925000D02*
X167004994Y-34925000D01*
%TO.N,D2*%
X165100000Y-35560000D02*
X171450000Y-35560000D01*
X172085000Y-36195000D02*
X172085000Y-48260000D01*
X171450000Y-35560000D02*
X172085000Y-36195000D01*
X172085000Y-48260000D02*
X171450000Y-48895000D01*
X161418151Y-48895000D02*
X158750791Y-46227640D01*
X171450000Y-48895000D02*
X161418151Y-48895000D01*
%TO.N,D3*%
X159385000Y-43792611D02*
X160653667Y-45061278D01*
X159385000Y-38884863D02*
X159385000Y-43792611D01*
X162709863Y-35560000D02*
X159385000Y-38884863D01*
%TO.N,D4*%
X158115000Y-41382738D02*
X158696131Y-41963869D01*
X158115000Y-39317125D02*
X158115000Y-41382738D01*
X161898562Y-35533563D02*
X158115000Y-39317125D01*
%TO.N,D10*%
X144145000Y-53340000D02*
X155136656Y-42348344D01*
X144145000Y-55880000D02*
X144145000Y-53340000D01*
X155136656Y-42348344D02*
X155136656Y-38081931D01*
%TO.N,A7*%
X154305000Y-42545000D02*
X154305000Y-41910000D01*
X151765000Y-45085000D02*
X154305000Y-42545000D01*
X144849500Y-45085000D02*
X151765000Y-45085000D01*
X143510000Y-46424499D02*
X144849500Y-45085000D01*
X143510000Y-52070000D02*
X143510000Y-46424499D01*
%TO.N,A6*%
X145415000Y-40640000D02*
X152372411Y-40640000D01*
X152372411Y-40640000D02*
X153387115Y-39625296D01*
%TO.N,A3*%
X146727639Y-56472361D02*
X154305000Y-48895000D01*
X143860666Y-56472361D02*
X146727639Y-56472361D01*
X143552639Y-56164334D02*
X143860666Y-56472361D01*
X143552639Y-52989334D02*
X143552639Y-56164334D01*
X142633305Y-52070000D02*
X143552639Y-52989334D01*
X154305000Y-48895000D02*
X154305000Y-46227640D01*
X141845206Y-52070000D02*
X142633305Y-52070000D01*
X140970000Y-51194794D02*
X141845206Y-52070000D01*
X140970000Y-48895000D02*
X140970000Y-51194794D01*
X141605000Y-48260000D02*
X140970000Y-48895000D01*
X142240000Y-48260000D02*
X141605000Y-48260000D01*
%TO.N,A2*%
X144918999Y-44450000D02*
X147955000Y-44450000D01*
X143648999Y-45720000D02*
X144918999Y-44450000D01*
X142240000Y-45720000D02*
X143648999Y-45720000D01*
%TO.N,A1*%
X149075137Y-43815000D02*
X149225000Y-43964863D01*
X143407501Y-43815000D02*
X149075137Y-43815000D01*
X142772501Y-44450000D02*
X143407501Y-43815000D01*
%TO.N,A0*%
X142875000Y-41910000D02*
X144145000Y-43180000D01*
X144145000Y-43180000D02*
X149225000Y-43180000D01*
%TD*%
D15*
%TO.N,GND*%
X160530001Y-50745748D02*
X160530001Y-50857964D01*
X160445905Y-50983822D01*
X160374104Y-51157166D01*
X160337500Y-51341187D01*
X160337500Y-51528813D01*
X160374104Y-51712834D01*
X160445905Y-51886178D01*
X160550145Y-52042184D01*
X160682816Y-52174855D01*
X160838822Y-52279095D01*
X161012166Y-52350896D01*
X161196187Y-52387500D01*
X161383813Y-52387500D01*
X161567834Y-52350896D01*
X161741178Y-52279095D01*
X161897184Y-52174855D01*
X162029855Y-52042184D01*
X162134095Y-51886178D01*
X162205896Y-51712834D01*
X162242500Y-51528813D01*
X162242500Y-51341187D01*
X162205896Y-51157166D01*
X162134095Y-50983822D01*
X162050000Y-50857965D01*
X162050000Y-50468268D01*
X162051332Y-50454740D01*
X171799677Y-50454740D01*
X171836999Y-50458416D01*
X171874321Y-50454740D01*
X171874332Y-50454740D01*
X171985985Y-50443743D01*
X172129246Y-50400286D01*
X172261275Y-50329714D01*
X172377000Y-50234741D01*
X172400802Y-50205738D01*
X172695000Y-49911540D01*
X172695000Y-55847721D01*
X172656091Y-56244545D01*
X172550220Y-56595206D01*
X172378257Y-56918623D01*
X172146748Y-57202482D01*
X171864514Y-57435965D01*
X171542304Y-57610184D01*
X171192385Y-57718502D01*
X170797557Y-57760000D01*
X142272279Y-57760000D01*
X141875455Y-57721091D01*
X141524794Y-57615220D01*
X141201377Y-57443257D01*
X140917518Y-57211748D01*
X140684035Y-56929514D01*
X140509816Y-56607304D01*
X140401498Y-56257385D01*
X140360000Y-55862557D01*
X140360000Y-51649500D01*
X140430000Y-51734795D01*
X140458998Y-51758593D01*
X141090149Y-52389744D01*
X141086525Y-52393368D01*
X140924010Y-52636589D01*
X140812068Y-52906842D01*
X140755000Y-53193740D01*
X140755000Y-53486260D01*
X140812068Y-53773158D01*
X140924010Y-54043411D01*
X141086525Y-54286632D01*
X141293368Y-54493475D01*
X141467760Y-54610000D01*
X141293368Y-54726525D01*
X141086525Y-54933368D01*
X140924010Y-55176589D01*
X140812068Y-55446842D01*
X140755000Y-55733740D01*
X140755000Y-56026260D01*
X140812068Y-56313158D01*
X140924010Y-56583411D01*
X141086525Y-56826632D01*
X141293368Y-57033475D01*
X141536589Y-57195990D01*
X141806842Y-57307932D01*
X142093740Y-57365000D01*
X142386260Y-57365000D01*
X142673158Y-57307932D01*
X142943411Y-57195990D01*
X143186632Y-57033475D01*
X143266806Y-56953302D01*
X143296862Y-56983358D01*
X143320665Y-57012362D01*
X143436390Y-57107335D01*
X143568419Y-57177907D01*
X143711680Y-57221364D01*
X143823333Y-57232361D01*
X143823343Y-57232361D01*
X143860666Y-57236037D01*
X143897989Y-57232361D01*
X146690317Y-57232361D01*
X146727639Y-57236037D01*
X146764961Y-57232361D01*
X146764972Y-57232361D01*
X146876625Y-57221364D01*
X147019886Y-57177907D01*
X147151915Y-57107335D01*
X147267640Y-57012362D01*
X147291443Y-56983358D01*
X154815001Y-49459801D01*
X154815001Y-50485197D01*
X154810625Y-50489574D01*
X154662166Y-50519104D01*
X154488822Y-50590905D01*
X154332816Y-50695145D01*
X154200145Y-50827816D01*
X154095905Y-50983822D01*
X154024104Y-51157166D01*
X153987500Y-51341187D01*
X153987500Y-51528813D01*
X154024104Y-51712834D01*
X154095905Y-51886178D01*
X154200145Y-52042184D01*
X154332816Y-52174855D01*
X154488822Y-52279095D01*
X154662166Y-52350896D01*
X154846187Y-52387500D01*
X155033813Y-52387500D01*
X155217834Y-52350896D01*
X155391178Y-52279095D01*
X155547184Y-52174855D01*
X155679855Y-52042184D01*
X155784095Y-51886178D01*
X155855896Y-51712834D01*
X155885426Y-51564375D01*
X156086002Y-51363800D01*
X156115001Y-51340001D01*
X156209974Y-51224276D01*
X156280546Y-51092247D01*
X156324003Y-50948986D01*
X156335000Y-50837333D01*
X156338677Y-50800000D01*
X156335000Y-50762667D01*
X156335000Y-47177441D01*
X156339375Y-47173066D01*
X156487834Y-47143536D01*
X156661178Y-47071735D01*
X156777958Y-46993705D01*
X160530001Y-50745748D01*
%TA.AperFunction,Conductor*%
D16*
G36*
X160530001Y-50745748D02*
G01*
X160530001Y-50857964D01*
X160445905Y-50983822D01*
X160374104Y-51157166D01*
X160337500Y-51341187D01*
X160337500Y-51528813D01*
X160374104Y-51712834D01*
X160445905Y-51886178D01*
X160550145Y-52042184D01*
X160682816Y-52174855D01*
X160838822Y-52279095D01*
X161012166Y-52350896D01*
X161196187Y-52387500D01*
X161383813Y-52387500D01*
X161567834Y-52350896D01*
X161741178Y-52279095D01*
X161897184Y-52174855D01*
X162029855Y-52042184D01*
X162134095Y-51886178D01*
X162205896Y-51712834D01*
X162242500Y-51528813D01*
X162242500Y-51341187D01*
X162205896Y-51157166D01*
X162134095Y-50983822D01*
X162050000Y-50857965D01*
X162050000Y-50468268D01*
X162051332Y-50454740D01*
X171799677Y-50454740D01*
X171836999Y-50458416D01*
X171874321Y-50454740D01*
X171874332Y-50454740D01*
X171985985Y-50443743D01*
X172129246Y-50400286D01*
X172261275Y-50329714D01*
X172377000Y-50234741D01*
X172400802Y-50205738D01*
X172695000Y-49911540D01*
X172695000Y-55847721D01*
X172656091Y-56244545D01*
X172550220Y-56595206D01*
X172378257Y-56918623D01*
X172146748Y-57202482D01*
X171864514Y-57435965D01*
X171542304Y-57610184D01*
X171192385Y-57718502D01*
X170797557Y-57760000D01*
X142272279Y-57760000D01*
X141875455Y-57721091D01*
X141524794Y-57615220D01*
X141201377Y-57443257D01*
X140917518Y-57211748D01*
X140684035Y-56929514D01*
X140509816Y-56607304D01*
X140401498Y-56257385D01*
X140360000Y-55862557D01*
X140360000Y-51649500D01*
X140430000Y-51734795D01*
X140458998Y-51758593D01*
X141090149Y-52389744D01*
X141086525Y-52393368D01*
X140924010Y-52636589D01*
X140812068Y-52906842D01*
X140755000Y-53193740D01*
X140755000Y-53486260D01*
X140812068Y-53773158D01*
X140924010Y-54043411D01*
X141086525Y-54286632D01*
X141293368Y-54493475D01*
X141467760Y-54610000D01*
X141293368Y-54726525D01*
X141086525Y-54933368D01*
X140924010Y-55176589D01*
X140812068Y-55446842D01*
X140755000Y-55733740D01*
X140755000Y-56026260D01*
X140812068Y-56313158D01*
X140924010Y-56583411D01*
X141086525Y-56826632D01*
X141293368Y-57033475D01*
X141536589Y-57195990D01*
X141806842Y-57307932D01*
X142093740Y-57365000D01*
X142386260Y-57365000D01*
X142673158Y-57307932D01*
X142943411Y-57195990D01*
X143186632Y-57033475D01*
X143266806Y-56953302D01*
X143296862Y-56983358D01*
X143320665Y-57012362D01*
X143436390Y-57107335D01*
X143568419Y-57177907D01*
X143711680Y-57221364D01*
X143823333Y-57232361D01*
X143823343Y-57232361D01*
X143860666Y-57236037D01*
X143897989Y-57232361D01*
X146690317Y-57232361D01*
X146727639Y-57236037D01*
X146764961Y-57232361D01*
X146764972Y-57232361D01*
X146876625Y-57221364D01*
X147019886Y-57177907D01*
X147151915Y-57107335D01*
X147267640Y-57012362D01*
X147291443Y-56983358D01*
X154815001Y-49459801D01*
X154815001Y-50485197D01*
X154810625Y-50489574D01*
X154662166Y-50519104D01*
X154488822Y-50590905D01*
X154332816Y-50695145D01*
X154200145Y-50827816D01*
X154095905Y-50983822D01*
X154024104Y-51157166D01*
X153987500Y-51341187D01*
X153987500Y-51528813D01*
X154024104Y-51712834D01*
X154095905Y-51886178D01*
X154200145Y-52042184D01*
X154332816Y-52174855D01*
X154488822Y-52279095D01*
X154662166Y-52350896D01*
X154846187Y-52387500D01*
X155033813Y-52387500D01*
X155217834Y-52350896D01*
X155391178Y-52279095D01*
X155547184Y-52174855D01*
X155679855Y-52042184D01*
X155784095Y-51886178D01*
X155855896Y-51712834D01*
X155885426Y-51564375D01*
X156086002Y-51363800D01*
X156115001Y-51340001D01*
X156209974Y-51224276D01*
X156280546Y-51092247D01*
X156324003Y-50948986D01*
X156335000Y-50837333D01*
X156338677Y-50800000D01*
X156335000Y-50762667D01*
X156335000Y-47177441D01*
X156339375Y-47173066D01*
X156487834Y-47143536D01*
X156661178Y-47071735D01*
X156777958Y-46993705D01*
X160530001Y-50745748D01*
G37*
%TD.AperFunction*%
D15*
X155734334Y-45399907D02*
X155602816Y-45487785D01*
X155470145Y-45620456D01*
X155365905Y-45776462D01*
X155294104Y-45949806D01*
X155264574Y-46098265D01*
X155252773Y-46110065D01*
X155220896Y-45949806D01*
X155149095Y-45776462D01*
X155044855Y-45620456D01*
X154912184Y-45487785D01*
X154756178Y-45383545D01*
X154582834Y-45311744D01*
X154398813Y-45275140D01*
X154211187Y-45275140D01*
X154027166Y-45311744D01*
X153853822Y-45383545D01*
X153697816Y-45487785D01*
X153565145Y-45620456D01*
X153460905Y-45776462D01*
X153389104Y-45949806D01*
X153352500Y-46133827D01*
X153352500Y-46321453D01*
X153389104Y-46505474D01*
X153460905Y-46678818D01*
X153545001Y-46804676D01*
X153545000Y-48580198D01*
X146412838Y-55712361D01*
X145082815Y-55712361D01*
X145060896Y-55602166D01*
X144989095Y-55428822D01*
X144905000Y-55302965D01*
X144905000Y-53654801D01*
X155647660Y-42912142D01*
X155676657Y-42888345D01*
X155734334Y-42818065D01*
X155734334Y-45399907D01*
%TA.AperFunction,Conductor*%
D16*
G36*
X155734334Y-45399907D02*
G01*
X155602816Y-45487785D01*
X155470145Y-45620456D01*
X155365905Y-45776462D01*
X155294104Y-45949806D01*
X155264574Y-46098265D01*
X155252773Y-46110065D01*
X155220896Y-45949806D01*
X155149095Y-45776462D01*
X155044855Y-45620456D01*
X154912184Y-45487785D01*
X154756178Y-45383545D01*
X154582834Y-45311744D01*
X154398813Y-45275140D01*
X154211187Y-45275140D01*
X154027166Y-45311744D01*
X153853822Y-45383545D01*
X153697816Y-45487785D01*
X153565145Y-45620456D01*
X153460905Y-45776462D01*
X153389104Y-45949806D01*
X153352500Y-46133827D01*
X153352500Y-46321453D01*
X153389104Y-46505474D01*
X153460905Y-46678818D01*
X153545001Y-46804676D01*
X153545000Y-48580198D01*
X146412838Y-55712361D01*
X145082815Y-55712361D01*
X145060896Y-55602166D01*
X144989095Y-55428822D01*
X144905000Y-55302965D01*
X144905000Y-53654801D01*
X155647660Y-42912142D01*
X155676657Y-42888345D01*
X155734334Y-42818065D01*
X155734334Y-45399907D01*
G37*
%TD.AperFunction*%
D15*
X171179545Y-31178909D02*
X171530208Y-31284780D01*
X171853625Y-31456744D01*
X172137484Y-31688254D01*
X172370965Y-31970486D01*
X172466410Y-32147006D01*
X172362834Y-32104104D01*
X172178813Y-32067500D01*
X171991187Y-32067500D01*
X171807166Y-32104104D01*
X171633822Y-32175905D01*
X171477816Y-32280145D01*
X171474113Y-32283848D01*
X171333475Y-32073368D01*
X171126632Y-31866525D01*
X170883411Y-31704010D01*
X170613158Y-31592068D01*
X170326260Y-31535000D01*
X170033740Y-31535000D01*
X169746842Y-31592068D01*
X169476589Y-31704010D01*
X169233368Y-31866525D01*
X169026525Y-32073368D01*
X168910000Y-32247760D01*
X168793475Y-32073368D01*
X168586632Y-31866525D01*
X168343411Y-31704010D01*
X168073158Y-31592068D01*
X167786260Y-31535000D01*
X167493740Y-31535000D01*
X167206842Y-31592068D01*
X166936589Y-31704010D01*
X166693368Y-31866525D01*
X166486525Y-32073368D01*
X166370000Y-32247760D01*
X166253475Y-32073368D01*
X166046632Y-31866525D01*
X165803411Y-31704010D01*
X165533158Y-31592068D01*
X165246260Y-31535000D01*
X164953740Y-31535000D01*
X164666842Y-31592068D01*
X164396589Y-31704010D01*
X164153368Y-31866525D01*
X163946525Y-32073368D01*
X163830000Y-32247760D01*
X163713475Y-32073368D01*
X163506632Y-31866525D01*
X163263411Y-31704010D01*
X162993158Y-31592068D01*
X162706260Y-31535000D01*
X162413740Y-31535000D01*
X162126842Y-31592068D01*
X161856589Y-31704010D01*
X161613368Y-31866525D01*
X161406525Y-32073368D01*
X161290000Y-32247760D01*
X161173475Y-32073368D01*
X160966632Y-31866525D01*
X160723411Y-31704010D01*
X160453158Y-31592068D01*
X160166260Y-31535000D01*
X159873740Y-31535000D01*
X159586842Y-31592068D01*
X159316589Y-31704010D01*
X159073368Y-31866525D01*
X158866525Y-32073368D01*
X158750000Y-32247760D01*
X158633475Y-32073368D01*
X158426632Y-31866525D01*
X158183411Y-31704010D01*
X157913158Y-31592068D01*
X157626260Y-31535000D01*
X157333740Y-31535000D01*
X157046842Y-31592068D01*
X156776589Y-31704010D01*
X156533368Y-31866525D01*
X156326525Y-32073368D01*
X156210000Y-32247760D01*
X156093475Y-32073368D01*
X155886632Y-31866525D01*
X155643411Y-31704010D01*
X155373158Y-31592068D01*
X155086260Y-31535000D01*
X154793740Y-31535000D01*
X154506842Y-31592068D01*
X154236589Y-31704010D01*
X153993368Y-31866525D01*
X153786525Y-32073368D01*
X153670000Y-32247760D01*
X153553475Y-32073368D01*
X153346632Y-31866525D01*
X153103411Y-31704010D01*
X152833158Y-31592068D01*
X152546260Y-31535000D01*
X152253740Y-31535000D01*
X151966842Y-31592068D01*
X151696589Y-31704010D01*
X151453368Y-31866525D01*
X151246525Y-32073368D01*
X151130000Y-32247760D01*
X151013475Y-32073368D01*
X150806632Y-31866525D01*
X150563411Y-31704010D01*
X150293158Y-31592068D01*
X150006260Y-31535000D01*
X149713740Y-31535000D01*
X149426842Y-31592068D01*
X149156589Y-31704010D01*
X148913368Y-31866525D01*
X148781513Y-31998380D01*
X148759502Y-31925820D01*
X148700537Y-31815506D01*
X148621185Y-31718815D01*
X148524494Y-31639463D01*
X148414180Y-31580498D01*
X148294482Y-31544188D01*
X148170000Y-31531928D01*
X146470000Y-31531928D01*
X146345518Y-31544188D01*
X146225820Y-31580498D01*
X146115506Y-31639463D01*
X146018815Y-31718815D01*
X145939463Y-31815506D01*
X145880498Y-31925820D01*
X145844188Y-32045518D01*
X145831928Y-32170000D01*
X145831928Y-33870000D01*
X145844188Y-33994482D01*
X145880498Y-34114180D01*
X145907662Y-34165000D01*
X144817333Y-34165000D01*
X144780000Y-34161323D01*
X144742667Y-34165000D01*
X144631014Y-34175997D01*
X144487753Y-34219454D01*
X144355724Y-34290026D01*
X144239999Y-34384999D01*
X144216200Y-34413998D01*
X143633998Y-34996201D01*
X143605000Y-35019999D01*
X143581202Y-35048997D01*
X143581201Y-35048998D01*
X143510026Y-35135724D01*
X143439454Y-35267754D01*
X143416023Y-35345000D01*
X143395998Y-35411014D01*
X143392211Y-35449463D01*
X143381324Y-35560000D01*
X143385001Y-35597332D01*
X143385001Y-37144894D01*
X143186632Y-36946525D01*
X142943411Y-36784010D01*
X142673158Y-36672068D01*
X142386260Y-36615000D01*
X142093740Y-36615000D01*
X141806842Y-36672068D01*
X141536589Y-36784010D01*
X141293368Y-36946525D01*
X141086525Y-37153368D01*
X140924010Y-37396589D01*
X140812068Y-37666842D01*
X140755000Y-37953740D01*
X140755000Y-38246260D01*
X140812068Y-38533158D01*
X140924010Y-38803411D01*
X141086525Y-39046632D01*
X141293368Y-39253475D01*
X141467760Y-39370000D01*
X141293368Y-39486525D01*
X141086525Y-39693368D01*
X140924010Y-39936589D01*
X140812068Y-40206842D01*
X140755000Y-40493740D01*
X140755000Y-40786260D01*
X140812068Y-41073158D01*
X140924010Y-41343411D01*
X141086525Y-41586632D01*
X141293368Y-41793475D01*
X141467760Y-41910000D01*
X141293368Y-42026525D01*
X141086525Y-42233368D01*
X140924010Y-42476589D01*
X140812068Y-42746842D01*
X140755000Y-43033740D01*
X140755000Y-43326260D01*
X140812068Y-43613158D01*
X140924010Y-43883411D01*
X141086525Y-44126632D01*
X141293368Y-44333475D01*
X141467760Y-44450000D01*
X141293368Y-44566525D01*
X141086525Y-44773368D01*
X140924010Y-45016589D01*
X140812068Y-45286842D01*
X140755000Y-45573740D01*
X140755000Y-45866260D01*
X140812068Y-46153158D01*
X140924010Y-46423411D01*
X141086525Y-46666632D01*
X141293368Y-46873475D01*
X141467760Y-46990000D01*
X141293368Y-47106525D01*
X141086525Y-47313368D01*
X140924010Y-47556589D01*
X140812068Y-47826842D01*
X140774502Y-48015696D01*
X140459002Y-48331197D01*
X140429999Y-48354999D01*
X140374871Y-48422174D01*
X140360000Y-48440293D01*
X140360000Y-33052279D01*
X140398909Y-32655455D01*
X140504780Y-32304792D01*
X140576450Y-32170000D01*
X140751928Y-32170000D01*
X140751928Y-33870000D01*
X140764188Y-33994482D01*
X140800498Y-34114180D01*
X140859463Y-34224494D01*
X140938815Y-34321185D01*
X141035506Y-34400537D01*
X141145820Y-34459502D01*
X141265518Y-34495812D01*
X141390000Y-34508072D01*
X143090000Y-34508072D01*
X143214482Y-34495812D01*
X143334180Y-34459502D01*
X143444494Y-34400537D01*
X143541185Y-34321185D01*
X143620537Y-34224494D01*
X143679502Y-34114180D01*
X143715812Y-33994482D01*
X143728072Y-33870000D01*
X143728072Y-32170000D01*
X143715812Y-32045518D01*
X143679502Y-31925820D01*
X143620537Y-31815506D01*
X143541185Y-31718815D01*
X143444494Y-31639463D01*
X143334180Y-31580498D01*
X143214482Y-31544188D01*
X143090000Y-31531928D01*
X141390000Y-31531928D01*
X141265518Y-31544188D01*
X141145820Y-31580498D01*
X141035506Y-31639463D01*
X140938815Y-31718815D01*
X140859463Y-31815506D01*
X140800498Y-31925820D01*
X140764188Y-32045518D01*
X140751928Y-32170000D01*
X140576450Y-32170000D01*
X140676744Y-31981375D01*
X140908254Y-31697516D01*
X141190486Y-31464035D01*
X141512695Y-31289817D01*
X141862614Y-31181498D01*
X142257443Y-31140000D01*
X170782721Y-31140000D01*
X171179545Y-31178909D01*
%TA.AperFunction,Conductor*%
D16*
G36*
X171179545Y-31178909D02*
G01*
X171530208Y-31284780D01*
X171853625Y-31456744D01*
X172137484Y-31688254D01*
X172370965Y-31970486D01*
X172466410Y-32147006D01*
X172362834Y-32104104D01*
X172178813Y-32067500D01*
X171991187Y-32067500D01*
X171807166Y-32104104D01*
X171633822Y-32175905D01*
X171477816Y-32280145D01*
X171474113Y-32283848D01*
X171333475Y-32073368D01*
X171126632Y-31866525D01*
X170883411Y-31704010D01*
X170613158Y-31592068D01*
X170326260Y-31535000D01*
X170033740Y-31535000D01*
X169746842Y-31592068D01*
X169476589Y-31704010D01*
X169233368Y-31866525D01*
X169026525Y-32073368D01*
X168910000Y-32247760D01*
X168793475Y-32073368D01*
X168586632Y-31866525D01*
X168343411Y-31704010D01*
X168073158Y-31592068D01*
X167786260Y-31535000D01*
X167493740Y-31535000D01*
X167206842Y-31592068D01*
X166936589Y-31704010D01*
X166693368Y-31866525D01*
X166486525Y-32073368D01*
X166370000Y-32247760D01*
X166253475Y-32073368D01*
X166046632Y-31866525D01*
X165803411Y-31704010D01*
X165533158Y-31592068D01*
X165246260Y-31535000D01*
X164953740Y-31535000D01*
X164666842Y-31592068D01*
X164396589Y-31704010D01*
X164153368Y-31866525D01*
X163946525Y-32073368D01*
X163830000Y-32247760D01*
X163713475Y-32073368D01*
X163506632Y-31866525D01*
X163263411Y-31704010D01*
X162993158Y-31592068D01*
X162706260Y-31535000D01*
X162413740Y-31535000D01*
X162126842Y-31592068D01*
X161856589Y-31704010D01*
X161613368Y-31866525D01*
X161406525Y-32073368D01*
X161290000Y-32247760D01*
X161173475Y-32073368D01*
X160966632Y-31866525D01*
X160723411Y-31704010D01*
X160453158Y-31592068D01*
X160166260Y-31535000D01*
X159873740Y-31535000D01*
X159586842Y-31592068D01*
X159316589Y-31704010D01*
X159073368Y-31866525D01*
X158866525Y-32073368D01*
X158750000Y-32247760D01*
X158633475Y-32073368D01*
X158426632Y-31866525D01*
X158183411Y-31704010D01*
X157913158Y-31592068D01*
X157626260Y-31535000D01*
X157333740Y-31535000D01*
X157046842Y-31592068D01*
X156776589Y-31704010D01*
X156533368Y-31866525D01*
X156326525Y-32073368D01*
X156210000Y-32247760D01*
X156093475Y-32073368D01*
X155886632Y-31866525D01*
X155643411Y-31704010D01*
X155373158Y-31592068D01*
X155086260Y-31535000D01*
X154793740Y-31535000D01*
X154506842Y-31592068D01*
X154236589Y-31704010D01*
X153993368Y-31866525D01*
X153786525Y-32073368D01*
X153670000Y-32247760D01*
X153553475Y-32073368D01*
X153346632Y-31866525D01*
X153103411Y-31704010D01*
X152833158Y-31592068D01*
X152546260Y-31535000D01*
X152253740Y-31535000D01*
X151966842Y-31592068D01*
X151696589Y-31704010D01*
X151453368Y-31866525D01*
X151246525Y-32073368D01*
X151130000Y-32247760D01*
X151013475Y-32073368D01*
X150806632Y-31866525D01*
X150563411Y-31704010D01*
X150293158Y-31592068D01*
X150006260Y-31535000D01*
X149713740Y-31535000D01*
X149426842Y-31592068D01*
X149156589Y-31704010D01*
X148913368Y-31866525D01*
X148781513Y-31998380D01*
X148759502Y-31925820D01*
X148700537Y-31815506D01*
X148621185Y-31718815D01*
X148524494Y-31639463D01*
X148414180Y-31580498D01*
X148294482Y-31544188D01*
X148170000Y-31531928D01*
X146470000Y-31531928D01*
X146345518Y-31544188D01*
X146225820Y-31580498D01*
X146115506Y-31639463D01*
X146018815Y-31718815D01*
X145939463Y-31815506D01*
X145880498Y-31925820D01*
X145844188Y-32045518D01*
X145831928Y-32170000D01*
X145831928Y-33870000D01*
X145844188Y-33994482D01*
X145880498Y-34114180D01*
X145907662Y-34165000D01*
X144817333Y-34165000D01*
X144780000Y-34161323D01*
X144742667Y-34165000D01*
X144631014Y-34175997D01*
X144487753Y-34219454D01*
X144355724Y-34290026D01*
X144239999Y-34384999D01*
X144216200Y-34413998D01*
X143633998Y-34996201D01*
X143605000Y-35019999D01*
X143581202Y-35048997D01*
X143581201Y-35048998D01*
X143510026Y-35135724D01*
X143439454Y-35267754D01*
X143416023Y-35345000D01*
X143395998Y-35411014D01*
X143392211Y-35449463D01*
X143381324Y-35560000D01*
X143385001Y-35597332D01*
X143385001Y-37144894D01*
X143186632Y-36946525D01*
X142943411Y-36784010D01*
X142673158Y-36672068D01*
X142386260Y-36615000D01*
X142093740Y-36615000D01*
X141806842Y-36672068D01*
X141536589Y-36784010D01*
X141293368Y-36946525D01*
X141086525Y-37153368D01*
X140924010Y-37396589D01*
X140812068Y-37666842D01*
X140755000Y-37953740D01*
X140755000Y-38246260D01*
X140812068Y-38533158D01*
X140924010Y-38803411D01*
X141086525Y-39046632D01*
X141293368Y-39253475D01*
X141467760Y-39370000D01*
X141293368Y-39486525D01*
X141086525Y-39693368D01*
X140924010Y-39936589D01*
X140812068Y-40206842D01*
X140755000Y-40493740D01*
X140755000Y-40786260D01*
X140812068Y-41073158D01*
X140924010Y-41343411D01*
X141086525Y-41586632D01*
X141293368Y-41793475D01*
X141467760Y-41910000D01*
X141293368Y-42026525D01*
X141086525Y-42233368D01*
X140924010Y-42476589D01*
X140812068Y-42746842D01*
X140755000Y-43033740D01*
X140755000Y-43326260D01*
X140812068Y-43613158D01*
X140924010Y-43883411D01*
X141086525Y-44126632D01*
X141293368Y-44333475D01*
X141467760Y-44450000D01*
X141293368Y-44566525D01*
X141086525Y-44773368D01*
X140924010Y-45016589D01*
X140812068Y-45286842D01*
X140755000Y-45573740D01*
X140755000Y-45866260D01*
X140812068Y-46153158D01*
X140924010Y-46423411D01*
X141086525Y-46666632D01*
X141293368Y-46873475D01*
X141467760Y-46990000D01*
X141293368Y-47106525D01*
X141086525Y-47313368D01*
X140924010Y-47556589D01*
X140812068Y-47826842D01*
X140774502Y-48015696D01*
X140459002Y-48331197D01*
X140429999Y-48354999D01*
X140374871Y-48422174D01*
X140360000Y-48440293D01*
X140360000Y-33052279D01*
X140398909Y-32655455D01*
X140504780Y-32304792D01*
X140576450Y-32170000D01*
X140751928Y-32170000D01*
X140751928Y-33870000D01*
X140764188Y-33994482D01*
X140800498Y-34114180D01*
X140859463Y-34224494D01*
X140938815Y-34321185D01*
X141035506Y-34400537D01*
X141145820Y-34459502D01*
X141265518Y-34495812D01*
X141390000Y-34508072D01*
X143090000Y-34508072D01*
X143214482Y-34495812D01*
X143334180Y-34459502D01*
X143444494Y-34400537D01*
X143541185Y-34321185D01*
X143620537Y-34224494D01*
X143679502Y-34114180D01*
X143715812Y-33994482D01*
X143728072Y-33870000D01*
X143728072Y-32170000D01*
X143715812Y-32045518D01*
X143679502Y-31925820D01*
X143620537Y-31815506D01*
X143541185Y-31718815D01*
X143444494Y-31639463D01*
X143334180Y-31580498D01*
X143214482Y-31544188D01*
X143090000Y-31531928D01*
X141390000Y-31531928D01*
X141265518Y-31544188D01*
X141145820Y-31580498D01*
X141035506Y-31639463D01*
X140938815Y-31718815D01*
X140859463Y-31815506D01*
X140800498Y-31925820D01*
X140764188Y-32045518D01*
X140751928Y-32170000D01*
X140576450Y-32170000D01*
X140676744Y-31981375D01*
X140908254Y-31697516D01*
X141190486Y-31464035D01*
X141512695Y-31289817D01*
X141862614Y-31181498D01*
X142257443Y-31140000D01*
X170782721Y-31140000D01*
X171179545Y-31178909D01*
G37*
%TD.AperFunction*%
D15*
X164184104Y-35837834D02*
X164255905Y-36011178D01*
X164360145Y-36167184D01*
X164492816Y-36299855D01*
X164648822Y-36404095D01*
X164822166Y-36475896D01*
X165006187Y-36512500D01*
X165193813Y-36512500D01*
X165377834Y-36475896D01*
X165551178Y-36404095D01*
X165677035Y-36320000D01*
X171135199Y-36320000D01*
X171325000Y-36509802D01*
X171325001Y-47945197D01*
X171135199Y-48135000D01*
X161732953Y-48135000D01*
X159696217Y-46098265D01*
X159666687Y-45949806D01*
X159594886Y-45776462D01*
X159490646Y-45620456D01*
X159357975Y-45487785D01*
X159201969Y-45383545D01*
X159028625Y-45311744D01*
X158844604Y-45275140D01*
X158656978Y-45275140D01*
X158472957Y-45311744D01*
X158390197Y-45346024D01*
X158244201Y-45285551D01*
X158060180Y-45248947D01*
X157872554Y-45248947D01*
X157688533Y-45285551D01*
X157515189Y-45357352D01*
X157380922Y-45447066D01*
X157254334Y-45320478D01*
X157254334Y-44106273D01*
X157386187Y-44132500D01*
X157573813Y-44132500D01*
X157757834Y-44095896D01*
X157931178Y-44024095D01*
X158087184Y-43919855D01*
X158219855Y-43787184D01*
X158324095Y-43631178D01*
X158395896Y-43457834D01*
X158432500Y-43273813D01*
X158432500Y-43086187D01*
X158395896Y-42902166D01*
X158380056Y-42863925D01*
X158418297Y-42879765D01*
X158602318Y-42916369D01*
X158625001Y-42916369D01*
X158625001Y-43755279D01*
X158621324Y-43792611D01*
X158625001Y-43829944D01*
X158634758Y-43929002D01*
X158635998Y-43941596D01*
X158679454Y-44084857D01*
X158750026Y-44216887D01*
X158783036Y-44257109D01*
X158845000Y-44332612D01*
X158873998Y-44356410D01*
X159708241Y-45190653D01*
X159737771Y-45339112D01*
X159809572Y-45512456D01*
X159913812Y-45668462D01*
X160046483Y-45801133D01*
X160202489Y-45905373D01*
X160375833Y-45977174D01*
X160559854Y-46013778D01*
X160747480Y-46013778D01*
X160931501Y-45977174D01*
X161104845Y-45905373D01*
X161260851Y-45801133D01*
X161393522Y-45668462D01*
X161497762Y-45512456D01*
X161569563Y-45339112D01*
X161606167Y-45155091D01*
X161606167Y-44967465D01*
X161569563Y-44783444D01*
X161497762Y-44610100D01*
X161393522Y-44454094D01*
X161260851Y-44321423D01*
X161249127Y-44313589D01*
X164985000Y-44313589D01*
X164985000Y-44586411D01*
X165038225Y-44853989D01*
X165142629Y-45106043D01*
X165294201Y-45332886D01*
X165487114Y-45525799D01*
X165713957Y-45677371D01*
X165966011Y-45781775D01*
X166233589Y-45835000D01*
X166506411Y-45835000D01*
X166773989Y-45781775D01*
X167026043Y-45677371D01*
X167252886Y-45525799D01*
X167445799Y-45332886D01*
X167597371Y-45106043D01*
X167701775Y-44853989D01*
X167755000Y-44586411D01*
X167755000Y-44313589D01*
X167701775Y-44046011D01*
X167597371Y-43793957D01*
X167445799Y-43567114D01*
X167252886Y-43374201D01*
X167026043Y-43222629D01*
X166773989Y-43118225D01*
X166506411Y-43065000D01*
X166233589Y-43065000D01*
X165966011Y-43118225D01*
X165713957Y-43222629D01*
X165487114Y-43374201D01*
X165294201Y-43567114D01*
X165142629Y-43793957D01*
X165038225Y-44046011D01*
X164985000Y-44313589D01*
X161249127Y-44313589D01*
X161104845Y-44217183D01*
X160931501Y-44145382D01*
X160783042Y-44115852D01*
X160145000Y-43477810D01*
X160145000Y-39433589D01*
X164985000Y-39433589D01*
X164985000Y-39706411D01*
X165038225Y-39973989D01*
X165142629Y-40226043D01*
X165294201Y-40452886D01*
X165487114Y-40645799D01*
X165713957Y-40797371D01*
X165966011Y-40901775D01*
X166233589Y-40955000D01*
X166506411Y-40955000D01*
X166773989Y-40901775D01*
X167026043Y-40797371D01*
X167252886Y-40645799D01*
X167445799Y-40452886D01*
X167597371Y-40226043D01*
X167701775Y-39973989D01*
X167755000Y-39706411D01*
X167755000Y-39433589D01*
X167701775Y-39166011D01*
X167597371Y-38913957D01*
X167445799Y-38687114D01*
X167252886Y-38494201D01*
X167026043Y-38342629D01*
X166773989Y-38238225D01*
X166506411Y-38185000D01*
X166233589Y-38185000D01*
X165966011Y-38238225D01*
X165713957Y-38342629D01*
X165487114Y-38494201D01*
X165294201Y-38687114D01*
X165142629Y-38913957D01*
X165038225Y-39166011D01*
X164985000Y-39433589D01*
X160145000Y-39433589D01*
X160145000Y-39199664D01*
X162839239Y-36505426D01*
X162987697Y-36475896D01*
X163161041Y-36404095D01*
X163317047Y-36299855D01*
X163449718Y-36167184D01*
X163553958Y-36011178D01*
X163625759Y-35837834D01*
X163656160Y-35685000D01*
X164153703Y-35685000D01*
X164184104Y-35837834D01*
%TA.AperFunction,Conductor*%
D16*
G36*
X164184104Y-35837834D02*
G01*
X164255905Y-36011178D01*
X164360145Y-36167184D01*
X164492816Y-36299855D01*
X164648822Y-36404095D01*
X164822166Y-36475896D01*
X165006187Y-36512500D01*
X165193813Y-36512500D01*
X165377834Y-36475896D01*
X165551178Y-36404095D01*
X165677035Y-36320000D01*
X171135199Y-36320000D01*
X171325000Y-36509802D01*
X171325001Y-47945197D01*
X171135199Y-48135000D01*
X161732953Y-48135000D01*
X159696217Y-46098265D01*
X159666687Y-45949806D01*
X159594886Y-45776462D01*
X159490646Y-45620456D01*
X159357975Y-45487785D01*
X159201969Y-45383545D01*
X159028625Y-45311744D01*
X158844604Y-45275140D01*
X158656978Y-45275140D01*
X158472957Y-45311744D01*
X158390197Y-45346024D01*
X158244201Y-45285551D01*
X158060180Y-45248947D01*
X157872554Y-45248947D01*
X157688533Y-45285551D01*
X157515189Y-45357352D01*
X157380922Y-45447066D01*
X157254334Y-45320478D01*
X157254334Y-44106273D01*
X157386187Y-44132500D01*
X157573813Y-44132500D01*
X157757834Y-44095896D01*
X157931178Y-44024095D01*
X158087184Y-43919855D01*
X158219855Y-43787184D01*
X158324095Y-43631178D01*
X158395896Y-43457834D01*
X158432500Y-43273813D01*
X158432500Y-43086187D01*
X158395896Y-42902166D01*
X158380056Y-42863925D01*
X158418297Y-42879765D01*
X158602318Y-42916369D01*
X158625001Y-42916369D01*
X158625001Y-43755279D01*
X158621324Y-43792611D01*
X158625001Y-43829944D01*
X158634758Y-43929002D01*
X158635998Y-43941596D01*
X158679454Y-44084857D01*
X158750026Y-44216887D01*
X158783036Y-44257109D01*
X158845000Y-44332612D01*
X158873998Y-44356410D01*
X159708241Y-45190653D01*
X159737771Y-45339112D01*
X159809572Y-45512456D01*
X159913812Y-45668462D01*
X160046483Y-45801133D01*
X160202489Y-45905373D01*
X160375833Y-45977174D01*
X160559854Y-46013778D01*
X160747480Y-46013778D01*
X160931501Y-45977174D01*
X161104845Y-45905373D01*
X161260851Y-45801133D01*
X161393522Y-45668462D01*
X161497762Y-45512456D01*
X161569563Y-45339112D01*
X161606167Y-45155091D01*
X161606167Y-44967465D01*
X161569563Y-44783444D01*
X161497762Y-44610100D01*
X161393522Y-44454094D01*
X161260851Y-44321423D01*
X161249127Y-44313589D01*
X164985000Y-44313589D01*
X164985000Y-44586411D01*
X165038225Y-44853989D01*
X165142629Y-45106043D01*
X165294201Y-45332886D01*
X165487114Y-45525799D01*
X165713957Y-45677371D01*
X165966011Y-45781775D01*
X166233589Y-45835000D01*
X166506411Y-45835000D01*
X166773989Y-45781775D01*
X167026043Y-45677371D01*
X167252886Y-45525799D01*
X167445799Y-45332886D01*
X167597371Y-45106043D01*
X167701775Y-44853989D01*
X167755000Y-44586411D01*
X167755000Y-44313589D01*
X167701775Y-44046011D01*
X167597371Y-43793957D01*
X167445799Y-43567114D01*
X167252886Y-43374201D01*
X167026043Y-43222629D01*
X166773989Y-43118225D01*
X166506411Y-43065000D01*
X166233589Y-43065000D01*
X165966011Y-43118225D01*
X165713957Y-43222629D01*
X165487114Y-43374201D01*
X165294201Y-43567114D01*
X165142629Y-43793957D01*
X165038225Y-44046011D01*
X164985000Y-44313589D01*
X161249127Y-44313589D01*
X161104845Y-44217183D01*
X160931501Y-44145382D01*
X160783042Y-44115852D01*
X160145000Y-43477810D01*
X160145000Y-39433589D01*
X164985000Y-39433589D01*
X164985000Y-39706411D01*
X165038225Y-39973989D01*
X165142629Y-40226043D01*
X165294201Y-40452886D01*
X165487114Y-40645799D01*
X165713957Y-40797371D01*
X165966011Y-40901775D01*
X166233589Y-40955000D01*
X166506411Y-40955000D01*
X166773989Y-40901775D01*
X167026043Y-40797371D01*
X167252886Y-40645799D01*
X167445799Y-40452886D01*
X167597371Y-40226043D01*
X167701775Y-39973989D01*
X167755000Y-39706411D01*
X167755000Y-39433589D01*
X167701775Y-39166011D01*
X167597371Y-38913957D01*
X167445799Y-38687114D01*
X167252886Y-38494201D01*
X167026043Y-38342629D01*
X166773989Y-38238225D01*
X166506411Y-38185000D01*
X166233589Y-38185000D01*
X165966011Y-38238225D01*
X165713957Y-38342629D01*
X165487114Y-38494201D01*
X165294201Y-38687114D01*
X165142629Y-38913957D01*
X165038225Y-39166011D01*
X164985000Y-39433589D01*
X160145000Y-39433589D01*
X160145000Y-39199664D01*
X162839239Y-36505426D01*
X162987697Y-36475896D01*
X163161041Y-36404095D01*
X163317047Y-36299855D01*
X163449718Y-36167184D01*
X163553958Y-36011178D01*
X163625759Y-35837834D01*
X163656160Y-35685000D01*
X164153703Y-35685000D01*
X164184104Y-35837834D01*
G37*
%TD.AperFunction*%
D15*
X154376656Y-40957500D02*
X154211187Y-40957500D01*
X154027166Y-40994104D01*
X153853822Y-41065905D01*
X153697816Y-41170145D01*
X153565145Y-41302816D01*
X153460905Y-41458822D01*
X153389104Y-41632166D01*
X153352500Y-41816187D01*
X153352500Y-42003813D01*
X153389104Y-42187834D01*
X153447173Y-42328025D01*
X151450199Y-44325000D01*
X150106805Y-44325000D01*
X150140896Y-44242697D01*
X150177500Y-44058676D01*
X150177500Y-43871050D01*
X150140896Y-43687029D01*
X150093428Y-43572432D01*
X150140896Y-43457834D01*
X150177500Y-43273813D01*
X150177500Y-43086187D01*
X150140896Y-42902166D01*
X150069095Y-42728822D01*
X149964855Y-42572816D01*
X149832184Y-42440145D01*
X149676178Y-42335905D01*
X149502834Y-42264104D01*
X149318813Y-42227500D01*
X149131187Y-42227500D01*
X148947166Y-42264104D01*
X148773822Y-42335905D01*
X148647965Y-42420000D01*
X147446103Y-42420000D01*
X147477932Y-42343158D01*
X147535000Y-42056260D01*
X147535000Y-41763740D01*
X147477932Y-41476842D01*
X147446103Y-41400000D01*
X152335089Y-41400000D01*
X152372411Y-41403676D01*
X152409733Y-41400000D01*
X152409744Y-41400000D01*
X152521397Y-41389003D01*
X152664658Y-41345546D01*
X152796687Y-41274974D01*
X152912412Y-41180001D01*
X152936215Y-41150998D01*
X153516490Y-40570722D01*
X153664949Y-40541192D01*
X153838293Y-40469391D01*
X153994299Y-40365151D01*
X154126970Y-40232480D01*
X154231210Y-40076474D01*
X154303011Y-39903130D01*
X154339615Y-39719109D01*
X154339615Y-39716934D01*
X154376657Y-39697135D01*
X154376656Y-40957500D01*
%TA.AperFunction,Conductor*%
D16*
G36*
X154376656Y-40957500D02*
G01*
X154211187Y-40957500D01*
X154027166Y-40994104D01*
X153853822Y-41065905D01*
X153697816Y-41170145D01*
X153565145Y-41302816D01*
X153460905Y-41458822D01*
X153389104Y-41632166D01*
X153352500Y-41816187D01*
X153352500Y-42003813D01*
X153389104Y-42187834D01*
X153447173Y-42328025D01*
X151450199Y-44325000D01*
X150106805Y-44325000D01*
X150140896Y-44242697D01*
X150177500Y-44058676D01*
X150177500Y-43871050D01*
X150140896Y-43687029D01*
X150093428Y-43572432D01*
X150140896Y-43457834D01*
X150177500Y-43273813D01*
X150177500Y-43086187D01*
X150140896Y-42902166D01*
X150069095Y-42728822D01*
X149964855Y-42572816D01*
X149832184Y-42440145D01*
X149676178Y-42335905D01*
X149502834Y-42264104D01*
X149318813Y-42227500D01*
X149131187Y-42227500D01*
X148947166Y-42264104D01*
X148773822Y-42335905D01*
X148647965Y-42420000D01*
X147446103Y-42420000D01*
X147477932Y-42343158D01*
X147535000Y-42056260D01*
X147535000Y-41763740D01*
X147477932Y-41476842D01*
X147446103Y-41400000D01*
X152335089Y-41400000D01*
X152372411Y-41403676D01*
X152409733Y-41400000D01*
X152409744Y-41400000D01*
X152521397Y-41389003D01*
X152664658Y-41345546D01*
X152796687Y-41274974D01*
X152912412Y-41180001D01*
X152936215Y-41150998D01*
X153516490Y-40570722D01*
X153664949Y-40541192D01*
X153838293Y-40469391D01*
X153994299Y-40365151D01*
X154126970Y-40232480D01*
X154231210Y-40076474D01*
X154303011Y-39903130D01*
X154339615Y-39719109D01*
X154339615Y-39716934D01*
X154376657Y-39697135D01*
X154376656Y-40957500D01*
G37*
%TD.AperFunction*%
D15*
X158866525Y-33966632D02*
X159073368Y-34173475D01*
X159316589Y-34335990D01*
X159519611Y-34420084D01*
X156968998Y-36970699D01*
X156940000Y-36994497D01*
X156916202Y-37023495D01*
X156916201Y-37023496D01*
X156845026Y-37110222D01*
X156774454Y-37242252D01*
X156756994Y-37299813D01*
X156730998Y-37385512D01*
X156722209Y-37474747D01*
X156716324Y-37534498D01*
X156720001Y-37571830D01*
X156720001Y-37713779D01*
X155984794Y-36978572D01*
X155960991Y-36949569D01*
X155845266Y-36854596D01*
X155713237Y-36784024D01*
X155569976Y-36740567D01*
X155458323Y-36729570D01*
X155458312Y-36729570D01*
X155420990Y-36725894D01*
X155383668Y-36729570D01*
X154561685Y-36729570D01*
X154524363Y-36725894D01*
X154487040Y-36729570D01*
X154487030Y-36729570D01*
X154375377Y-36740567D01*
X154232162Y-36784010D01*
X154232116Y-36784024D01*
X154100086Y-36854596D01*
X154028003Y-36913754D01*
X153984362Y-36949569D01*
X153960564Y-36978567D01*
X153066077Y-37873055D01*
X152189701Y-37873055D01*
X152241349Y-37851662D01*
X152397355Y-37747422D01*
X152530026Y-37614751D01*
X152634266Y-37458745D01*
X152706067Y-37285401D01*
X152742671Y-37101380D01*
X152742671Y-36913754D01*
X152706067Y-36729733D01*
X152634266Y-36556389D01*
X152530026Y-36400383D01*
X152397355Y-36267712D01*
X152241349Y-36163472D01*
X152068005Y-36091671D01*
X151919548Y-36062141D01*
X150301770Y-34444365D01*
X150563411Y-34335990D01*
X150806632Y-34173475D01*
X151013475Y-33966632D01*
X151130000Y-33792240D01*
X151246525Y-33966632D01*
X151453368Y-34173475D01*
X151696589Y-34335990D01*
X151966842Y-34447932D01*
X152253740Y-34505000D01*
X152546260Y-34505000D01*
X152833158Y-34447932D01*
X153103411Y-34335990D01*
X153346632Y-34173475D01*
X153553475Y-33966632D01*
X153670000Y-33792240D01*
X153786525Y-33966632D01*
X153993368Y-34173475D01*
X154236589Y-34335990D01*
X154506842Y-34447932D01*
X154793740Y-34505000D01*
X155086260Y-34505000D01*
X155373158Y-34447932D01*
X155643411Y-34335990D01*
X155886632Y-34173475D01*
X156093475Y-33966632D01*
X156210000Y-33792240D01*
X156326525Y-33966632D01*
X156533368Y-34173475D01*
X156776589Y-34335990D01*
X157046842Y-34447932D01*
X157333740Y-34505000D01*
X157626260Y-34505000D01*
X157913158Y-34447932D01*
X158183411Y-34335990D01*
X158426632Y-34173475D01*
X158633475Y-33966632D01*
X158750000Y-33792240D01*
X158866525Y-33966632D01*
%TA.AperFunction,Conductor*%
D16*
G36*
X158866525Y-33966632D02*
G01*
X159073368Y-34173475D01*
X159316589Y-34335990D01*
X159519611Y-34420084D01*
X156968998Y-36970699D01*
X156940000Y-36994497D01*
X156916202Y-37023495D01*
X156916201Y-37023496D01*
X156845026Y-37110222D01*
X156774454Y-37242252D01*
X156756994Y-37299813D01*
X156730998Y-37385512D01*
X156722209Y-37474747D01*
X156716324Y-37534498D01*
X156720001Y-37571830D01*
X156720001Y-37713779D01*
X155984794Y-36978572D01*
X155960991Y-36949569D01*
X155845266Y-36854596D01*
X155713237Y-36784024D01*
X155569976Y-36740567D01*
X155458323Y-36729570D01*
X155458312Y-36729570D01*
X155420990Y-36725894D01*
X155383668Y-36729570D01*
X154561685Y-36729570D01*
X154524363Y-36725894D01*
X154487040Y-36729570D01*
X154487030Y-36729570D01*
X154375377Y-36740567D01*
X154232162Y-36784010D01*
X154232116Y-36784024D01*
X154100086Y-36854596D01*
X154028003Y-36913754D01*
X153984362Y-36949569D01*
X153960564Y-36978567D01*
X153066077Y-37873055D01*
X152189701Y-37873055D01*
X152241349Y-37851662D01*
X152397355Y-37747422D01*
X152530026Y-37614751D01*
X152634266Y-37458745D01*
X152706067Y-37285401D01*
X152742671Y-37101380D01*
X152742671Y-36913754D01*
X152706067Y-36729733D01*
X152634266Y-36556389D01*
X152530026Y-36400383D01*
X152397355Y-36267712D01*
X152241349Y-36163472D01*
X152068005Y-36091671D01*
X151919548Y-36062141D01*
X150301770Y-34444365D01*
X150563411Y-34335990D01*
X150806632Y-34173475D01*
X151013475Y-33966632D01*
X151130000Y-33792240D01*
X151246525Y-33966632D01*
X151453368Y-34173475D01*
X151696589Y-34335990D01*
X151966842Y-34447932D01*
X152253740Y-34505000D01*
X152546260Y-34505000D01*
X152833158Y-34447932D01*
X153103411Y-34335990D01*
X153346632Y-34173475D01*
X153553475Y-33966632D01*
X153670000Y-33792240D01*
X153786525Y-33966632D01*
X153993368Y-34173475D01*
X154236589Y-34335990D01*
X154506842Y-34447932D01*
X154793740Y-34505000D01*
X155086260Y-34505000D01*
X155373158Y-34447932D01*
X155643411Y-34335990D01*
X155886632Y-34173475D01*
X156093475Y-33966632D01*
X156210000Y-33792240D01*
X156326525Y-33966632D01*
X156533368Y-34173475D01*
X156776589Y-34335990D01*
X157046842Y-34447932D01*
X157333740Y-34505000D01*
X157626260Y-34505000D01*
X157913158Y-34447932D01*
X158183411Y-34335990D01*
X158426632Y-34173475D01*
X158633475Y-33966632D01*
X158750000Y-33792240D01*
X158866525Y-33966632D01*
G37*
%TD.AperFunction*%
D15*
X147511513Y-35808380D02*
X147489502Y-35735820D01*
X147462338Y-35685000D01*
X147634893Y-35685000D01*
X147511513Y-35808380D01*
%TA.AperFunction,Conductor*%
D16*
G36*
X147511513Y-35808380D02*
G01*
X147489502Y-35735820D01*
X147462338Y-35685000D01*
X147634893Y-35685000D01*
X147511513Y-35808380D01*
G37*
%TD.AperFunction*%
D15*
X171477816Y-33759855D02*
X171633822Y-33864095D01*
X171807166Y-33935896D01*
X171955625Y-33965426D01*
X171960000Y-33969802D01*
X171960000Y-34995378D01*
X171874276Y-34925026D01*
X171742247Y-34854454D01*
X171598986Y-34810997D01*
X171487333Y-34800000D01*
X171487322Y-34800000D01*
X171450000Y-34796324D01*
X171412678Y-34800000D01*
X167951291Y-34800000D01*
X167920890Y-34647166D01*
X167856238Y-34491080D01*
X168073158Y-34447932D01*
X168343411Y-34335990D01*
X168586632Y-34173475D01*
X168793475Y-33966632D01*
X168910000Y-33792240D01*
X169026525Y-33966632D01*
X169233368Y-34173475D01*
X169476589Y-34335990D01*
X169746842Y-34447932D01*
X170033740Y-34505000D01*
X170326260Y-34505000D01*
X170613158Y-34447932D01*
X170883411Y-34335990D01*
X171126632Y-34173475D01*
X171333475Y-33966632D01*
X171474113Y-33756152D01*
X171477816Y-33759855D01*
%TA.AperFunction,Conductor*%
D16*
G36*
X171477816Y-33759855D02*
G01*
X171633822Y-33864095D01*
X171807166Y-33935896D01*
X171955625Y-33965426D01*
X171960000Y-33969802D01*
X171960000Y-34995378D01*
X171874276Y-34925026D01*
X171742247Y-34854454D01*
X171598986Y-34810997D01*
X171487333Y-34800000D01*
X171487322Y-34800000D01*
X171450000Y-34796324D01*
X171412678Y-34800000D01*
X167951291Y-34800000D01*
X167920890Y-34647166D01*
X167856238Y-34491080D01*
X168073158Y-34447932D01*
X168343411Y-34335990D01*
X168586632Y-34173475D01*
X168793475Y-33966632D01*
X168910000Y-33792240D01*
X169026525Y-33966632D01*
X169233368Y-34173475D01*
X169476589Y-34335990D01*
X169746842Y-34447932D01*
X170033740Y-34505000D01*
X170326260Y-34505000D01*
X170613158Y-34447932D01*
X170883411Y-34335990D01*
X171126632Y-34173475D01*
X171333475Y-33966632D01*
X171474113Y-33756152D01*
X171477816Y-33759855D01*
G37*
%TD.AperFunction*%
D15*
X148904893Y-34165000D02*
X148732338Y-34165000D01*
X148759502Y-34114180D01*
X148781513Y-34041620D01*
X148904893Y-34165000D01*
%TA.AperFunction,Conductor*%
D16*
G36*
X148904893Y-34165000D02*
G01*
X148732338Y-34165000D01*
X148759502Y-34114180D01*
X148781513Y-34041620D01*
X148904893Y-34165000D01*
G37*
%TD.AperFunction*%
D15*
X161406525Y-33966632D02*
X161604893Y-34165000D01*
X160975107Y-34165000D01*
X161173475Y-33966632D01*
X161290000Y-33792240D01*
X161406525Y-33966632D01*
%TA.AperFunction,Conductor*%
D16*
G36*
X161406525Y-33966632D02*
G01*
X161604893Y-34165000D01*
X160975107Y-34165000D01*
X161173475Y-33966632D01*
X161290000Y-33792240D01*
X161406525Y-33966632D01*
G37*
%TD.AperFunction*%
D15*
X163946525Y-33966632D02*
X164144893Y-34165000D01*
X163515107Y-34165000D01*
X163713475Y-33966632D01*
X163830000Y-33792240D01*
X163946525Y-33966632D01*
%TA.AperFunction,Conductor*%
D16*
G36*
X163946525Y-33966632D02*
G01*
X164144893Y-34165000D01*
X163515107Y-34165000D01*
X163713475Y-33966632D01*
X163830000Y-33792240D01*
X163946525Y-33966632D01*
G37*
%TD.AperFunction*%
D15*
X166486525Y-33966632D02*
X166587037Y-34067144D01*
X166553816Y-34080905D01*
X166427959Y-34165000D01*
X166055107Y-34165000D01*
X166253475Y-33966632D01*
X166370000Y-33792240D01*
X166486525Y-33966632D01*
%TA.AperFunction,Conductor*%
D16*
G36*
X166486525Y-33966632D02*
G01*
X166587037Y-34067144D01*
X166553816Y-34080905D01*
X166427959Y-34165000D01*
X166055107Y-34165000D01*
X166253475Y-33966632D01*
X166370000Y-33792240D01*
X166486525Y-33966632D01*
G37*
%TD.AperFunction*%
%TD*%
D15*
%TO.N,GND*%
X171239654Y-30875326D02*
X171648140Y-30998655D01*
X172024888Y-31198974D01*
X172355550Y-31468657D01*
X172627535Y-31797431D01*
X172830480Y-32172769D01*
X172956657Y-32580381D01*
X173003001Y-33021318D01*
X173003001Y-33298777D01*
X172729500Y-33025276D01*
X172729500Y-32956522D01*
X172704732Y-32832006D01*
X172656148Y-32714715D01*
X172585615Y-32609155D01*
X172495845Y-32519385D01*
X172390285Y-32448852D01*
X172272994Y-32400268D01*
X172148478Y-32375500D01*
X172021522Y-32375500D01*
X171897006Y-32400268D01*
X171779715Y-32448852D01*
X171674155Y-32519385D01*
X171584385Y-32609155D01*
X171513852Y-32714715D01*
X171465268Y-32832006D01*
X171440500Y-32956522D01*
X171440500Y-33083478D01*
X171465268Y-33207994D01*
X171513852Y-33325285D01*
X171584385Y-33430845D01*
X171674155Y-33520615D01*
X171779715Y-33591148D01*
X171897006Y-33639732D01*
X172021522Y-33664500D01*
X172090276Y-33664500D01*
X172268000Y-33842224D01*
X172268000Y-35738776D01*
X171785323Y-35256100D01*
X171771159Y-35238841D01*
X171702333Y-35182357D01*
X171623810Y-35140386D01*
X171538607Y-35114540D01*
X171472205Y-35108000D01*
X171450000Y-35105813D01*
X171427795Y-35108000D01*
X167625719Y-35108000D01*
X167649494Y-34988478D01*
X167649494Y-34861522D01*
X167624726Y-34737006D01*
X167576142Y-34619715D01*
X167505609Y-34514155D01*
X167415839Y-34424385D01*
X167310279Y-34353852D01*
X167192988Y-34305268D01*
X167068472Y-34280500D01*
X166941516Y-34280500D01*
X166817000Y-34305268D01*
X166699709Y-34353852D01*
X166594149Y-34424385D01*
X166545534Y-34473000D01*
X160111700Y-34473000D01*
X160089497Y-34470813D01*
X160067294Y-34473000D01*
X160067293Y-34473000D01*
X160000891Y-34479540D01*
X159915688Y-34505386D01*
X159837165Y-34547357D01*
X159768339Y-34603841D01*
X159754184Y-34621089D01*
X157176096Y-37199179D01*
X157158842Y-37213339D01*
X157107861Y-37275460D01*
X157102358Y-37282165D01*
X157060386Y-37360689D01*
X157034540Y-37445891D01*
X157025813Y-37534498D01*
X157028001Y-37556713D01*
X157028000Y-42720540D01*
X156979385Y-42769155D01*
X156946334Y-42818619D01*
X156946334Y-38585119D01*
X156948521Y-38562914D01*
X156939794Y-38474306D01*
X156913948Y-38389104D01*
X156900476Y-38363900D01*
X156871977Y-38310581D01*
X156815493Y-38241755D01*
X156798239Y-38227595D01*
X155756313Y-37185670D01*
X155742149Y-37168411D01*
X155673323Y-37111927D01*
X155594800Y-37069956D01*
X155509597Y-37044110D01*
X155443195Y-37037570D01*
X155420990Y-37035383D01*
X155398785Y-37037570D01*
X154546568Y-37037570D01*
X154524363Y-37035383D01*
X154435755Y-37044110D01*
X154393408Y-37056956D01*
X154350553Y-37069956D01*
X154272030Y-37111927D01*
X154203204Y-37168411D01*
X154189044Y-37185665D01*
X153193655Y-38181055D01*
X151782360Y-38181055D01*
X150127404Y-36526100D01*
X150113240Y-36508841D01*
X150044414Y-36452357D01*
X149965891Y-36410386D01*
X149880688Y-36384540D01*
X149814286Y-36378000D01*
X149792081Y-36375813D01*
X149769876Y-36378000D01*
X149676751Y-36378000D01*
X149633044Y-36272481D01*
X149504236Y-36079706D01*
X149340294Y-35915764D01*
X149147519Y-35786956D01*
X148933318Y-35698231D01*
X148705924Y-35653000D01*
X148474076Y-35653000D01*
X148246682Y-35698231D01*
X148032481Y-35786956D01*
X147839706Y-35915764D01*
X147675764Y-36079706D01*
X147546956Y-36272481D01*
X147458231Y-36486682D01*
X147413000Y-36714076D01*
X147413000Y-36945924D01*
X147458231Y-37173318D01*
X147546956Y-37387519D01*
X147675764Y-37580294D01*
X147743470Y-37648000D01*
X147228582Y-37648000D01*
X147228582Y-35980000D01*
X147222268Y-35915897D01*
X147203570Y-35854257D01*
X147173206Y-35797450D01*
X147132343Y-35747657D01*
X147082550Y-35706794D01*
X147025743Y-35676430D01*
X146964103Y-35657732D01*
X146900000Y-35651418D01*
X145200000Y-35651418D01*
X145135897Y-35657732D01*
X145074257Y-35676430D01*
X145017450Y-35706794D01*
X144967657Y-35747657D01*
X144926794Y-35797450D01*
X144896430Y-35854257D01*
X144877732Y-35915897D01*
X144871418Y-35980000D01*
X144871418Y-37680000D01*
X144877732Y-37744103D01*
X144896430Y-37805743D01*
X144926794Y-37862550D01*
X144967657Y-37912343D01*
X145017450Y-37953206D01*
X145053274Y-37972354D01*
X144597000Y-38428629D01*
X144597000Y-35747223D01*
X144967224Y-35377000D01*
X149520381Y-35377000D01*
X151145671Y-37002292D01*
X151145671Y-37071045D01*
X151170439Y-37195561D01*
X151219023Y-37312852D01*
X151289556Y-37418412D01*
X151379326Y-37508182D01*
X151484886Y-37578715D01*
X151602177Y-37627299D01*
X151726693Y-37652067D01*
X151853649Y-37652067D01*
X151978165Y-37627299D01*
X152095456Y-37578715D01*
X152201016Y-37508182D01*
X152290786Y-37418412D01*
X152361319Y-37312852D01*
X152409903Y-37195561D01*
X152434671Y-37071045D01*
X152434671Y-36944089D01*
X152409903Y-36819573D01*
X152361319Y-36702282D01*
X152290786Y-36596722D01*
X152201016Y-36506952D01*
X152095456Y-36436419D01*
X151978165Y-36387835D01*
X151853649Y-36363067D01*
X151784896Y-36363067D01*
X150042927Y-34621100D01*
X150028763Y-34603841D01*
X149959937Y-34547357D01*
X149881414Y-34505386D01*
X149796211Y-34479540D01*
X149729809Y-34473000D01*
X149707604Y-34470813D01*
X149685399Y-34473000D01*
X144802205Y-34473000D01*
X144780000Y-34470813D01*
X144691392Y-34479540D01*
X144606190Y-34505386D01*
X144527667Y-34547357D01*
X144458841Y-34603841D01*
X144444681Y-34621095D01*
X143841096Y-35224681D01*
X143823842Y-35238841D01*
X143771481Y-35302643D01*
X143767358Y-35307667D01*
X143725386Y-35386191D01*
X143699540Y-35471393D01*
X143690813Y-35560000D01*
X143693001Y-35582215D01*
X143693000Y-38910540D01*
X143644385Y-38959155D01*
X143585224Y-39047695D01*
X143247798Y-38710269D01*
X143283044Y-38657519D01*
X143371769Y-38443318D01*
X143417000Y-38215924D01*
X143417000Y-37984076D01*
X143371769Y-37756682D01*
X143283044Y-37542481D01*
X143154236Y-37349706D01*
X142990294Y-37185764D01*
X142797519Y-37056956D01*
X142583318Y-36968231D01*
X142355924Y-36923000D01*
X142124076Y-36923000D01*
X141896682Y-36968231D01*
X141682481Y-37056956D01*
X141489706Y-37185764D01*
X141325764Y-37349706D01*
X141196956Y-37542481D01*
X141108231Y-37756682D01*
X141063000Y-37984076D01*
X141063000Y-38215924D01*
X141108231Y-38443318D01*
X141196956Y-38657519D01*
X141325764Y-38850294D01*
X141489706Y-39014236D01*
X141682481Y-39143044D01*
X141896682Y-39231769D01*
X142124076Y-39277000D01*
X142355924Y-39277000D01*
X142506192Y-39247110D01*
X142973874Y-39714792D01*
X142797519Y-39596956D01*
X142583318Y-39508231D01*
X142355924Y-39463000D01*
X142124076Y-39463000D01*
X141896682Y-39508231D01*
X141682481Y-39596956D01*
X141489706Y-39725764D01*
X141325764Y-39889706D01*
X141196956Y-40082481D01*
X141108231Y-40296682D01*
X141063000Y-40524076D01*
X141063000Y-40755924D01*
X141108231Y-40983318D01*
X141196956Y-41197519D01*
X141325764Y-41390294D01*
X141489706Y-41554236D01*
X141682481Y-41683044D01*
X141896682Y-41771769D01*
X142124076Y-41817000D01*
X142236372Y-41817000D01*
X142230500Y-41846522D01*
X142230500Y-41973478D01*
X142236372Y-42003000D01*
X142124076Y-42003000D01*
X141896682Y-42048231D01*
X141682481Y-42136956D01*
X141489706Y-42265764D01*
X141325764Y-42429706D01*
X141196956Y-42622481D01*
X141108231Y-42836682D01*
X141063000Y-43064076D01*
X141063000Y-43295924D01*
X141108231Y-43523318D01*
X141196956Y-43737519D01*
X141325764Y-43930294D01*
X141489706Y-44094236D01*
X141682481Y-44223044D01*
X141896682Y-44311769D01*
X142124076Y-44357000D01*
X142133873Y-44357000D01*
X142128001Y-44386522D01*
X142128001Y-44513478D01*
X142133873Y-44543000D01*
X142124076Y-44543000D01*
X141896682Y-44588231D01*
X141682481Y-44676956D01*
X141489706Y-44805764D01*
X141325764Y-44969706D01*
X141196956Y-45162481D01*
X141108231Y-45376682D01*
X141063000Y-45604076D01*
X141063000Y-45835924D01*
X141108231Y-46063318D01*
X141196956Y-46277519D01*
X141325764Y-46470294D01*
X141489706Y-46634236D01*
X141682481Y-46763044D01*
X141896682Y-46851769D01*
X142124076Y-46897000D01*
X142355924Y-46897000D01*
X142583318Y-46851769D01*
X142797519Y-46763044D01*
X142990294Y-46634236D01*
X143058001Y-46566529D01*
X143058001Y-47413471D01*
X142990294Y-47345764D01*
X142797519Y-47216956D01*
X142583318Y-47128231D01*
X142355924Y-47083000D01*
X142124076Y-47083000D01*
X141896682Y-47128231D01*
X141682481Y-47216956D01*
X141489706Y-47345764D01*
X141325764Y-47509706D01*
X141196956Y-47702481D01*
X141108231Y-47916682D01*
X141063000Y-48144076D01*
X141063000Y-48162776D01*
X140666100Y-48559677D01*
X140648841Y-48573841D01*
X140592358Y-48642667D01*
X140550386Y-48721191D01*
X140524540Y-48806393D01*
X140515813Y-48895000D01*
X140518000Y-48917204D01*
X140518001Y-51172579D01*
X140515813Y-51194794D01*
X140524540Y-51283401D01*
X140550386Y-51368603D01*
X140580798Y-51425500D01*
X140592358Y-51447127D01*
X140648842Y-51515953D01*
X140666096Y-51530113D01*
X141509891Y-52373910D01*
X141524047Y-52391159D01*
X141531878Y-52397586D01*
X141489706Y-52425764D01*
X141325764Y-52589706D01*
X141196956Y-52782481D01*
X141108231Y-52996682D01*
X141063000Y-53224076D01*
X141063000Y-53455924D01*
X141108231Y-53683318D01*
X141196956Y-53897519D01*
X141325764Y-54090294D01*
X141489706Y-54254236D01*
X141682481Y-54383044D01*
X141896682Y-54471769D01*
X142124076Y-54517000D01*
X142355924Y-54517000D01*
X142583318Y-54471769D01*
X142797519Y-54383044D01*
X142990294Y-54254236D01*
X143100639Y-54143891D01*
X143100640Y-55076110D01*
X142990294Y-54965764D01*
X142797519Y-54836956D01*
X142583318Y-54748231D01*
X142355924Y-54703000D01*
X142124076Y-54703000D01*
X141896682Y-54748231D01*
X141682481Y-54836956D01*
X141489706Y-54965764D01*
X141325764Y-55129706D01*
X141196956Y-55322481D01*
X141108231Y-55536682D01*
X141063000Y-55764076D01*
X141063000Y-55995924D01*
X141108231Y-56223318D01*
X141196956Y-56437519D01*
X141325764Y-56630294D01*
X141489706Y-56794236D01*
X141682481Y-56923044D01*
X141896682Y-57011769D01*
X142124076Y-57057000D01*
X142355924Y-57057000D01*
X142583318Y-57011769D01*
X142797519Y-56923044D01*
X142990294Y-56794236D01*
X143154236Y-56630294D01*
X143244080Y-56495833D01*
X143248734Y-56499652D01*
X143525347Y-56776266D01*
X143539507Y-56793520D01*
X143608333Y-56850004D01*
X143668697Y-56882269D01*
X143686856Y-56891975D01*
X143772058Y-56917821D01*
X143860666Y-56926548D01*
X143882871Y-56924361D01*
X146705434Y-56924361D01*
X146727639Y-56926548D01*
X146749844Y-56924361D01*
X146816246Y-56917821D01*
X146901449Y-56891975D01*
X146979972Y-56850004D01*
X147048798Y-56793520D01*
X147062962Y-56776261D01*
X154608906Y-49230318D01*
X154626159Y-49216159D01*
X154682643Y-49147333D01*
X154724614Y-49068810D01*
X154750460Y-48983607D01*
X154757000Y-48917205D01*
X154757000Y-48917204D01*
X154759187Y-48895000D01*
X154757000Y-48872795D01*
X154757000Y-46687100D01*
X154805615Y-46638485D01*
X154876148Y-46532925D01*
X154924732Y-46415634D01*
X154949500Y-46291118D01*
X154949500Y-46164162D01*
X154924732Y-46039646D01*
X154876148Y-45922355D01*
X154805615Y-45816795D01*
X154715845Y-45727025D01*
X154610285Y-45656492D01*
X154492994Y-45607908D01*
X154368478Y-45583140D01*
X154241522Y-45583140D01*
X154117006Y-45607908D01*
X153999715Y-45656492D01*
X153894155Y-45727025D01*
X153804385Y-45816795D01*
X153733852Y-45922355D01*
X153685268Y-46039646D01*
X153660500Y-46164162D01*
X153660500Y-46291118D01*
X153685268Y-46415634D01*
X153733852Y-46532925D01*
X153804385Y-46638485D01*
X153853001Y-46687101D01*
X153853000Y-48707776D01*
X146540416Y-56020361D01*
X144774207Y-56020361D01*
X144789500Y-55943478D01*
X144789500Y-55816522D01*
X144764732Y-55692006D01*
X144716148Y-55574715D01*
X144645615Y-55469155D01*
X144597000Y-55420540D01*
X144597000Y-53527223D01*
X155440562Y-42683662D01*
X155457815Y-42669503D01*
X155514299Y-42600677D01*
X155556270Y-42522154D01*
X155568709Y-42481148D01*
X155582116Y-42436952D01*
X155590843Y-42348344D01*
X155588656Y-42326139D01*
X155588656Y-38541391D01*
X155637271Y-38492776D01*
X155696432Y-38404235D01*
X156042335Y-38750139D01*
X156042334Y-45603864D01*
X156022006Y-45607908D01*
X155904715Y-45656492D01*
X155799155Y-45727025D01*
X155709385Y-45816795D01*
X155638852Y-45922355D01*
X155590268Y-46039646D01*
X155565500Y-46164162D01*
X155565500Y-46232917D01*
X155271100Y-46527317D01*
X155253841Y-46541481D01*
X155197357Y-46610308D01*
X155161800Y-46676832D01*
X155155386Y-46688831D01*
X155129540Y-46774033D01*
X155120813Y-46862640D01*
X155123000Y-46884845D01*
X155123001Y-50612775D01*
X154945276Y-50790500D01*
X154876522Y-50790500D01*
X154752006Y-50815268D01*
X154634715Y-50863852D01*
X154529155Y-50934385D01*
X154439385Y-51024155D01*
X154368852Y-51129715D01*
X154320268Y-51247006D01*
X154295500Y-51371522D01*
X154295500Y-51498478D01*
X154320268Y-51622994D01*
X154368852Y-51740285D01*
X154439385Y-51845845D01*
X154529155Y-51935615D01*
X154634715Y-52006148D01*
X154752006Y-52054732D01*
X154876522Y-52079500D01*
X155003478Y-52079500D01*
X155127994Y-52054732D01*
X155245285Y-52006148D01*
X155350845Y-51935615D01*
X155440615Y-51845845D01*
X155511148Y-51740285D01*
X155559732Y-51622994D01*
X155584500Y-51498478D01*
X155584500Y-51429724D01*
X155878905Y-51135319D01*
X155896159Y-51121159D01*
X155952643Y-51052333D01*
X155994614Y-50973810D01*
X156004124Y-50942461D01*
X156020460Y-50888608D01*
X156029187Y-50800000D01*
X156027000Y-50777795D01*
X156027000Y-47049863D01*
X156204723Y-46872140D01*
X156273478Y-46872140D01*
X156397994Y-46847372D01*
X156515285Y-46798788D01*
X156620845Y-46728255D01*
X156710615Y-46638485D01*
X156769776Y-46549944D01*
X160838001Y-50618170D01*
X160838000Y-50975540D01*
X160789385Y-51024155D01*
X160718852Y-51129715D01*
X160670268Y-51247006D01*
X160645500Y-51371522D01*
X160645500Y-51498478D01*
X160670268Y-51622994D01*
X160718852Y-51740285D01*
X160789385Y-51845845D01*
X160879155Y-51935615D01*
X160984715Y-52006148D01*
X161102006Y-52054732D01*
X161226522Y-52079500D01*
X161353478Y-52079500D01*
X161477994Y-52054732D01*
X161595285Y-52006148D01*
X161700845Y-51935615D01*
X161790615Y-51845845D01*
X161861148Y-51740285D01*
X161909732Y-51622994D01*
X161934500Y-51498478D01*
X161934500Y-51371522D01*
X161909732Y-51247006D01*
X161861148Y-51129715D01*
X161790615Y-51024155D01*
X161742000Y-50975540D01*
X161742000Y-50453150D01*
X161744187Y-50430945D01*
X161735460Y-50342337D01*
X161709614Y-50257135D01*
X161667642Y-50178611D01*
X161641486Y-50146740D01*
X171814794Y-50146740D01*
X171836999Y-50148927D01*
X171859204Y-50146740D01*
X171925606Y-50140200D01*
X172010809Y-50114354D01*
X172089332Y-50072383D01*
X172158158Y-50015899D01*
X172172322Y-49998640D01*
X173003000Y-49167963D01*
X173003000Y-55862785D01*
X172959674Y-56304659D01*
X172836346Y-56713139D01*
X172636025Y-57089889D01*
X172366346Y-57420548D01*
X172037569Y-57692535D01*
X171662231Y-57895480D01*
X171254621Y-58021657D01*
X170813692Y-58068000D01*
X142257215Y-58068000D01*
X141815341Y-58024674D01*
X141406861Y-57901346D01*
X141030111Y-57701025D01*
X140699452Y-57431346D01*
X140427465Y-57102569D01*
X140224520Y-56727231D01*
X140098343Y-56319621D01*
X140052000Y-55878692D01*
X140052000Y-33037215D01*
X140095326Y-32595346D01*
X140218655Y-32186860D01*
X140227619Y-32170000D01*
X141061418Y-32170000D01*
X141061418Y-33870000D01*
X141067732Y-33934103D01*
X141086430Y-33995743D01*
X141116794Y-34052550D01*
X141157657Y-34102343D01*
X141207450Y-34143206D01*
X141264257Y-34173570D01*
X141325897Y-34192268D01*
X141390000Y-34198582D01*
X143090000Y-34198582D01*
X143154103Y-34192268D01*
X143215743Y-34173570D01*
X143272550Y-34143206D01*
X143322343Y-34102343D01*
X143363206Y-34052550D01*
X143393570Y-33995743D01*
X143412268Y-33934103D01*
X143418582Y-33870000D01*
X143418582Y-32170000D01*
X146141418Y-32170000D01*
X146141418Y-33870000D01*
X146147732Y-33934103D01*
X146166430Y-33995743D01*
X146196794Y-34052550D01*
X146237657Y-34102343D01*
X146287450Y-34143206D01*
X146344257Y-34173570D01*
X146405897Y-34192268D01*
X146470000Y-34198582D01*
X148170000Y-34198582D01*
X148234103Y-34192268D01*
X148295743Y-34173570D01*
X148352550Y-34143206D01*
X148402343Y-34102343D01*
X148443206Y-34052550D01*
X148473570Y-33995743D01*
X148492268Y-33934103D01*
X148498582Y-33870000D01*
X148498582Y-32904076D01*
X148683000Y-32904076D01*
X148683000Y-33135924D01*
X148728231Y-33363318D01*
X148816956Y-33577519D01*
X148945764Y-33770294D01*
X149109706Y-33934236D01*
X149302481Y-34063044D01*
X149516682Y-34151769D01*
X149744076Y-34197000D01*
X149975924Y-34197000D01*
X150203318Y-34151769D01*
X150417519Y-34063044D01*
X150610294Y-33934236D01*
X150774236Y-33770294D01*
X150903044Y-33577519D01*
X150991769Y-33363318D01*
X151037000Y-33135924D01*
X151037000Y-32904076D01*
X151223000Y-32904076D01*
X151223000Y-33135924D01*
X151268231Y-33363318D01*
X151356956Y-33577519D01*
X151485764Y-33770294D01*
X151649706Y-33934236D01*
X151842481Y-34063044D01*
X152056682Y-34151769D01*
X152284076Y-34197000D01*
X152515924Y-34197000D01*
X152743318Y-34151769D01*
X152957519Y-34063044D01*
X153150294Y-33934236D01*
X153314236Y-33770294D01*
X153443044Y-33577519D01*
X153531769Y-33363318D01*
X153577000Y-33135924D01*
X153577000Y-32904076D01*
X153763000Y-32904076D01*
X153763000Y-33135924D01*
X153808231Y-33363318D01*
X153896956Y-33577519D01*
X154025764Y-33770294D01*
X154189706Y-33934236D01*
X154382481Y-34063044D01*
X154596682Y-34151769D01*
X154824076Y-34197000D01*
X155055924Y-34197000D01*
X155283318Y-34151769D01*
X155497519Y-34063044D01*
X155690294Y-33934236D01*
X155854236Y-33770294D01*
X155983044Y-33577519D01*
X156071769Y-33363318D01*
X156117000Y-33135924D01*
X156117000Y-32904076D01*
X156303000Y-32904076D01*
X156303000Y-33135924D01*
X156348231Y-33363318D01*
X156436956Y-33577519D01*
X156565764Y-33770294D01*
X156729706Y-33934236D01*
X156922481Y-34063044D01*
X157136682Y-34151769D01*
X157364076Y-34197000D01*
X157595924Y-34197000D01*
X157823318Y-34151769D01*
X158037519Y-34063044D01*
X158230294Y-33934236D01*
X158394236Y-33770294D01*
X158523044Y-33577519D01*
X158611769Y-33363318D01*
X158657000Y-33135924D01*
X158657000Y-32904076D01*
X158843000Y-32904076D01*
X158843000Y-33135924D01*
X158888231Y-33363318D01*
X158976956Y-33577519D01*
X159105764Y-33770294D01*
X159269706Y-33934236D01*
X159462481Y-34063044D01*
X159676682Y-34151769D01*
X159904076Y-34197000D01*
X160135924Y-34197000D01*
X160363318Y-34151769D01*
X160577519Y-34063044D01*
X160770294Y-33934236D01*
X160934236Y-33770294D01*
X161063044Y-33577519D01*
X161151769Y-33363318D01*
X161197000Y-33135924D01*
X161197000Y-32904076D01*
X161383000Y-32904076D01*
X161383000Y-33135924D01*
X161428231Y-33363318D01*
X161516956Y-33577519D01*
X161645764Y-33770294D01*
X161809706Y-33934236D01*
X162002481Y-34063044D01*
X162216682Y-34151769D01*
X162444076Y-34197000D01*
X162675924Y-34197000D01*
X162903318Y-34151769D01*
X163117519Y-34063044D01*
X163310294Y-33934236D01*
X163474236Y-33770294D01*
X163603044Y-33577519D01*
X163691769Y-33363318D01*
X163737000Y-33135924D01*
X163737000Y-32904076D01*
X163923000Y-32904076D01*
X163923000Y-33135924D01*
X163968231Y-33363318D01*
X164056956Y-33577519D01*
X164185764Y-33770294D01*
X164349706Y-33934236D01*
X164542481Y-34063044D01*
X164756682Y-34151769D01*
X164984076Y-34197000D01*
X165215924Y-34197000D01*
X165443318Y-34151769D01*
X165657519Y-34063044D01*
X165850294Y-33934236D01*
X166014236Y-33770294D01*
X166143044Y-33577519D01*
X166231769Y-33363318D01*
X166277000Y-33135924D01*
X166277000Y-32904076D01*
X166463000Y-32904076D01*
X166463000Y-33135924D01*
X166508231Y-33363318D01*
X166596956Y-33577519D01*
X166725764Y-33770294D01*
X166889706Y-33934236D01*
X167082481Y-34063044D01*
X167296682Y-34151769D01*
X167524076Y-34197000D01*
X167755924Y-34197000D01*
X167983318Y-34151769D01*
X168197519Y-34063044D01*
X168390294Y-33934236D01*
X168554236Y-33770294D01*
X168683044Y-33577519D01*
X168771769Y-33363318D01*
X168817000Y-33135924D01*
X168817000Y-32904076D01*
X169003000Y-32904076D01*
X169003000Y-33135924D01*
X169048231Y-33363318D01*
X169136956Y-33577519D01*
X169265764Y-33770294D01*
X169429706Y-33934236D01*
X169622481Y-34063044D01*
X169836682Y-34151769D01*
X170064076Y-34197000D01*
X170295924Y-34197000D01*
X170523318Y-34151769D01*
X170737519Y-34063044D01*
X170930294Y-33934236D01*
X171094236Y-33770294D01*
X171223044Y-33577519D01*
X171311769Y-33363318D01*
X171357000Y-33135924D01*
X171357000Y-32904076D01*
X171311769Y-32676682D01*
X171223044Y-32462481D01*
X171094236Y-32269706D01*
X170930294Y-32105764D01*
X170737519Y-31976956D01*
X170523318Y-31888231D01*
X170295924Y-31843000D01*
X170064076Y-31843000D01*
X169836682Y-31888231D01*
X169622481Y-31976956D01*
X169429706Y-32105764D01*
X169265764Y-32269706D01*
X169136956Y-32462481D01*
X169048231Y-32676682D01*
X169003000Y-32904076D01*
X168817000Y-32904076D01*
X168771769Y-32676682D01*
X168683044Y-32462481D01*
X168554236Y-32269706D01*
X168390294Y-32105764D01*
X168197519Y-31976956D01*
X167983318Y-31888231D01*
X167755924Y-31843000D01*
X167524076Y-31843000D01*
X167296682Y-31888231D01*
X167082481Y-31976956D01*
X166889706Y-32105764D01*
X166725764Y-32269706D01*
X166596956Y-32462481D01*
X166508231Y-32676682D01*
X166463000Y-32904076D01*
X166277000Y-32904076D01*
X166231769Y-32676682D01*
X166143044Y-32462481D01*
X166014236Y-32269706D01*
X165850294Y-32105764D01*
X165657519Y-31976956D01*
X165443318Y-31888231D01*
X165215924Y-31843000D01*
X164984076Y-31843000D01*
X164756682Y-31888231D01*
X164542481Y-31976956D01*
X164349706Y-32105764D01*
X164185764Y-32269706D01*
X164056956Y-32462481D01*
X163968231Y-32676682D01*
X163923000Y-32904076D01*
X163737000Y-32904076D01*
X163691769Y-32676682D01*
X163603044Y-32462481D01*
X163474236Y-32269706D01*
X163310294Y-32105764D01*
X163117519Y-31976956D01*
X162903318Y-31888231D01*
X162675924Y-31843000D01*
X162444076Y-31843000D01*
X162216682Y-31888231D01*
X162002481Y-31976956D01*
X161809706Y-32105764D01*
X161645764Y-32269706D01*
X161516956Y-32462481D01*
X161428231Y-32676682D01*
X161383000Y-32904076D01*
X161197000Y-32904076D01*
X161151769Y-32676682D01*
X161063044Y-32462481D01*
X160934236Y-32269706D01*
X160770294Y-32105764D01*
X160577519Y-31976956D01*
X160363318Y-31888231D01*
X160135924Y-31843000D01*
X159904076Y-31843000D01*
X159676682Y-31888231D01*
X159462481Y-31976956D01*
X159269706Y-32105764D01*
X159105764Y-32269706D01*
X158976956Y-32462481D01*
X158888231Y-32676682D01*
X158843000Y-32904076D01*
X158657000Y-32904076D01*
X158611769Y-32676682D01*
X158523044Y-32462481D01*
X158394236Y-32269706D01*
X158230294Y-32105764D01*
X158037519Y-31976956D01*
X157823318Y-31888231D01*
X157595924Y-31843000D01*
X157364076Y-31843000D01*
X157136682Y-31888231D01*
X156922481Y-31976956D01*
X156729706Y-32105764D01*
X156565764Y-32269706D01*
X156436956Y-32462481D01*
X156348231Y-32676682D01*
X156303000Y-32904076D01*
X156117000Y-32904076D01*
X156071769Y-32676682D01*
X155983044Y-32462481D01*
X155854236Y-32269706D01*
X155690294Y-32105764D01*
X155497519Y-31976956D01*
X155283318Y-31888231D01*
X155055924Y-31843000D01*
X154824076Y-31843000D01*
X154596682Y-31888231D01*
X154382481Y-31976956D01*
X154189706Y-32105764D01*
X154025764Y-32269706D01*
X153896956Y-32462481D01*
X153808231Y-32676682D01*
X153763000Y-32904076D01*
X153577000Y-32904076D01*
X153531769Y-32676682D01*
X153443044Y-32462481D01*
X153314236Y-32269706D01*
X153150294Y-32105764D01*
X152957519Y-31976956D01*
X152743318Y-31888231D01*
X152515924Y-31843000D01*
X152284076Y-31843000D01*
X152056682Y-31888231D01*
X151842481Y-31976956D01*
X151649706Y-32105764D01*
X151485764Y-32269706D01*
X151356956Y-32462481D01*
X151268231Y-32676682D01*
X151223000Y-32904076D01*
X151037000Y-32904076D01*
X150991769Y-32676682D01*
X150903044Y-32462481D01*
X150774236Y-32269706D01*
X150610294Y-32105764D01*
X150417519Y-31976956D01*
X150203318Y-31888231D01*
X149975924Y-31843000D01*
X149744076Y-31843000D01*
X149516682Y-31888231D01*
X149302481Y-31976956D01*
X149109706Y-32105764D01*
X148945764Y-32269706D01*
X148816956Y-32462481D01*
X148728231Y-32676682D01*
X148683000Y-32904076D01*
X148498582Y-32904076D01*
X148498582Y-32170000D01*
X148492268Y-32105897D01*
X148473570Y-32044257D01*
X148443206Y-31987450D01*
X148402343Y-31937657D01*
X148352550Y-31896794D01*
X148295743Y-31866430D01*
X148234103Y-31847732D01*
X148170000Y-31841418D01*
X146470000Y-31841418D01*
X146405897Y-31847732D01*
X146344257Y-31866430D01*
X146287450Y-31896794D01*
X146237657Y-31937657D01*
X146196794Y-31987450D01*
X146166430Y-32044257D01*
X146147732Y-32105897D01*
X146141418Y-32170000D01*
X143418582Y-32170000D01*
X143412268Y-32105897D01*
X143393570Y-32044257D01*
X143363206Y-31987450D01*
X143322343Y-31937657D01*
X143272550Y-31896794D01*
X143215743Y-31866430D01*
X143154103Y-31847732D01*
X143090000Y-31841418D01*
X141390000Y-31841418D01*
X141325897Y-31847732D01*
X141264257Y-31866430D01*
X141207450Y-31896794D01*
X141157657Y-31937657D01*
X141116794Y-31987450D01*
X141086430Y-32044257D01*
X141067732Y-32105897D01*
X141061418Y-32170000D01*
X140227619Y-32170000D01*
X140418974Y-31810112D01*
X140688657Y-31479450D01*
X141017431Y-31207465D01*
X141392769Y-31004520D01*
X141800381Y-30878343D01*
X142241308Y-30832000D01*
X170797785Y-30832000D01*
X171239654Y-30875326D01*
%TA.AperFunction,Conductor*%
D16*
G36*
X171239654Y-30875326D02*
G01*
X171648140Y-30998655D01*
X172024888Y-31198974D01*
X172355550Y-31468657D01*
X172627535Y-31797431D01*
X172830480Y-32172769D01*
X172956657Y-32580381D01*
X173003001Y-33021318D01*
X173003001Y-33298777D01*
X172729500Y-33025276D01*
X172729500Y-32956522D01*
X172704732Y-32832006D01*
X172656148Y-32714715D01*
X172585615Y-32609155D01*
X172495845Y-32519385D01*
X172390285Y-32448852D01*
X172272994Y-32400268D01*
X172148478Y-32375500D01*
X172021522Y-32375500D01*
X171897006Y-32400268D01*
X171779715Y-32448852D01*
X171674155Y-32519385D01*
X171584385Y-32609155D01*
X171513852Y-32714715D01*
X171465268Y-32832006D01*
X171440500Y-32956522D01*
X171440500Y-33083478D01*
X171465268Y-33207994D01*
X171513852Y-33325285D01*
X171584385Y-33430845D01*
X171674155Y-33520615D01*
X171779715Y-33591148D01*
X171897006Y-33639732D01*
X172021522Y-33664500D01*
X172090276Y-33664500D01*
X172268000Y-33842224D01*
X172268000Y-35738776D01*
X171785323Y-35256100D01*
X171771159Y-35238841D01*
X171702333Y-35182357D01*
X171623810Y-35140386D01*
X171538607Y-35114540D01*
X171472205Y-35108000D01*
X171450000Y-35105813D01*
X171427795Y-35108000D01*
X167625719Y-35108000D01*
X167649494Y-34988478D01*
X167649494Y-34861522D01*
X167624726Y-34737006D01*
X167576142Y-34619715D01*
X167505609Y-34514155D01*
X167415839Y-34424385D01*
X167310279Y-34353852D01*
X167192988Y-34305268D01*
X167068472Y-34280500D01*
X166941516Y-34280500D01*
X166817000Y-34305268D01*
X166699709Y-34353852D01*
X166594149Y-34424385D01*
X166545534Y-34473000D01*
X160111700Y-34473000D01*
X160089497Y-34470813D01*
X160067294Y-34473000D01*
X160067293Y-34473000D01*
X160000891Y-34479540D01*
X159915688Y-34505386D01*
X159837165Y-34547357D01*
X159768339Y-34603841D01*
X159754184Y-34621089D01*
X157176096Y-37199179D01*
X157158842Y-37213339D01*
X157107861Y-37275460D01*
X157102358Y-37282165D01*
X157060386Y-37360689D01*
X157034540Y-37445891D01*
X157025813Y-37534498D01*
X157028001Y-37556713D01*
X157028000Y-42720540D01*
X156979385Y-42769155D01*
X156946334Y-42818619D01*
X156946334Y-38585119D01*
X156948521Y-38562914D01*
X156939794Y-38474306D01*
X156913948Y-38389104D01*
X156900476Y-38363900D01*
X156871977Y-38310581D01*
X156815493Y-38241755D01*
X156798239Y-38227595D01*
X155756313Y-37185670D01*
X155742149Y-37168411D01*
X155673323Y-37111927D01*
X155594800Y-37069956D01*
X155509597Y-37044110D01*
X155443195Y-37037570D01*
X155420990Y-37035383D01*
X155398785Y-37037570D01*
X154546568Y-37037570D01*
X154524363Y-37035383D01*
X154435755Y-37044110D01*
X154393408Y-37056956D01*
X154350553Y-37069956D01*
X154272030Y-37111927D01*
X154203204Y-37168411D01*
X154189044Y-37185665D01*
X153193655Y-38181055D01*
X151782360Y-38181055D01*
X150127404Y-36526100D01*
X150113240Y-36508841D01*
X150044414Y-36452357D01*
X149965891Y-36410386D01*
X149880688Y-36384540D01*
X149814286Y-36378000D01*
X149792081Y-36375813D01*
X149769876Y-36378000D01*
X149676751Y-36378000D01*
X149633044Y-36272481D01*
X149504236Y-36079706D01*
X149340294Y-35915764D01*
X149147519Y-35786956D01*
X148933318Y-35698231D01*
X148705924Y-35653000D01*
X148474076Y-35653000D01*
X148246682Y-35698231D01*
X148032481Y-35786956D01*
X147839706Y-35915764D01*
X147675764Y-36079706D01*
X147546956Y-36272481D01*
X147458231Y-36486682D01*
X147413000Y-36714076D01*
X147413000Y-36945924D01*
X147458231Y-37173318D01*
X147546956Y-37387519D01*
X147675764Y-37580294D01*
X147743470Y-37648000D01*
X147228582Y-37648000D01*
X147228582Y-35980000D01*
X147222268Y-35915897D01*
X147203570Y-35854257D01*
X147173206Y-35797450D01*
X147132343Y-35747657D01*
X147082550Y-35706794D01*
X147025743Y-35676430D01*
X146964103Y-35657732D01*
X146900000Y-35651418D01*
X145200000Y-35651418D01*
X145135897Y-35657732D01*
X145074257Y-35676430D01*
X145017450Y-35706794D01*
X144967657Y-35747657D01*
X144926794Y-35797450D01*
X144896430Y-35854257D01*
X144877732Y-35915897D01*
X144871418Y-35980000D01*
X144871418Y-37680000D01*
X144877732Y-37744103D01*
X144896430Y-37805743D01*
X144926794Y-37862550D01*
X144967657Y-37912343D01*
X145017450Y-37953206D01*
X145053274Y-37972354D01*
X144597000Y-38428629D01*
X144597000Y-35747223D01*
X144967224Y-35377000D01*
X149520381Y-35377000D01*
X151145671Y-37002292D01*
X151145671Y-37071045D01*
X151170439Y-37195561D01*
X151219023Y-37312852D01*
X151289556Y-37418412D01*
X151379326Y-37508182D01*
X151484886Y-37578715D01*
X151602177Y-37627299D01*
X151726693Y-37652067D01*
X151853649Y-37652067D01*
X151978165Y-37627299D01*
X152095456Y-37578715D01*
X152201016Y-37508182D01*
X152290786Y-37418412D01*
X152361319Y-37312852D01*
X152409903Y-37195561D01*
X152434671Y-37071045D01*
X152434671Y-36944089D01*
X152409903Y-36819573D01*
X152361319Y-36702282D01*
X152290786Y-36596722D01*
X152201016Y-36506952D01*
X152095456Y-36436419D01*
X151978165Y-36387835D01*
X151853649Y-36363067D01*
X151784896Y-36363067D01*
X150042927Y-34621100D01*
X150028763Y-34603841D01*
X149959937Y-34547357D01*
X149881414Y-34505386D01*
X149796211Y-34479540D01*
X149729809Y-34473000D01*
X149707604Y-34470813D01*
X149685399Y-34473000D01*
X144802205Y-34473000D01*
X144780000Y-34470813D01*
X144691392Y-34479540D01*
X144606190Y-34505386D01*
X144527667Y-34547357D01*
X144458841Y-34603841D01*
X144444681Y-34621095D01*
X143841096Y-35224681D01*
X143823842Y-35238841D01*
X143771481Y-35302643D01*
X143767358Y-35307667D01*
X143725386Y-35386191D01*
X143699540Y-35471393D01*
X143690813Y-35560000D01*
X143693001Y-35582215D01*
X143693000Y-38910540D01*
X143644385Y-38959155D01*
X143585224Y-39047695D01*
X143247798Y-38710269D01*
X143283044Y-38657519D01*
X143371769Y-38443318D01*
X143417000Y-38215924D01*
X143417000Y-37984076D01*
X143371769Y-37756682D01*
X143283044Y-37542481D01*
X143154236Y-37349706D01*
X142990294Y-37185764D01*
X142797519Y-37056956D01*
X142583318Y-36968231D01*
X142355924Y-36923000D01*
X142124076Y-36923000D01*
X141896682Y-36968231D01*
X141682481Y-37056956D01*
X141489706Y-37185764D01*
X141325764Y-37349706D01*
X141196956Y-37542481D01*
X141108231Y-37756682D01*
X141063000Y-37984076D01*
X141063000Y-38215924D01*
X141108231Y-38443318D01*
X141196956Y-38657519D01*
X141325764Y-38850294D01*
X141489706Y-39014236D01*
X141682481Y-39143044D01*
X141896682Y-39231769D01*
X142124076Y-39277000D01*
X142355924Y-39277000D01*
X142506192Y-39247110D01*
X142973874Y-39714792D01*
X142797519Y-39596956D01*
X142583318Y-39508231D01*
X142355924Y-39463000D01*
X142124076Y-39463000D01*
X141896682Y-39508231D01*
X141682481Y-39596956D01*
X141489706Y-39725764D01*
X141325764Y-39889706D01*
X141196956Y-40082481D01*
X141108231Y-40296682D01*
X141063000Y-40524076D01*
X141063000Y-40755924D01*
X141108231Y-40983318D01*
X141196956Y-41197519D01*
X141325764Y-41390294D01*
X141489706Y-41554236D01*
X141682481Y-41683044D01*
X141896682Y-41771769D01*
X142124076Y-41817000D01*
X142236372Y-41817000D01*
X142230500Y-41846522D01*
X142230500Y-41973478D01*
X142236372Y-42003000D01*
X142124076Y-42003000D01*
X141896682Y-42048231D01*
X141682481Y-42136956D01*
X141489706Y-42265764D01*
X141325764Y-42429706D01*
X141196956Y-42622481D01*
X141108231Y-42836682D01*
X141063000Y-43064076D01*
X141063000Y-43295924D01*
X141108231Y-43523318D01*
X141196956Y-43737519D01*
X141325764Y-43930294D01*
X141489706Y-44094236D01*
X141682481Y-44223044D01*
X141896682Y-44311769D01*
X142124076Y-44357000D01*
X142133873Y-44357000D01*
X142128001Y-44386522D01*
X142128001Y-44513478D01*
X142133873Y-44543000D01*
X142124076Y-44543000D01*
X141896682Y-44588231D01*
X141682481Y-44676956D01*
X141489706Y-44805764D01*
X141325764Y-44969706D01*
X141196956Y-45162481D01*
X141108231Y-45376682D01*
X141063000Y-45604076D01*
X141063000Y-45835924D01*
X141108231Y-46063318D01*
X141196956Y-46277519D01*
X141325764Y-46470294D01*
X141489706Y-46634236D01*
X141682481Y-46763044D01*
X141896682Y-46851769D01*
X142124076Y-46897000D01*
X142355924Y-46897000D01*
X142583318Y-46851769D01*
X142797519Y-46763044D01*
X142990294Y-46634236D01*
X143058001Y-46566529D01*
X143058001Y-47413471D01*
X142990294Y-47345764D01*
X142797519Y-47216956D01*
X142583318Y-47128231D01*
X142355924Y-47083000D01*
X142124076Y-47083000D01*
X141896682Y-47128231D01*
X141682481Y-47216956D01*
X141489706Y-47345764D01*
X141325764Y-47509706D01*
X141196956Y-47702481D01*
X141108231Y-47916682D01*
X141063000Y-48144076D01*
X141063000Y-48162776D01*
X140666100Y-48559677D01*
X140648841Y-48573841D01*
X140592358Y-48642667D01*
X140550386Y-48721191D01*
X140524540Y-48806393D01*
X140515813Y-48895000D01*
X140518000Y-48917204D01*
X140518001Y-51172579D01*
X140515813Y-51194794D01*
X140524540Y-51283401D01*
X140550386Y-51368603D01*
X140580798Y-51425500D01*
X140592358Y-51447127D01*
X140648842Y-51515953D01*
X140666096Y-51530113D01*
X141509891Y-52373910D01*
X141524047Y-52391159D01*
X141531878Y-52397586D01*
X141489706Y-52425764D01*
X141325764Y-52589706D01*
X141196956Y-52782481D01*
X141108231Y-52996682D01*
X141063000Y-53224076D01*
X141063000Y-53455924D01*
X141108231Y-53683318D01*
X141196956Y-53897519D01*
X141325764Y-54090294D01*
X141489706Y-54254236D01*
X141682481Y-54383044D01*
X141896682Y-54471769D01*
X142124076Y-54517000D01*
X142355924Y-54517000D01*
X142583318Y-54471769D01*
X142797519Y-54383044D01*
X142990294Y-54254236D01*
X143100639Y-54143891D01*
X143100640Y-55076110D01*
X142990294Y-54965764D01*
X142797519Y-54836956D01*
X142583318Y-54748231D01*
X142355924Y-54703000D01*
X142124076Y-54703000D01*
X141896682Y-54748231D01*
X141682481Y-54836956D01*
X141489706Y-54965764D01*
X141325764Y-55129706D01*
X141196956Y-55322481D01*
X141108231Y-55536682D01*
X141063000Y-55764076D01*
X141063000Y-55995924D01*
X141108231Y-56223318D01*
X141196956Y-56437519D01*
X141325764Y-56630294D01*
X141489706Y-56794236D01*
X141682481Y-56923044D01*
X141896682Y-57011769D01*
X142124076Y-57057000D01*
X142355924Y-57057000D01*
X142583318Y-57011769D01*
X142797519Y-56923044D01*
X142990294Y-56794236D01*
X143154236Y-56630294D01*
X143244080Y-56495833D01*
X143248734Y-56499652D01*
X143525347Y-56776266D01*
X143539507Y-56793520D01*
X143608333Y-56850004D01*
X143668697Y-56882269D01*
X143686856Y-56891975D01*
X143772058Y-56917821D01*
X143860666Y-56926548D01*
X143882871Y-56924361D01*
X146705434Y-56924361D01*
X146727639Y-56926548D01*
X146749844Y-56924361D01*
X146816246Y-56917821D01*
X146901449Y-56891975D01*
X146979972Y-56850004D01*
X147048798Y-56793520D01*
X147062962Y-56776261D01*
X154608906Y-49230318D01*
X154626159Y-49216159D01*
X154682643Y-49147333D01*
X154724614Y-49068810D01*
X154750460Y-48983607D01*
X154757000Y-48917205D01*
X154757000Y-48917204D01*
X154759187Y-48895000D01*
X154757000Y-48872795D01*
X154757000Y-46687100D01*
X154805615Y-46638485D01*
X154876148Y-46532925D01*
X154924732Y-46415634D01*
X154949500Y-46291118D01*
X154949500Y-46164162D01*
X154924732Y-46039646D01*
X154876148Y-45922355D01*
X154805615Y-45816795D01*
X154715845Y-45727025D01*
X154610285Y-45656492D01*
X154492994Y-45607908D01*
X154368478Y-45583140D01*
X154241522Y-45583140D01*
X154117006Y-45607908D01*
X153999715Y-45656492D01*
X153894155Y-45727025D01*
X153804385Y-45816795D01*
X153733852Y-45922355D01*
X153685268Y-46039646D01*
X153660500Y-46164162D01*
X153660500Y-46291118D01*
X153685268Y-46415634D01*
X153733852Y-46532925D01*
X153804385Y-46638485D01*
X153853001Y-46687101D01*
X153853000Y-48707776D01*
X146540416Y-56020361D01*
X144774207Y-56020361D01*
X144789500Y-55943478D01*
X144789500Y-55816522D01*
X144764732Y-55692006D01*
X144716148Y-55574715D01*
X144645615Y-55469155D01*
X144597000Y-55420540D01*
X144597000Y-53527223D01*
X155440562Y-42683662D01*
X155457815Y-42669503D01*
X155514299Y-42600677D01*
X155556270Y-42522154D01*
X155568709Y-42481148D01*
X155582116Y-42436952D01*
X155590843Y-42348344D01*
X155588656Y-42326139D01*
X155588656Y-38541391D01*
X155637271Y-38492776D01*
X155696432Y-38404235D01*
X156042335Y-38750139D01*
X156042334Y-45603864D01*
X156022006Y-45607908D01*
X155904715Y-45656492D01*
X155799155Y-45727025D01*
X155709385Y-45816795D01*
X155638852Y-45922355D01*
X155590268Y-46039646D01*
X155565500Y-46164162D01*
X155565500Y-46232917D01*
X155271100Y-46527317D01*
X155253841Y-46541481D01*
X155197357Y-46610308D01*
X155161800Y-46676832D01*
X155155386Y-46688831D01*
X155129540Y-46774033D01*
X155120813Y-46862640D01*
X155123000Y-46884845D01*
X155123001Y-50612775D01*
X154945276Y-50790500D01*
X154876522Y-50790500D01*
X154752006Y-50815268D01*
X154634715Y-50863852D01*
X154529155Y-50934385D01*
X154439385Y-51024155D01*
X154368852Y-51129715D01*
X154320268Y-51247006D01*
X154295500Y-51371522D01*
X154295500Y-51498478D01*
X154320268Y-51622994D01*
X154368852Y-51740285D01*
X154439385Y-51845845D01*
X154529155Y-51935615D01*
X154634715Y-52006148D01*
X154752006Y-52054732D01*
X154876522Y-52079500D01*
X155003478Y-52079500D01*
X155127994Y-52054732D01*
X155245285Y-52006148D01*
X155350845Y-51935615D01*
X155440615Y-51845845D01*
X155511148Y-51740285D01*
X155559732Y-51622994D01*
X155584500Y-51498478D01*
X155584500Y-51429724D01*
X155878905Y-51135319D01*
X155896159Y-51121159D01*
X155952643Y-51052333D01*
X155994614Y-50973810D01*
X156004124Y-50942461D01*
X156020460Y-50888608D01*
X156029187Y-50800000D01*
X156027000Y-50777795D01*
X156027000Y-47049863D01*
X156204723Y-46872140D01*
X156273478Y-46872140D01*
X156397994Y-46847372D01*
X156515285Y-46798788D01*
X156620845Y-46728255D01*
X156710615Y-46638485D01*
X156769776Y-46549944D01*
X160838001Y-50618170D01*
X160838000Y-50975540D01*
X160789385Y-51024155D01*
X160718852Y-51129715D01*
X160670268Y-51247006D01*
X160645500Y-51371522D01*
X160645500Y-51498478D01*
X160670268Y-51622994D01*
X160718852Y-51740285D01*
X160789385Y-51845845D01*
X160879155Y-51935615D01*
X160984715Y-52006148D01*
X161102006Y-52054732D01*
X161226522Y-52079500D01*
X161353478Y-52079500D01*
X161477994Y-52054732D01*
X161595285Y-52006148D01*
X161700845Y-51935615D01*
X161790615Y-51845845D01*
X161861148Y-51740285D01*
X161909732Y-51622994D01*
X161934500Y-51498478D01*
X161934500Y-51371522D01*
X161909732Y-51247006D01*
X161861148Y-51129715D01*
X161790615Y-51024155D01*
X161742000Y-50975540D01*
X161742000Y-50453150D01*
X161744187Y-50430945D01*
X161735460Y-50342337D01*
X161709614Y-50257135D01*
X161667642Y-50178611D01*
X161641486Y-50146740D01*
X171814794Y-50146740D01*
X171836999Y-50148927D01*
X171859204Y-50146740D01*
X171925606Y-50140200D01*
X172010809Y-50114354D01*
X172089332Y-50072383D01*
X172158158Y-50015899D01*
X172172322Y-49998640D01*
X173003000Y-49167963D01*
X173003000Y-55862785D01*
X172959674Y-56304659D01*
X172836346Y-56713139D01*
X172636025Y-57089889D01*
X172366346Y-57420548D01*
X172037569Y-57692535D01*
X171662231Y-57895480D01*
X171254621Y-58021657D01*
X170813692Y-58068000D01*
X142257215Y-58068000D01*
X141815341Y-58024674D01*
X141406861Y-57901346D01*
X141030111Y-57701025D01*
X140699452Y-57431346D01*
X140427465Y-57102569D01*
X140224520Y-56727231D01*
X140098343Y-56319621D01*
X140052000Y-55878692D01*
X140052000Y-33037215D01*
X140095326Y-32595346D01*
X140218655Y-32186860D01*
X140227619Y-32170000D01*
X141061418Y-32170000D01*
X141061418Y-33870000D01*
X141067732Y-33934103D01*
X141086430Y-33995743D01*
X141116794Y-34052550D01*
X141157657Y-34102343D01*
X141207450Y-34143206D01*
X141264257Y-34173570D01*
X141325897Y-34192268D01*
X141390000Y-34198582D01*
X143090000Y-34198582D01*
X143154103Y-34192268D01*
X143215743Y-34173570D01*
X143272550Y-34143206D01*
X143322343Y-34102343D01*
X143363206Y-34052550D01*
X143393570Y-33995743D01*
X143412268Y-33934103D01*
X143418582Y-33870000D01*
X143418582Y-32170000D01*
X146141418Y-32170000D01*
X146141418Y-33870000D01*
X146147732Y-33934103D01*
X146166430Y-33995743D01*
X146196794Y-34052550D01*
X146237657Y-34102343D01*
X146287450Y-34143206D01*
X146344257Y-34173570D01*
X146405897Y-34192268D01*
X146470000Y-34198582D01*
X148170000Y-34198582D01*
X148234103Y-34192268D01*
X148295743Y-34173570D01*
X148352550Y-34143206D01*
X148402343Y-34102343D01*
X148443206Y-34052550D01*
X148473570Y-33995743D01*
X148492268Y-33934103D01*
X148498582Y-33870000D01*
X148498582Y-32904076D01*
X148683000Y-32904076D01*
X148683000Y-33135924D01*
X148728231Y-33363318D01*
X148816956Y-33577519D01*
X148945764Y-33770294D01*
X149109706Y-33934236D01*
X149302481Y-34063044D01*
X149516682Y-34151769D01*
X149744076Y-34197000D01*
X149975924Y-34197000D01*
X150203318Y-34151769D01*
X150417519Y-34063044D01*
X150610294Y-33934236D01*
X150774236Y-33770294D01*
X150903044Y-33577519D01*
X150991769Y-33363318D01*
X151037000Y-33135924D01*
X151037000Y-32904076D01*
X151223000Y-32904076D01*
X151223000Y-33135924D01*
X151268231Y-33363318D01*
X151356956Y-33577519D01*
X151485764Y-33770294D01*
X151649706Y-33934236D01*
X151842481Y-34063044D01*
X152056682Y-34151769D01*
X152284076Y-34197000D01*
X152515924Y-34197000D01*
X152743318Y-34151769D01*
X152957519Y-34063044D01*
X153150294Y-33934236D01*
X153314236Y-33770294D01*
X153443044Y-33577519D01*
X153531769Y-33363318D01*
X153577000Y-33135924D01*
X153577000Y-32904076D01*
X153763000Y-32904076D01*
X153763000Y-33135924D01*
X153808231Y-33363318D01*
X153896956Y-33577519D01*
X154025764Y-33770294D01*
X154189706Y-33934236D01*
X154382481Y-34063044D01*
X154596682Y-34151769D01*
X154824076Y-34197000D01*
X155055924Y-34197000D01*
X155283318Y-34151769D01*
X155497519Y-34063044D01*
X155690294Y-33934236D01*
X155854236Y-33770294D01*
X155983044Y-33577519D01*
X156071769Y-33363318D01*
X156117000Y-33135924D01*
X156117000Y-32904076D01*
X156303000Y-32904076D01*
X156303000Y-33135924D01*
X156348231Y-33363318D01*
X156436956Y-33577519D01*
X156565764Y-33770294D01*
X156729706Y-33934236D01*
X156922481Y-34063044D01*
X157136682Y-34151769D01*
X157364076Y-34197000D01*
X157595924Y-34197000D01*
X157823318Y-34151769D01*
X158037519Y-34063044D01*
X158230294Y-33934236D01*
X158394236Y-33770294D01*
X158523044Y-33577519D01*
X158611769Y-33363318D01*
X158657000Y-33135924D01*
X158657000Y-32904076D01*
X158843000Y-32904076D01*
X158843000Y-33135924D01*
X158888231Y-33363318D01*
X158976956Y-33577519D01*
X159105764Y-33770294D01*
X159269706Y-33934236D01*
X159462481Y-34063044D01*
X159676682Y-34151769D01*
X159904076Y-34197000D01*
X160135924Y-34197000D01*
X160363318Y-34151769D01*
X160577519Y-34063044D01*
X160770294Y-33934236D01*
X160934236Y-33770294D01*
X161063044Y-33577519D01*
X161151769Y-33363318D01*
X161197000Y-33135924D01*
X161197000Y-32904076D01*
X161383000Y-32904076D01*
X161383000Y-33135924D01*
X161428231Y-33363318D01*
X161516956Y-33577519D01*
X161645764Y-33770294D01*
X161809706Y-33934236D01*
X162002481Y-34063044D01*
X162216682Y-34151769D01*
X162444076Y-34197000D01*
X162675924Y-34197000D01*
X162903318Y-34151769D01*
X163117519Y-34063044D01*
X163310294Y-33934236D01*
X163474236Y-33770294D01*
X163603044Y-33577519D01*
X163691769Y-33363318D01*
X163737000Y-33135924D01*
X163737000Y-32904076D01*
X163923000Y-32904076D01*
X163923000Y-33135924D01*
X163968231Y-33363318D01*
X164056956Y-33577519D01*
X164185764Y-33770294D01*
X164349706Y-33934236D01*
X164542481Y-34063044D01*
X164756682Y-34151769D01*
X164984076Y-34197000D01*
X165215924Y-34197000D01*
X165443318Y-34151769D01*
X165657519Y-34063044D01*
X165850294Y-33934236D01*
X166014236Y-33770294D01*
X166143044Y-33577519D01*
X166231769Y-33363318D01*
X166277000Y-33135924D01*
X166277000Y-32904076D01*
X166463000Y-32904076D01*
X166463000Y-33135924D01*
X166508231Y-33363318D01*
X166596956Y-33577519D01*
X166725764Y-33770294D01*
X166889706Y-33934236D01*
X167082481Y-34063044D01*
X167296682Y-34151769D01*
X167524076Y-34197000D01*
X167755924Y-34197000D01*
X167983318Y-34151769D01*
X168197519Y-34063044D01*
X168390294Y-33934236D01*
X168554236Y-33770294D01*
X168683044Y-33577519D01*
X168771769Y-33363318D01*
X168817000Y-33135924D01*
X168817000Y-32904076D01*
X169003000Y-32904076D01*
X169003000Y-33135924D01*
X169048231Y-33363318D01*
X169136956Y-33577519D01*
X169265764Y-33770294D01*
X169429706Y-33934236D01*
X169622481Y-34063044D01*
X169836682Y-34151769D01*
X170064076Y-34197000D01*
X170295924Y-34197000D01*
X170523318Y-34151769D01*
X170737519Y-34063044D01*
X170930294Y-33934236D01*
X171094236Y-33770294D01*
X171223044Y-33577519D01*
X171311769Y-33363318D01*
X171357000Y-33135924D01*
X171357000Y-32904076D01*
X171311769Y-32676682D01*
X171223044Y-32462481D01*
X171094236Y-32269706D01*
X170930294Y-32105764D01*
X170737519Y-31976956D01*
X170523318Y-31888231D01*
X170295924Y-31843000D01*
X170064076Y-31843000D01*
X169836682Y-31888231D01*
X169622481Y-31976956D01*
X169429706Y-32105764D01*
X169265764Y-32269706D01*
X169136956Y-32462481D01*
X169048231Y-32676682D01*
X169003000Y-32904076D01*
X168817000Y-32904076D01*
X168771769Y-32676682D01*
X168683044Y-32462481D01*
X168554236Y-32269706D01*
X168390294Y-32105764D01*
X168197519Y-31976956D01*
X167983318Y-31888231D01*
X167755924Y-31843000D01*
X167524076Y-31843000D01*
X167296682Y-31888231D01*
X167082481Y-31976956D01*
X166889706Y-32105764D01*
X166725764Y-32269706D01*
X166596956Y-32462481D01*
X166508231Y-32676682D01*
X166463000Y-32904076D01*
X166277000Y-32904076D01*
X166231769Y-32676682D01*
X166143044Y-32462481D01*
X166014236Y-32269706D01*
X165850294Y-32105764D01*
X165657519Y-31976956D01*
X165443318Y-31888231D01*
X165215924Y-31843000D01*
X164984076Y-31843000D01*
X164756682Y-31888231D01*
X164542481Y-31976956D01*
X164349706Y-32105764D01*
X164185764Y-32269706D01*
X164056956Y-32462481D01*
X163968231Y-32676682D01*
X163923000Y-32904076D01*
X163737000Y-32904076D01*
X163691769Y-32676682D01*
X163603044Y-32462481D01*
X163474236Y-32269706D01*
X163310294Y-32105764D01*
X163117519Y-31976956D01*
X162903318Y-31888231D01*
X162675924Y-31843000D01*
X162444076Y-31843000D01*
X162216682Y-31888231D01*
X162002481Y-31976956D01*
X161809706Y-32105764D01*
X161645764Y-32269706D01*
X161516956Y-32462481D01*
X161428231Y-32676682D01*
X161383000Y-32904076D01*
X161197000Y-32904076D01*
X161151769Y-32676682D01*
X161063044Y-32462481D01*
X160934236Y-32269706D01*
X160770294Y-32105764D01*
X160577519Y-31976956D01*
X160363318Y-31888231D01*
X160135924Y-31843000D01*
X159904076Y-31843000D01*
X159676682Y-31888231D01*
X159462481Y-31976956D01*
X159269706Y-32105764D01*
X159105764Y-32269706D01*
X158976956Y-32462481D01*
X158888231Y-32676682D01*
X158843000Y-32904076D01*
X158657000Y-32904076D01*
X158611769Y-32676682D01*
X158523044Y-32462481D01*
X158394236Y-32269706D01*
X158230294Y-32105764D01*
X158037519Y-31976956D01*
X157823318Y-31888231D01*
X157595924Y-31843000D01*
X157364076Y-31843000D01*
X157136682Y-31888231D01*
X156922481Y-31976956D01*
X156729706Y-32105764D01*
X156565764Y-32269706D01*
X156436956Y-32462481D01*
X156348231Y-32676682D01*
X156303000Y-32904076D01*
X156117000Y-32904076D01*
X156071769Y-32676682D01*
X155983044Y-32462481D01*
X155854236Y-32269706D01*
X155690294Y-32105764D01*
X155497519Y-31976956D01*
X155283318Y-31888231D01*
X155055924Y-31843000D01*
X154824076Y-31843000D01*
X154596682Y-31888231D01*
X154382481Y-31976956D01*
X154189706Y-32105764D01*
X154025764Y-32269706D01*
X153896956Y-32462481D01*
X153808231Y-32676682D01*
X153763000Y-32904076D01*
X153577000Y-32904076D01*
X153531769Y-32676682D01*
X153443044Y-32462481D01*
X153314236Y-32269706D01*
X153150294Y-32105764D01*
X152957519Y-31976956D01*
X152743318Y-31888231D01*
X152515924Y-31843000D01*
X152284076Y-31843000D01*
X152056682Y-31888231D01*
X151842481Y-31976956D01*
X151649706Y-32105764D01*
X151485764Y-32269706D01*
X151356956Y-32462481D01*
X151268231Y-32676682D01*
X151223000Y-32904076D01*
X151037000Y-32904076D01*
X150991769Y-32676682D01*
X150903044Y-32462481D01*
X150774236Y-32269706D01*
X150610294Y-32105764D01*
X150417519Y-31976956D01*
X150203318Y-31888231D01*
X149975924Y-31843000D01*
X149744076Y-31843000D01*
X149516682Y-31888231D01*
X149302481Y-31976956D01*
X149109706Y-32105764D01*
X148945764Y-32269706D01*
X148816956Y-32462481D01*
X148728231Y-32676682D01*
X148683000Y-32904076D01*
X148498582Y-32904076D01*
X148498582Y-32170000D01*
X148492268Y-32105897D01*
X148473570Y-32044257D01*
X148443206Y-31987450D01*
X148402343Y-31937657D01*
X148352550Y-31896794D01*
X148295743Y-31866430D01*
X148234103Y-31847732D01*
X148170000Y-31841418D01*
X146470000Y-31841418D01*
X146405897Y-31847732D01*
X146344257Y-31866430D01*
X146287450Y-31896794D01*
X146237657Y-31937657D01*
X146196794Y-31987450D01*
X146166430Y-32044257D01*
X146147732Y-32105897D01*
X146141418Y-32170000D01*
X143418582Y-32170000D01*
X143412268Y-32105897D01*
X143393570Y-32044257D01*
X143363206Y-31987450D01*
X143322343Y-31937657D01*
X143272550Y-31896794D01*
X143215743Y-31866430D01*
X143154103Y-31847732D01*
X143090000Y-31841418D01*
X141390000Y-31841418D01*
X141325897Y-31847732D01*
X141264257Y-31866430D01*
X141207450Y-31896794D01*
X141157657Y-31937657D01*
X141116794Y-31987450D01*
X141086430Y-32044257D01*
X141067732Y-32105897D01*
X141061418Y-32170000D01*
X140227619Y-32170000D01*
X140418974Y-31810112D01*
X140688657Y-31479450D01*
X141017431Y-31207465D01*
X141392769Y-31004520D01*
X141800381Y-30878343D01*
X142241308Y-30832000D01*
X170797785Y-30832000D01*
X171239654Y-30875326D01*
G37*
%TD.AperFunction*%
D15*
X164455500Y-35496522D02*
X164455500Y-35623478D01*
X164480268Y-35747994D01*
X164528852Y-35865285D01*
X164599385Y-35970845D01*
X164689155Y-36060615D01*
X164794715Y-36131148D01*
X164912006Y-36179732D01*
X165036522Y-36204500D01*
X165163478Y-36204500D01*
X165287994Y-36179732D01*
X165405285Y-36131148D01*
X165510845Y-36060615D01*
X165559460Y-36012000D01*
X171262777Y-36012000D01*
X171633000Y-36382224D01*
X171633001Y-48072775D01*
X171262777Y-48443000D01*
X161605375Y-48443000D01*
X159395291Y-46232917D01*
X159395291Y-46164162D01*
X159370523Y-46039646D01*
X159321939Y-45922355D01*
X159251406Y-45816795D01*
X159161636Y-45727025D01*
X159056076Y-45656492D01*
X158938785Y-45607908D01*
X158814269Y-45583140D01*
X158687313Y-45583140D01*
X158562797Y-45607908D01*
X158445506Y-45656492D01*
X158377987Y-45701607D01*
X158377212Y-45700832D01*
X158271652Y-45630299D01*
X158154361Y-45581715D01*
X158029845Y-45556947D01*
X157902889Y-45556947D01*
X157778373Y-45581715D01*
X157661082Y-45630299D01*
X157555522Y-45700832D01*
X157465752Y-45790602D01*
X157395219Y-45896162D01*
X157394991Y-45896713D01*
X156946334Y-45448056D01*
X156946334Y-43541381D01*
X156979385Y-43590845D01*
X157069155Y-43680615D01*
X157174715Y-43751148D01*
X157292006Y-43799732D01*
X157416522Y-43824500D01*
X157543478Y-43824500D01*
X157667994Y-43799732D01*
X157785285Y-43751148D01*
X157890845Y-43680615D01*
X157980615Y-43590845D01*
X158051148Y-43485285D01*
X158099732Y-43367994D01*
X158124500Y-43243478D01*
X158124500Y-43116522D01*
X158099732Y-42992006D01*
X158051148Y-42874715D01*
X157980615Y-42769155D01*
X157932000Y-42720540D01*
X157932000Y-41838961D01*
X158051631Y-41958593D01*
X158051631Y-42027347D01*
X158076399Y-42151863D01*
X158124983Y-42269154D01*
X158195516Y-42374714D01*
X158285286Y-42464484D01*
X158390846Y-42535017D01*
X158508137Y-42583601D01*
X158632653Y-42608369D01*
X158759609Y-42608369D01*
X158884125Y-42583601D01*
X158933001Y-42563356D01*
X158933001Y-43770396D01*
X158930813Y-43792611D01*
X158939540Y-43881218D01*
X158965386Y-43966420D01*
X158977354Y-43988810D01*
X159007358Y-44044944D01*
X159063842Y-44113770D01*
X159081096Y-44127930D01*
X160009167Y-45056002D01*
X160009167Y-45124756D01*
X160033935Y-45249272D01*
X160082519Y-45366563D01*
X160153052Y-45472123D01*
X160242822Y-45561893D01*
X160348382Y-45632426D01*
X160465673Y-45681010D01*
X160590189Y-45705778D01*
X160717145Y-45705778D01*
X160841661Y-45681010D01*
X160958952Y-45632426D01*
X161064512Y-45561893D01*
X161154282Y-45472123D01*
X161224815Y-45366563D01*
X161273399Y-45249272D01*
X161298167Y-45124756D01*
X161298167Y-44997800D01*
X161273399Y-44873284D01*
X161224815Y-44755993D01*
X161154282Y-44650433D01*
X161064512Y-44560663D01*
X160958952Y-44490130D01*
X160841661Y-44441546D01*
X160717145Y-44416778D01*
X160648391Y-44416778D01*
X160575538Y-44343925D01*
X165293000Y-44343925D01*
X165293000Y-44556075D01*
X165334389Y-44764149D01*
X165415575Y-44960151D01*
X165533440Y-45136547D01*
X165683453Y-45286560D01*
X165859849Y-45404425D01*
X166055851Y-45485611D01*
X166263925Y-45527000D01*
X166476075Y-45527000D01*
X166684149Y-45485611D01*
X166880151Y-45404425D01*
X167056547Y-45286560D01*
X167206560Y-45136547D01*
X167324425Y-44960151D01*
X167405611Y-44764149D01*
X167447000Y-44556075D01*
X167447000Y-44343925D01*
X167405611Y-44135851D01*
X167324425Y-43939849D01*
X167206560Y-43763453D01*
X167056547Y-43613440D01*
X166880151Y-43495575D01*
X166684149Y-43414389D01*
X166476075Y-43373000D01*
X166263925Y-43373000D01*
X166055851Y-43414389D01*
X165859849Y-43495575D01*
X165683453Y-43613440D01*
X165533440Y-43763453D01*
X165415575Y-43939849D01*
X165334389Y-44135851D01*
X165293000Y-44343925D01*
X160575538Y-44343925D01*
X159837000Y-43605388D01*
X159837000Y-39463925D01*
X165293000Y-39463925D01*
X165293000Y-39676075D01*
X165334389Y-39884149D01*
X165415575Y-40080151D01*
X165533440Y-40256547D01*
X165683453Y-40406560D01*
X165859849Y-40524425D01*
X166055851Y-40605611D01*
X166263925Y-40647000D01*
X166476075Y-40647000D01*
X166684149Y-40605611D01*
X166880151Y-40524425D01*
X167056547Y-40406560D01*
X167206560Y-40256547D01*
X167324425Y-40080151D01*
X167405611Y-39884149D01*
X167447000Y-39676075D01*
X167447000Y-39463925D01*
X167405611Y-39255851D01*
X167324425Y-39059849D01*
X167206560Y-38883453D01*
X167056547Y-38733440D01*
X166880151Y-38615575D01*
X166684149Y-38534389D01*
X166476075Y-38493000D01*
X166263925Y-38493000D01*
X166055851Y-38534389D01*
X165859849Y-38615575D01*
X165683453Y-38733440D01*
X165533440Y-38883453D01*
X165415575Y-39059849D01*
X165334389Y-39255851D01*
X165293000Y-39463925D01*
X159837000Y-39463925D01*
X159837000Y-39072086D01*
X162704588Y-36204500D01*
X162773341Y-36204500D01*
X162897857Y-36179732D01*
X163015148Y-36131148D01*
X163120708Y-36060615D01*
X163210478Y-35970845D01*
X163281011Y-35865285D01*
X163329595Y-35747994D01*
X163354363Y-35623478D01*
X163354363Y-35496522D01*
X163330588Y-35377000D01*
X164479275Y-35377000D01*
X164455500Y-35496522D01*
%TA.AperFunction,Conductor*%
D16*
G36*
X164455500Y-35496522D02*
G01*
X164455500Y-35623478D01*
X164480268Y-35747994D01*
X164528852Y-35865285D01*
X164599385Y-35970845D01*
X164689155Y-36060615D01*
X164794715Y-36131148D01*
X164912006Y-36179732D01*
X165036522Y-36204500D01*
X165163478Y-36204500D01*
X165287994Y-36179732D01*
X165405285Y-36131148D01*
X165510845Y-36060615D01*
X165559460Y-36012000D01*
X171262777Y-36012000D01*
X171633000Y-36382224D01*
X171633001Y-48072775D01*
X171262777Y-48443000D01*
X161605375Y-48443000D01*
X159395291Y-46232917D01*
X159395291Y-46164162D01*
X159370523Y-46039646D01*
X159321939Y-45922355D01*
X159251406Y-45816795D01*
X159161636Y-45727025D01*
X159056076Y-45656492D01*
X158938785Y-45607908D01*
X158814269Y-45583140D01*
X158687313Y-45583140D01*
X158562797Y-45607908D01*
X158445506Y-45656492D01*
X158377987Y-45701607D01*
X158377212Y-45700832D01*
X158271652Y-45630299D01*
X158154361Y-45581715D01*
X158029845Y-45556947D01*
X157902889Y-45556947D01*
X157778373Y-45581715D01*
X157661082Y-45630299D01*
X157555522Y-45700832D01*
X157465752Y-45790602D01*
X157395219Y-45896162D01*
X157394991Y-45896713D01*
X156946334Y-45448056D01*
X156946334Y-43541381D01*
X156979385Y-43590845D01*
X157069155Y-43680615D01*
X157174715Y-43751148D01*
X157292006Y-43799732D01*
X157416522Y-43824500D01*
X157543478Y-43824500D01*
X157667994Y-43799732D01*
X157785285Y-43751148D01*
X157890845Y-43680615D01*
X157980615Y-43590845D01*
X158051148Y-43485285D01*
X158099732Y-43367994D01*
X158124500Y-43243478D01*
X158124500Y-43116522D01*
X158099732Y-42992006D01*
X158051148Y-42874715D01*
X157980615Y-42769155D01*
X157932000Y-42720540D01*
X157932000Y-41838961D01*
X158051631Y-41958593D01*
X158051631Y-42027347D01*
X158076399Y-42151863D01*
X158124983Y-42269154D01*
X158195516Y-42374714D01*
X158285286Y-42464484D01*
X158390846Y-42535017D01*
X158508137Y-42583601D01*
X158632653Y-42608369D01*
X158759609Y-42608369D01*
X158884125Y-42583601D01*
X158933001Y-42563356D01*
X158933001Y-43770396D01*
X158930813Y-43792611D01*
X158939540Y-43881218D01*
X158965386Y-43966420D01*
X158977354Y-43988810D01*
X159007358Y-44044944D01*
X159063842Y-44113770D01*
X159081096Y-44127930D01*
X160009167Y-45056002D01*
X160009167Y-45124756D01*
X160033935Y-45249272D01*
X160082519Y-45366563D01*
X160153052Y-45472123D01*
X160242822Y-45561893D01*
X160348382Y-45632426D01*
X160465673Y-45681010D01*
X160590189Y-45705778D01*
X160717145Y-45705778D01*
X160841661Y-45681010D01*
X160958952Y-45632426D01*
X161064512Y-45561893D01*
X161154282Y-45472123D01*
X161224815Y-45366563D01*
X161273399Y-45249272D01*
X161298167Y-45124756D01*
X161298167Y-44997800D01*
X161273399Y-44873284D01*
X161224815Y-44755993D01*
X161154282Y-44650433D01*
X161064512Y-44560663D01*
X160958952Y-44490130D01*
X160841661Y-44441546D01*
X160717145Y-44416778D01*
X160648391Y-44416778D01*
X160575538Y-44343925D01*
X165293000Y-44343925D01*
X165293000Y-44556075D01*
X165334389Y-44764149D01*
X165415575Y-44960151D01*
X165533440Y-45136547D01*
X165683453Y-45286560D01*
X165859849Y-45404425D01*
X166055851Y-45485611D01*
X166263925Y-45527000D01*
X166476075Y-45527000D01*
X166684149Y-45485611D01*
X166880151Y-45404425D01*
X167056547Y-45286560D01*
X167206560Y-45136547D01*
X167324425Y-44960151D01*
X167405611Y-44764149D01*
X167447000Y-44556075D01*
X167447000Y-44343925D01*
X167405611Y-44135851D01*
X167324425Y-43939849D01*
X167206560Y-43763453D01*
X167056547Y-43613440D01*
X166880151Y-43495575D01*
X166684149Y-43414389D01*
X166476075Y-43373000D01*
X166263925Y-43373000D01*
X166055851Y-43414389D01*
X165859849Y-43495575D01*
X165683453Y-43613440D01*
X165533440Y-43763453D01*
X165415575Y-43939849D01*
X165334389Y-44135851D01*
X165293000Y-44343925D01*
X160575538Y-44343925D01*
X159837000Y-43605388D01*
X159837000Y-39463925D01*
X165293000Y-39463925D01*
X165293000Y-39676075D01*
X165334389Y-39884149D01*
X165415575Y-40080151D01*
X165533440Y-40256547D01*
X165683453Y-40406560D01*
X165859849Y-40524425D01*
X166055851Y-40605611D01*
X166263925Y-40647000D01*
X166476075Y-40647000D01*
X166684149Y-40605611D01*
X166880151Y-40524425D01*
X167056547Y-40406560D01*
X167206560Y-40256547D01*
X167324425Y-40080151D01*
X167405611Y-39884149D01*
X167447000Y-39676075D01*
X167447000Y-39463925D01*
X167405611Y-39255851D01*
X167324425Y-39059849D01*
X167206560Y-38883453D01*
X167056547Y-38733440D01*
X166880151Y-38615575D01*
X166684149Y-38534389D01*
X166476075Y-38493000D01*
X166263925Y-38493000D01*
X166055851Y-38534389D01*
X165859849Y-38615575D01*
X165683453Y-38733440D01*
X165533440Y-38883453D01*
X165415575Y-39059849D01*
X165334389Y-39255851D01*
X165293000Y-39463925D01*
X159837000Y-39463925D01*
X159837000Y-39072086D01*
X162704588Y-36204500D01*
X162773341Y-36204500D01*
X162897857Y-36179732D01*
X163015148Y-36131148D01*
X163120708Y-36060615D01*
X163210478Y-35970845D01*
X163281011Y-35865285D01*
X163329595Y-35747994D01*
X163354363Y-35623478D01*
X163354363Y-35496522D01*
X163330588Y-35377000D01*
X164479275Y-35377000D01*
X164455500Y-35496522D01*
G37*
%TD.AperFunction*%
D15*
X154684656Y-41388545D02*
X154610285Y-41338852D01*
X154492994Y-41290268D01*
X154368478Y-41265500D01*
X154241522Y-41265500D01*
X154117006Y-41290268D01*
X153999715Y-41338852D01*
X153894155Y-41409385D01*
X153804385Y-41499155D01*
X153733852Y-41604715D01*
X153685268Y-41722006D01*
X153660500Y-41846522D01*
X153660500Y-41973478D01*
X153685268Y-42097994D01*
X153733852Y-42215285D01*
X153804385Y-42320845D01*
X153847158Y-42363618D01*
X151577777Y-44633000D01*
X148575725Y-44633000D01*
X148599500Y-44513478D01*
X148599500Y-44386522D01*
X148575725Y-44267000D01*
X148652548Y-44267000D01*
X148653852Y-44270148D01*
X148724385Y-44375708D01*
X148814155Y-44465478D01*
X148919715Y-44536011D01*
X149037006Y-44584595D01*
X149161522Y-44609363D01*
X149288478Y-44609363D01*
X149412994Y-44584595D01*
X149530285Y-44536011D01*
X149635845Y-44465478D01*
X149725615Y-44375708D01*
X149796148Y-44270148D01*
X149844732Y-44152857D01*
X149869500Y-44028341D01*
X149869500Y-43901385D01*
X149844732Y-43776869D01*
X149796148Y-43659578D01*
X149737919Y-43572432D01*
X149796148Y-43485285D01*
X149844732Y-43367994D01*
X149869500Y-43243478D01*
X149869500Y-43116522D01*
X149844732Y-42992006D01*
X149796148Y-42874715D01*
X149725615Y-42769155D01*
X149635845Y-42679385D01*
X149530285Y-42608852D01*
X149412994Y-42560268D01*
X149288478Y-42535500D01*
X149161522Y-42535500D01*
X149037006Y-42560268D01*
X148919715Y-42608852D01*
X148814155Y-42679385D01*
X148765540Y-42728000D01*
X146896530Y-42728000D01*
X146964236Y-42660294D01*
X147093044Y-42467519D01*
X147181769Y-42253318D01*
X147227000Y-42025924D01*
X147227000Y-41794076D01*
X147181769Y-41566682D01*
X147093044Y-41352481D01*
X146964236Y-41159706D01*
X146896530Y-41092000D01*
X152350206Y-41092000D01*
X152372411Y-41094187D01*
X152394616Y-41092000D01*
X152461018Y-41085460D01*
X152546221Y-41059614D01*
X152624744Y-41017643D01*
X152693570Y-40961159D01*
X152707734Y-40943900D01*
X153381839Y-40269796D01*
X153450593Y-40269796D01*
X153575109Y-40245028D01*
X153692400Y-40196444D01*
X153797960Y-40125911D01*
X153887730Y-40036141D01*
X153958263Y-39930581D01*
X154006847Y-39813290D01*
X154031615Y-39688774D01*
X154031615Y-39561818D01*
X154016569Y-39486178D01*
X154029279Y-39484926D01*
X154095681Y-39478386D01*
X154180884Y-39452540D01*
X154259407Y-39410569D01*
X154297265Y-39379500D01*
X154368478Y-39379500D01*
X154492994Y-39354732D01*
X154610285Y-39306148D01*
X154684657Y-39256454D01*
X154684656Y-41388545D01*
%TA.AperFunction,Conductor*%
D16*
G36*
X154684656Y-41388545D02*
G01*
X154610285Y-41338852D01*
X154492994Y-41290268D01*
X154368478Y-41265500D01*
X154241522Y-41265500D01*
X154117006Y-41290268D01*
X153999715Y-41338852D01*
X153894155Y-41409385D01*
X153804385Y-41499155D01*
X153733852Y-41604715D01*
X153685268Y-41722006D01*
X153660500Y-41846522D01*
X153660500Y-41973478D01*
X153685268Y-42097994D01*
X153733852Y-42215285D01*
X153804385Y-42320845D01*
X153847158Y-42363618D01*
X151577777Y-44633000D01*
X148575725Y-44633000D01*
X148599500Y-44513478D01*
X148599500Y-44386522D01*
X148575725Y-44267000D01*
X148652548Y-44267000D01*
X148653852Y-44270148D01*
X148724385Y-44375708D01*
X148814155Y-44465478D01*
X148919715Y-44536011D01*
X149037006Y-44584595D01*
X149161522Y-44609363D01*
X149288478Y-44609363D01*
X149412994Y-44584595D01*
X149530285Y-44536011D01*
X149635845Y-44465478D01*
X149725615Y-44375708D01*
X149796148Y-44270148D01*
X149844732Y-44152857D01*
X149869500Y-44028341D01*
X149869500Y-43901385D01*
X149844732Y-43776869D01*
X149796148Y-43659578D01*
X149737919Y-43572432D01*
X149796148Y-43485285D01*
X149844732Y-43367994D01*
X149869500Y-43243478D01*
X149869500Y-43116522D01*
X149844732Y-42992006D01*
X149796148Y-42874715D01*
X149725615Y-42769155D01*
X149635845Y-42679385D01*
X149530285Y-42608852D01*
X149412994Y-42560268D01*
X149288478Y-42535500D01*
X149161522Y-42535500D01*
X149037006Y-42560268D01*
X148919715Y-42608852D01*
X148814155Y-42679385D01*
X148765540Y-42728000D01*
X146896530Y-42728000D01*
X146964236Y-42660294D01*
X147093044Y-42467519D01*
X147181769Y-42253318D01*
X147227000Y-42025924D01*
X147227000Y-41794076D01*
X147181769Y-41566682D01*
X147093044Y-41352481D01*
X146964236Y-41159706D01*
X146896530Y-41092000D01*
X152350206Y-41092000D01*
X152372411Y-41094187D01*
X152394616Y-41092000D01*
X152461018Y-41085460D01*
X152546221Y-41059614D01*
X152624744Y-41017643D01*
X152693570Y-40961159D01*
X152707734Y-40943900D01*
X153381839Y-40269796D01*
X153450593Y-40269796D01*
X153575109Y-40245028D01*
X153692400Y-40196444D01*
X153797960Y-40125911D01*
X153887730Y-40036141D01*
X153958263Y-39930581D01*
X154006847Y-39813290D01*
X154031615Y-39688774D01*
X154031615Y-39561818D01*
X154016569Y-39486178D01*
X154029279Y-39484926D01*
X154095681Y-39478386D01*
X154180884Y-39452540D01*
X154259407Y-39410569D01*
X154297265Y-39379500D01*
X154368478Y-39379500D01*
X154492994Y-39354732D01*
X154610285Y-39306148D01*
X154684657Y-39256454D01*
X154684656Y-41388545D01*
G37*
%TD.AperFunction*%
%TD*%
D15*
%TO.N,GND*%
X160530001Y-50745748D02*
X160530001Y-50857964D01*
X160445905Y-50983822D01*
X160374104Y-51157166D01*
X160337500Y-51341187D01*
X160337500Y-51528813D01*
X160374104Y-51712834D01*
X160445905Y-51886178D01*
X160550145Y-52042184D01*
X160682816Y-52174855D01*
X160838822Y-52279095D01*
X161012166Y-52350896D01*
X161196187Y-52387500D01*
X161383813Y-52387500D01*
X161567834Y-52350896D01*
X161741178Y-52279095D01*
X161897184Y-52174855D01*
X162029855Y-52042184D01*
X162134095Y-51886178D01*
X162205896Y-51712834D01*
X162242500Y-51528813D01*
X162242500Y-51341187D01*
X162205896Y-51157166D01*
X162134095Y-50983822D01*
X162050000Y-50857965D01*
X162050000Y-50468268D01*
X162051332Y-50454740D01*
X171799677Y-50454740D01*
X171836999Y-50458416D01*
X171874321Y-50454740D01*
X171874332Y-50454740D01*
X171985985Y-50443743D01*
X172129246Y-50400286D01*
X172261275Y-50329714D01*
X172377000Y-50234741D01*
X172400802Y-50205738D01*
X172695000Y-49911540D01*
X172695000Y-55847721D01*
X172656091Y-56244545D01*
X172550220Y-56595206D01*
X172378257Y-56918623D01*
X172146748Y-57202482D01*
X171864514Y-57435965D01*
X171542304Y-57610184D01*
X171192385Y-57718502D01*
X170797557Y-57760000D01*
X142272279Y-57760000D01*
X141875455Y-57721091D01*
X141524794Y-57615220D01*
X141201377Y-57443257D01*
X140917518Y-57211748D01*
X140684035Y-56929514D01*
X140509816Y-56607304D01*
X140401498Y-56257385D01*
X140360000Y-55862557D01*
X140360000Y-51649500D01*
X140430000Y-51734795D01*
X140458998Y-51758593D01*
X141090149Y-52389744D01*
X141086525Y-52393368D01*
X140924010Y-52636589D01*
X140812068Y-52906842D01*
X140755000Y-53193740D01*
X140755000Y-53486260D01*
X140812068Y-53773158D01*
X140924010Y-54043411D01*
X141086525Y-54286632D01*
X141293368Y-54493475D01*
X141467760Y-54610000D01*
X141293368Y-54726525D01*
X141086525Y-54933368D01*
X140924010Y-55176589D01*
X140812068Y-55446842D01*
X140755000Y-55733740D01*
X140755000Y-56026260D01*
X140812068Y-56313158D01*
X140924010Y-56583411D01*
X141086525Y-56826632D01*
X141293368Y-57033475D01*
X141536589Y-57195990D01*
X141806842Y-57307932D01*
X142093740Y-57365000D01*
X142386260Y-57365000D01*
X142673158Y-57307932D01*
X142943411Y-57195990D01*
X143186632Y-57033475D01*
X143266806Y-56953302D01*
X143296862Y-56983358D01*
X143320665Y-57012362D01*
X143436390Y-57107335D01*
X143568419Y-57177907D01*
X143711680Y-57221364D01*
X143823333Y-57232361D01*
X143823343Y-57232361D01*
X143860666Y-57236037D01*
X143897989Y-57232361D01*
X146690317Y-57232361D01*
X146727639Y-57236037D01*
X146764961Y-57232361D01*
X146764972Y-57232361D01*
X146876625Y-57221364D01*
X147019886Y-57177907D01*
X147151915Y-57107335D01*
X147267640Y-57012362D01*
X147291443Y-56983358D01*
X154815001Y-49459801D01*
X154815001Y-50485197D01*
X154810625Y-50489574D01*
X154662166Y-50519104D01*
X154488822Y-50590905D01*
X154332816Y-50695145D01*
X154200145Y-50827816D01*
X154095905Y-50983822D01*
X154024104Y-51157166D01*
X153987500Y-51341187D01*
X153987500Y-51528813D01*
X154024104Y-51712834D01*
X154095905Y-51886178D01*
X154200145Y-52042184D01*
X154332816Y-52174855D01*
X154488822Y-52279095D01*
X154662166Y-52350896D01*
X154846187Y-52387500D01*
X155033813Y-52387500D01*
X155217834Y-52350896D01*
X155391178Y-52279095D01*
X155547184Y-52174855D01*
X155679855Y-52042184D01*
X155784095Y-51886178D01*
X155855896Y-51712834D01*
X155885426Y-51564375D01*
X156086002Y-51363800D01*
X156115001Y-51340001D01*
X156209974Y-51224276D01*
X156280546Y-51092247D01*
X156324003Y-50948986D01*
X156335000Y-50837333D01*
X156338677Y-50800000D01*
X156335000Y-50762667D01*
X156335000Y-47177441D01*
X156339375Y-47173066D01*
X156487834Y-47143536D01*
X156661178Y-47071735D01*
X156777958Y-46993705D01*
X160530001Y-50745748D01*
%TA.AperFunction,Conductor*%
D16*
G36*
X160530001Y-50745748D02*
G01*
X160530001Y-50857964D01*
X160445905Y-50983822D01*
X160374104Y-51157166D01*
X160337500Y-51341187D01*
X160337500Y-51528813D01*
X160374104Y-51712834D01*
X160445905Y-51886178D01*
X160550145Y-52042184D01*
X160682816Y-52174855D01*
X160838822Y-52279095D01*
X161012166Y-52350896D01*
X161196187Y-52387500D01*
X161383813Y-52387500D01*
X161567834Y-52350896D01*
X161741178Y-52279095D01*
X161897184Y-52174855D01*
X162029855Y-52042184D01*
X162134095Y-51886178D01*
X162205896Y-51712834D01*
X162242500Y-51528813D01*
X162242500Y-51341187D01*
X162205896Y-51157166D01*
X162134095Y-50983822D01*
X162050000Y-50857965D01*
X162050000Y-50468268D01*
X162051332Y-50454740D01*
X171799677Y-50454740D01*
X171836999Y-50458416D01*
X171874321Y-50454740D01*
X171874332Y-50454740D01*
X171985985Y-50443743D01*
X172129246Y-50400286D01*
X172261275Y-50329714D01*
X172377000Y-50234741D01*
X172400802Y-50205738D01*
X172695000Y-49911540D01*
X172695000Y-55847721D01*
X172656091Y-56244545D01*
X172550220Y-56595206D01*
X172378257Y-56918623D01*
X172146748Y-57202482D01*
X171864514Y-57435965D01*
X171542304Y-57610184D01*
X171192385Y-57718502D01*
X170797557Y-57760000D01*
X142272279Y-57760000D01*
X141875455Y-57721091D01*
X141524794Y-57615220D01*
X141201377Y-57443257D01*
X140917518Y-57211748D01*
X140684035Y-56929514D01*
X140509816Y-56607304D01*
X140401498Y-56257385D01*
X140360000Y-55862557D01*
X140360000Y-51649500D01*
X140430000Y-51734795D01*
X140458998Y-51758593D01*
X141090149Y-52389744D01*
X141086525Y-52393368D01*
X140924010Y-52636589D01*
X140812068Y-52906842D01*
X140755000Y-53193740D01*
X140755000Y-53486260D01*
X140812068Y-53773158D01*
X140924010Y-54043411D01*
X141086525Y-54286632D01*
X141293368Y-54493475D01*
X141467760Y-54610000D01*
X141293368Y-54726525D01*
X141086525Y-54933368D01*
X140924010Y-55176589D01*
X140812068Y-55446842D01*
X140755000Y-55733740D01*
X140755000Y-56026260D01*
X140812068Y-56313158D01*
X140924010Y-56583411D01*
X141086525Y-56826632D01*
X141293368Y-57033475D01*
X141536589Y-57195990D01*
X141806842Y-57307932D01*
X142093740Y-57365000D01*
X142386260Y-57365000D01*
X142673158Y-57307932D01*
X142943411Y-57195990D01*
X143186632Y-57033475D01*
X143266806Y-56953302D01*
X143296862Y-56983358D01*
X143320665Y-57012362D01*
X143436390Y-57107335D01*
X143568419Y-57177907D01*
X143711680Y-57221364D01*
X143823333Y-57232361D01*
X143823343Y-57232361D01*
X143860666Y-57236037D01*
X143897989Y-57232361D01*
X146690317Y-57232361D01*
X146727639Y-57236037D01*
X146764961Y-57232361D01*
X146764972Y-57232361D01*
X146876625Y-57221364D01*
X147019886Y-57177907D01*
X147151915Y-57107335D01*
X147267640Y-57012362D01*
X147291443Y-56983358D01*
X154815001Y-49459801D01*
X154815001Y-50485197D01*
X154810625Y-50489574D01*
X154662166Y-50519104D01*
X154488822Y-50590905D01*
X154332816Y-50695145D01*
X154200145Y-50827816D01*
X154095905Y-50983822D01*
X154024104Y-51157166D01*
X153987500Y-51341187D01*
X153987500Y-51528813D01*
X154024104Y-51712834D01*
X154095905Y-51886178D01*
X154200145Y-52042184D01*
X154332816Y-52174855D01*
X154488822Y-52279095D01*
X154662166Y-52350896D01*
X154846187Y-52387500D01*
X155033813Y-52387500D01*
X155217834Y-52350896D01*
X155391178Y-52279095D01*
X155547184Y-52174855D01*
X155679855Y-52042184D01*
X155784095Y-51886178D01*
X155855896Y-51712834D01*
X155885426Y-51564375D01*
X156086002Y-51363800D01*
X156115001Y-51340001D01*
X156209974Y-51224276D01*
X156280546Y-51092247D01*
X156324003Y-50948986D01*
X156335000Y-50837333D01*
X156338677Y-50800000D01*
X156335000Y-50762667D01*
X156335000Y-47177441D01*
X156339375Y-47173066D01*
X156487834Y-47143536D01*
X156661178Y-47071735D01*
X156777958Y-46993705D01*
X160530001Y-50745748D01*
G37*
%TD.AperFunction*%
D15*
X155734334Y-45399907D02*
X155602816Y-45487785D01*
X155470145Y-45620456D01*
X155365905Y-45776462D01*
X155294104Y-45949806D01*
X155264574Y-46098265D01*
X155252773Y-46110065D01*
X155220896Y-45949806D01*
X155149095Y-45776462D01*
X155044855Y-45620456D01*
X154912184Y-45487785D01*
X154756178Y-45383545D01*
X154582834Y-45311744D01*
X154398813Y-45275140D01*
X154211187Y-45275140D01*
X154027166Y-45311744D01*
X153853822Y-45383545D01*
X153697816Y-45487785D01*
X153565145Y-45620456D01*
X153460905Y-45776462D01*
X153389104Y-45949806D01*
X153352500Y-46133827D01*
X153352500Y-46321453D01*
X153389104Y-46505474D01*
X153460905Y-46678818D01*
X153545001Y-46804676D01*
X153545000Y-48580198D01*
X146412838Y-55712361D01*
X145082815Y-55712361D01*
X145060896Y-55602166D01*
X144989095Y-55428822D01*
X144905000Y-55302965D01*
X144905000Y-53654801D01*
X155647660Y-42912142D01*
X155676657Y-42888345D01*
X155734334Y-42818065D01*
X155734334Y-45399907D01*
%TA.AperFunction,Conductor*%
D16*
G36*
X155734334Y-45399907D02*
G01*
X155602816Y-45487785D01*
X155470145Y-45620456D01*
X155365905Y-45776462D01*
X155294104Y-45949806D01*
X155264574Y-46098265D01*
X155252773Y-46110065D01*
X155220896Y-45949806D01*
X155149095Y-45776462D01*
X155044855Y-45620456D01*
X154912184Y-45487785D01*
X154756178Y-45383545D01*
X154582834Y-45311744D01*
X154398813Y-45275140D01*
X154211187Y-45275140D01*
X154027166Y-45311744D01*
X153853822Y-45383545D01*
X153697816Y-45487785D01*
X153565145Y-45620456D01*
X153460905Y-45776462D01*
X153389104Y-45949806D01*
X153352500Y-46133827D01*
X153352500Y-46321453D01*
X153389104Y-46505474D01*
X153460905Y-46678818D01*
X153545001Y-46804676D01*
X153545000Y-48580198D01*
X146412838Y-55712361D01*
X145082815Y-55712361D01*
X145060896Y-55602166D01*
X144989095Y-55428822D01*
X144905000Y-55302965D01*
X144905000Y-53654801D01*
X155647660Y-42912142D01*
X155676657Y-42888345D01*
X155734334Y-42818065D01*
X155734334Y-45399907D01*
G37*
%TD.AperFunction*%
D15*
X171179545Y-31178909D02*
X171530208Y-31284780D01*
X171853625Y-31456744D01*
X172137484Y-31688254D01*
X172370965Y-31970486D01*
X172466410Y-32147006D01*
X172362834Y-32104104D01*
X172178813Y-32067500D01*
X171991187Y-32067500D01*
X171807166Y-32104104D01*
X171633822Y-32175905D01*
X171477816Y-32280145D01*
X171474113Y-32283848D01*
X171333475Y-32073368D01*
X171126632Y-31866525D01*
X170883411Y-31704010D01*
X170613158Y-31592068D01*
X170326260Y-31535000D01*
X170033740Y-31535000D01*
X169746842Y-31592068D01*
X169476589Y-31704010D01*
X169233368Y-31866525D01*
X169026525Y-32073368D01*
X168910000Y-32247760D01*
X168793475Y-32073368D01*
X168586632Y-31866525D01*
X168343411Y-31704010D01*
X168073158Y-31592068D01*
X167786260Y-31535000D01*
X167493740Y-31535000D01*
X167206842Y-31592068D01*
X166936589Y-31704010D01*
X166693368Y-31866525D01*
X166486525Y-32073368D01*
X166370000Y-32247760D01*
X166253475Y-32073368D01*
X166046632Y-31866525D01*
X165803411Y-31704010D01*
X165533158Y-31592068D01*
X165246260Y-31535000D01*
X164953740Y-31535000D01*
X164666842Y-31592068D01*
X164396589Y-31704010D01*
X164153368Y-31866525D01*
X163946525Y-32073368D01*
X163830000Y-32247760D01*
X163713475Y-32073368D01*
X163506632Y-31866525D01*
X163263411Y-31704010D01*
X162993158Y-31592068D01*
X162706260Y-31535000D01*
X162413740Y-31535000D01*
X162126842Y-31592068D01*
X161856589Y-31704010D01*
X161613368Y-31866525D01*
X161406525Y-32073368D01*
X161290000Y-32247760D01*
X161173475Y-32073368D01*
X160966632Y-31866525D01*
X160723411Y-31704010D01*
X160453158Y-31592068D01*
X160166260Y-31535000D01*
X159873740Y-31535000D01*
X159586842Y-31592068D01*
X159316589Y-31704010D01*
X159073368Y-31866525D01*
X158866525Y-32073368D01*
X158750000Y-32247760D01*
X158633475Y-32073368D01*
X158426632Y-31866525D01*
X158183411Y-31704010D01*
X157913158Y-31592068D01*
X157626260Y-31535000D01*
X157333740Y-31535000D01*
X157046842Y-31592068D01*
X156776589Y-31704010D01*
X156533368Y-31866525D01*
X156326525Y-32073368D01*
X156210000Y-32247760D01*
X156093475Y-32073368D01*
X155886632Y-31866525D01*
X155643411Y-31704010D01*
X155373158Y-31592068D01*
X155086260Y-31535000D01*
X154793740Y-31535000D01*
X154506842Y-31592068D01*
X154236589Y-31704010D01*
X153993368Y-31866525D01*
X153786525Y-32073368D01*
X153670000Y-32247760D01*
X153553475Y-32073368D01*
X153346632Y-31866525D01*
X153103411Y-31704010D01*
X152833158Y-31592068D01*
X152546260Y-31535000D01*
X152253740Y-31535000D01*
X151966842Y-31592068D01*
X151696589Y-31704010D01*
X151453368Y-31866525D01*
X151246525Y-32073368D01*
X151130000Y-32247760D01*
X151013475Y-32073368D01*
X150806632Y-31866525D01*
X150563411Y-31704010D01*
X150293158Y-31592068D01*
X150006260Y-31535000D01*
X149713740Y-31535000D01*
X149426842Y-31592068D01*
X149156589Y-31704010D01*
X148913368Y-31866525D01*
X148781513Y-31998380D01*
X148759502Y-31925820D01*
X148700537Y-31815506D01*
X148621185Y-31718815D01*
X148524494Y-31639463D01*
X148414180Y-31580498D01*
X148294482Y-31544188D01*
X148170000Y-31531928D01*
X146470000Y-31531928D01*
X146345518Y-31544188D01*
X146225820Y-31580498D01*
X146115506Y-31639463D01*
X146018815Y-31718815D01*
X145939463Y-31815506D01*
X145880498Y-31925820D01*
X145844188Y-32045518D01*
X145831928Y-32170000D01*
X145831928Y-33870000D01*
X145844188Y-33994482D01*
X145880498Y-34114180D01*
X145907662Y-34165000D01*
X144817333Y-34165000D01*
X144780000Y-34161323D01*
X144742667Y-34165000D01*
X144631014Y-34175997D01*
X144487753Y-34219454D01*
X144355724Y-34290026D01*
X144239999Y-34384999D01*
X144216200Y-34413998D01*
X143633998Y-34996201D01*
X143605000Y-35019999D01*
X143581202Y-35048997D01*
X143581201Y-35048998D01*
X143510026Y-35135724D01*
X143439454Y-35267754D01*
X143416023Y-35345000D01*
X143395998Y-35411014D01*
X143392211Y-35449463D01*
X143381324Y-35560000D01*
X143385001Y-35597332D01*
X143385001Y-37144894D01*
X143186632Y-36946525D01*
X142943411Y-36784010D01*
X142673158Y-36672068D01*
X142386260Y-36615000D01*
X142093740Y-36615000D01*
X141806842Y-36672068D01*
X141536589Y-36784010D01*
X141293368Y-36946525D01*
X141086525Y-37153368D01*
X140924010Y-37396589D01*
X140812068Y-37666842D01*
X140755000Y-37953740D01*
X140755000Y-38246260D01*
X140812068Y-38533158D01*
X140924010Y-38803411D01*
X141086525Y-39046632D01*
X141293368Y-39253475D01*
X141467760Y-39370000D01*
X141293368Y-39486525D01*
X141086525Y-39693368D01*
X140924010Y-39936589D01*
X140812068Y-40206842D01*
X140755000Y-40493740D01*
X140755000Y-40786260D01*
X140812068Y-41073158D01*
X140924010Y-41343411D01*
X141086525Y-41586632D01*
X141293368Y-41793475D01*
X141467760Y-41910000D01*
X141293368Y-42026525D01*
X141086525Y-42233368D01*
X140924010Y-42476589D01*
X140812068Y-42746842D01*
X140755000Y-43033740D01*
X140755000Y-43326260D01*
X140812068Y-43613158D01*
X140924010Y-43883411D01*
X141086525Y-44126632D01*
X141293368Y-44333475D01*
X141467760Y-44450000D01*
X141293368Y-44566525D01*
X141086525Y-44773368D01*
X140924010Y-45016589D01*
X140812068Y-45286842D01*
X140755000Y-45573740D01*
X140755000Y-45866260D01*
X140812068Y-46153158D01*
X140924010Y-46423411D01*
X141086525Y-46666632D01*
X141293368Y-46873475D01*
X141467760Y-46990000D01*
X141293368Y-47106525D01*
X141086525Y-47313368D01*
X140924010Y-47556589D01*
X140812068Y-47826842D01*
X140774502Y-48015696D01*
X140459002Y-48331197D01*
X140429999Y-48354999D01*
X140374871Y-48422174D01*
X140360000Y-48440293D01*
X140360000Y-33052279D01*
X140398909Y-32655455D01*
X140504780Y-32304792D01*
X140576450Y-32170000D01*
X140751928Y-32170000D01*
X140751928Y-33870000D01*
X140764188Y-33994482D01*
X140800498Y-34114180D01*
X140859463Y-34224494D01*
X140938815Y-34321185D01*
X141035506Y-34400537D01*
X141145820Y-34459502D01*
X141265518Y-34495812D01*
X141390000Y-34508072D01*
X143090000Y-34508072D01*
X143214482Y-34495812D01*
X143334180Y-34459502D01*
X143444494Y-34400537D01*
X143541185Y-34321185D01*
X143620537Y-34224494D01*
X143679502Y-34114180D01*
X143715812Y-33994482D01*
X143728072Y-33870000D01*
X143728072Y-32170000D01*
X143715812Y-32045518D01*
X143679502Y-31925820D01*
X143620537Y-31815506D01*
X143541185Y-31718815D01*
X143444494Y-31639463D01*
X143334180Y-31580498D01*
X143214482Y-31544188D01*
X143090000Y-31531928D01*
X141390000Y-31531928D01*
X141265518Y-31544188D01*
X141145820Y-31580498D01*
X141035506Y-31639463D01*
X140938815Y-31718815D01*
X140859463Y-31815506D01*
X140800498Y-31925820D01*
X140764188Y-32045518D01*
X140751928Y-32170000D01*
X140576450Y-32170000D01*
X140676744Y-31981375D01*
X140908254Y-31697516D01*
X141190486Y-31464035D01*
X141512695Y-31289817D01*
X141862614Y-31181498D01*
X142257443Y-31140000D01*
X170782721Y-31140000D01*
X171179545Y-31178909D01*
%TA.AperFunction,Conductor*%
D16*
G36*
X171179545Y-31178909D02*
G01*
X171530208Y-31284780D01*
X171853625Y-31456744D01*
X172137484Y-31688254D01*
X172370965Y-31970486D01*
X172466410Y-32147006D01*
X172362834Y-32104104D01*
X172178813Y-32067500D01*
X171991187Y-32067500D01*
X171807166Y-32104104D01*
X171633822Y-32175905D01*
X171477816Y-32280145D01*
X171474113Y-32283848D01*
X171333475Y-32073368D01*
X171126632Y-31866525D01*
X170883411Y-31704010D01*
X170613158Y-31592068D01*
X170326260Y-31535000D01*
X170033740Y-31535000D01*
X169746842Y-31592068D01*
X169476589Y-31704010D01*
X169233368Y-31866525D01*
X169026525Y-32073368D01*
X168910000Y-32247760D01*
X168793475Y-32073368D01*
X168586632Y-31866525D01*
X168343411Y-31704010D01*
X168073158Y-31592068D01*
X167786260Y-31535000D01*
X167493740Y-31535000D01*
X167206842Y-31592068D01*
X166936589Y-31704010D01*
X166693368Y-31866525D01*
X166486525Y-32073368D01*
X166370000Y-32247760D01*
X166253475Y-32073368D01*
X166046632Y-31866525D01*
X165803411Y-31704010D01*
X165533158Y-31592068D01*
X165246260Y-31535000D01*
X164953740Y-31535000D01*
X164666842Y-31592068D01*
X164396589Y-31704010D01*
X164153368Y-31866525D01*
X163946525Y-32073368D01*
X163830000Y-32247760D01*
X163713475Y-32073368D01*
X163506632Y-31866525D01*
X163263411Y-31704010D01*
X162993158Y-31592068D01*
X162706260Y-31535000D01*
X162413740Y-31535000D01*
X162126842Y-31592068D01*
X161856589Y-31704010D01*
X161613368Y-31866525D01*
X161406525Y-32073368D01*
X161290000Y-32247760D01*
X161173475Y-32073368D01*
X160966632Y-31866525D01*
X160723411Y-31704010D01*
X160453158Y-31592068D01*
X160166260Y-31535000D01*
X159873740Y-31535000D01*
X159586842Y-31592068D01*
X159316589Y-31704010D01*
X159073368Y-31866525D01*
X158866525Y-32073368D01*
X158750000Y-32247760D01*
X158633475Y-32073368D01*
X158426632Y-31866525D01*
X158183411Y-31704010D01*
X157913158Y-31592068D01*
X157626260Y-31535000D01*
X157333740Y-31535000D01*
X157046842Y-31592068D01*
X156776589Y-31704010D01*
X156533368Y-31866525D01*
X156326525Y-32073368D01*
X156210000Y-32247760D01*
X156093475Y-32073368D01*
X155886632Y-31866525D01*
X155643411Y-31704010D01*
X155373158Y-31592068D01*
X155086260Y-31535000D01*
X154793740Y-31535000D01*
X154506842Y-31592068D01*
X154236589Y-31704010D01*
X153993368Y-31866525D01*
X153786525Y-32073368D01*
X153670000Y-32247760D01*
X153553475Y-32073368D01*
X153346632Y-31866525D01*
X153103411Y-31704010D01*
X152833158Y-31592068D01*
X152546260Y-31535000D01*
X152253740Y-31535000D01*
X151966842Y-31592068D01*
X151696589Y-31704010D01*
X151453368Y-31866525D01*
X151246525Y-32073368D01*
X151130000Y-32247760D01*
X151013475Y-32073368D01*
X150806632Y-31866525D01*
X150563411Y-31704010D01*
X150293158Y-31592068D01*
X150006260Y-31535000D01*
X149713740Y-31535000D01*
X149426842Y-31592068D01*
X149156589Y-31704010D01*
X148913368Y-31866525D01*
X148781513Y-31998380D01*
X148759502Y-31925820D01*
X148700537Y-31815506D01*
X148621185Y-31718815D01*
X148524494Y-31639463D01*
X148414180Y-31580498D01*
X148294482Y-31544188D01*
X148170000Y-31531928D01*
X146470000Y-31531928D01*
X146345518Y-31544188D01*
X146225820Y-31580498D01*
X146115506Y-31639463D01*
X146018815Y-31718815D01*
X145939463Y-31815506D01*
X145880498Y-31925820D01*
X145844188Y-32045518D01*
X145831928Y-32170000D01*
X145831928Y-33870000D01*
X145844188Y-33994482D01*
X145880498Y-34114180D01*
X145907662Y-34165000D01*
X144817333Y-34165000D01*
X144780000Y-34161323D01*
X144742667Y-34165000D01*
X144631014Y-34175997D01*
X144487753Y-34219454D01*
X144355724Y-34290026D01*
X144239999Y-34384999D01*
X144216200Y-34413998D01*
X143633998Y-34996201D01*
X143605000Y-35019999D01*
X143581202Y-35048997D01*
X143581201Y-35048998D01*
X143510026Y-35135724D01*
X143439454Y-35267754D01*
X143416023Y-35345000D01*
X143395998Y-35411014D01*
X143392211Y-35449463D01*
X143381324Y-35560000D01*
X143385001Y-35597332D01*
X143385001Y-37144894D01*
X143186632Y-36946525D01*
X142943411Y-36784010D01*
X142673158Y-36672068D01*
X142386260Y-36615000D01*
X142093740Y-36615000D01*
X141806842Y-36672068D01*
X141536589Y-36784010D01*
X141293368Y-36946525D01*
X141086525Y-37153368D01*
X140924010Y-37396589D01*
X140812068Y-37666842D01*
X140755000Y-37953740D01*
X140755000Y-38246260D01*
X140812068Y-38533158D01*
X140924010Y-38803411D01*
X141086525Y-39046632D01*
X141293368Y-39253475D01*
X141467760Y-39370000D01*
X141293368Y-39486525D01*
X141086525Y-39693368D01*
X140924010Y-39936589D01*
X140812068Y-40206842D01*
X140755000Y-40493740D01*
X140755000Y-40786260D01*
X140812068Y-41073158D01*
X140924010Y-41343411D01*
X141086525Y-41586632D01*
X141293368Y-41793475D01*
X141467760Y-41910000D01*
X141293368Y-42026525D01*
X141086525Y-42233368D01*
X140924010Y-42476589D01*
X140812068Y-42746842D01*
X140755000Y-43033740D01*
X140755000Y-43326260D01*
X140812068Y-43613158D01*
X140924010Y-43883411D01*
X141086525Y-44126632D01*
X141293368Y-44333475D01*
X141467760Y-44450000D01*
X141293368Y-44566525D01*
X141086525Y-44773368D01*
X140924010Y-45016589D01*
X140812068Y-45286842D01*
X140755000Y-45573740D01*
X140755000Y-45866260D01*
X140812068Y-46153158D01*
X140924010Y-46423411D01*
X141086525Y-46666632D01*
X141293368Y-46873475D01*
X141467760Y-46990000D01*
X141293368Y-47106525D01*
X141086525Y-47313368D01*
X140924010Y-47556589D01*
X140812068Y-47826842D01*
X140774502Y-48015696D01*
X140459002Y-48331197D01*
X140429999Y-48354999D01*
X140374871Y-48422174D01*
X140360000Y-48440293D01*
X140360000Y-33052279D01*
X140398909Y-32655455D01*
X140504780Y-32304792D01*
X140576450Y-32170000D01*
X140751928Y-32170000D01*
X140751928Y-33870000D01*
X140764188Y-33994482D01*
X140800498Y-34114180D01*
X140859463Y-34224494D01*
X140938815Y-34321185D01*
X141035506Y-34400537D01*
X141145820Y-34459502D01*
X141265518Y-34495812D01*
X141390000Y-34508072D01*
X143090000Y-34508072D01*
X143214482Y-34495812D01*
X143334180Y-34459502D01*
X143444494Y-34400537D01*
X143541185Y-34321185D01*
X143620537Y-34224494D01*
X143679502Y-34114180D01*
X143715812Y-33994482D01*
X143728072Y-33870000D01*
X143728072Y-32170000D01*
X143715812Y-32045518D01*
X143679502Y-31925820D01*
X143620537Y-31815506D01*
X143541185Y-31718815D01*
X143444494Y-31639463D01*
X143334180Y-31580498D01*
X143214482Y-31544188D01*
X143090000Y-31531928D01*
X141390000Y-31531928D01*
X141265518Y-31544188D01*
X141145820Y-31580498D01*
X141035506Y-31639463D01*
X140938815Y-31718815D01*
X140859463Y-31815506D01*
X140800498Y-31925820D01*
X140764188Y-32045518D01*
X140751928Y-32170000D01*
X140576450Y-32170000D01*
X140676744Y-31981375D01*
X140908254Y-31697516D01*
X141190486Y-31464035D01*
X141512695Y-31289817D01*
X141862614Y-31181498D01*
X142257443Y-31140000D01*
X170782721Y-31140000D01*
X171179545Y-31178909D01*
G37*
%TD.AperFunction*%
D15*
X164184104Y-35837834D02*
X164255905Y-36011178D01*
X164360145Y-36167184D01*
X164492816Y-36299855D01*
X164648822Y-36404095D01*
X164822166Y-36475896D01*
X165006187Y-36512500D01*
X165193813Y-36512500D01*
X165377834Y-36475896D01*
X165551178Y-36404095D01*
X165677035Y-36320000D01*
X171135199Y-36320000D01*
X171325000Y-36509802D01*
X171325001Y-47945197D01*
X171135199Y-48135000D01*
X161732953Y-48135000D01*
X159696217Y-46098265D01*
X159666687Y-45949806D01*
X159594886Y-45776462D01*
X159490646Y-45620456D01*
X159357975Y-45487785D01*
X159201969Y-45383545D01*
X159028625Y-45311744D01*
X158844604Y-45275140D01*
X158656978Y-45275140D01*
X158472957Y-45311744D01*
X158390197Y-45346024D01*
X158244201Y-45285551D01*
X158060180Y-45248947D01*
X157872554Y-45248947D01*
X157688533Y-45285551D01*
X157515189Y-45357352D01*
X157380922Y-45447066D01*
X157254334Y-45320478D01*
X157254334Y-44106273D01*
X157386187Y-44132500D01*
X157573813Y-44132500D01*
X157757834Y-44095896D01*
X157931178Y-44024095D01*
X158087184Y-43919855D01*
X158219855Y-43787184D01*
X158324095Y-43631178D01*
X158395896Y-43457834D01*
X158432500Y-43273813D01*
X158432500Y-43086187D01*
X158395896Y-42902166D01*
X158380056Y-42863925D01*
X158418297Y-42879765D01*
X158602318Y-42916369D01*
X158625001Y-42916369D01*
X158625001Y-43755279D01*
X158621324Y-43792611D01*
X158625001Y-43829944D01*
X158634758Y-43929002D01*
X158635998Y-43941596D01*
X158679454Y-44084857D01*
X158750026Y-44216887D01*
X158783036Y-44257109D01*
X158845000Y-44332612D01*
X158873998Y-44356410D01*
X159708241Y-45190653D01*
X159737771Y-45339112D01*
X159809572Y-45512456D01*
X159913812Y-45668462D01*
X160046483Y-45801133D01*
X160202489Y-45905373D01*
X160375833Y-45977174D01*
X160559854Y-46013778D01*
X160747480Y-46013778D01*
X160931501Y-45977174D01*
X161104845Y-45905373D01*
X161260851Y-45801133D01*
X161393522Y-45668462D01*
X161497762Y-45512456D01*
X161569563Y-45339112D01*
X161606167Y-45155091D01*
X161606167Y-44967465D01*
X161569563Y-44783444D01*
X161497762Y-44610100D01*
X161393522Y-44454094D01*
X161260851Y-44321423D01*
X161249127Y-44313589D01*
X164985000Y-44313589D01*
X164985000Y-44586411D01*
X165038225Y-44853989D01*
X165142629Y-45106043D01*
X165294201Y-45332886D01*
X165487114Y-45525799D01*
X165713957Y-45677371D01*
X165966011Y-45781775D01*
X166233589Y-45835000D01*
X166506411Y-45835000D01*
X166773989Y-45781775D01*
X167026043Y-45677371D01*
X167252886Y-45525799D01*
X167445799Y-45332886D01*
X167597371Y-45106043D01*
X167701775Y-44853989D01*
X167755000Y-44586411D01*
X167755000Y-44313589D01*
X167701775Y-44046011D01*
X167597371Y-43793957D01*
X167445799Y-43567114D01*
X167252886Y-43374201D01*
X167026043Y-43222629D01*
X166773989Y-43118225D01*
X166506411Y-43065000D01*
X166233589Y-43065000D01*
X165966011Y-43118225D01*
X165713957Y-43222629D01*
X165487114Y-43374201D01*
X165294201Y-43567114D01*
X165142629Y-43793957D01*
X165038225Y-44046011D01*
X164985000Y-44313589D01*
X161249127Y-44313589D01*
X161104845Y-44217183D01*
X160931501Y-44145382D01*
X160783042Y-44115852D01*
X160145000Y-43477810D01*
X160145000Y-39433589D01*
X164985000Y-39433589D01*
X164985000Y-39706411D01*
X165038225Y-39973989D01*
X165142629Y-40226043D01*
X165294201Y-40452886D01*
X165487114Y-40645799D01*
X165713957Y-40797371D01*
X165966011Y-40901775D01*
X166233589Y-40955000D01*
X166506411Y-40955000D01*
X166773989Y-40901775D01*
X167026043Y-40797371D01*
X167252886Y-40645799D01*
X167445799Y-40452886D01*
X167597371Y-40226043D01*
X167701775Y-39973989D01*
X167755000Y-39706411D01*
X167755000Y-39433589D01*
X167701775Y-39166011D01*
X167597371Y-38913957D01*
X167445799Y-38687114D01*
X167252886Y-38494201D01*
X167026043Y-38342629D01*
X166773989Y-38238225D01*
X166506411Y-38185000D01*
X166233589Y-38185000D01*
X165966011Y-38238225D01*
X165713957Y-38342629D01*
X165487114Y-38494201D01*
X165294201Y-38687114D01*
X165142629Y-38913957D01*
X165038225Y-39166011D01*
X164985000Y-39433589D01*
X160145000Y-39433589D01*
X160145000Y-39199664D01*
X162839239Y-36505426D01*
X162987697Y-36475896D01*
X163161041Y-36404095D01*
X163317047Y-36299855D01*
X163449718Y-36167184D01*
X163553958Y-36011178D01*
X163625759Y-35837834D01*
X163656160Y-35685000D01*
X164153703Y-35685000D01*
X164184104Y-35837834D01*
%TA.AperFunction,Conductor*%
D16*
G36*
X164184104Y-35837834D02*
G01*
X164255905Y-36011178D01*
X164360145Y-36167184D01*
X164492816Y-36299855D01*
X164648822Y-36404095D01*
X164822166Y-36475896D01*
X165006187Y-36512500D01*
X165193813Y-36512500D01*
X165377834Y-36475896D01*
X165551178Y-36404095D01*
X165677035Y-36320000D01*
X171135199Y-36320000D01*
X171325000Y-36509802D01*
X171325001Y-47945197D01*
X171135199Y-48135000D01*
X161732953Y-48135000D01*
X159696217Y-46098265D01*
X159666687Y-45949806D01*
X159594886Y-45776462D01*
X159490646Y-45620456D01*
X159357975Y-45487785D01*
X159201969Y-45383545D01*
X159028625Y-45311744D01*
X158844604Y-45275140D01*
X158656978Y-45275140D01*
X158472957Y-45311744D01*
X158390197Y-45346024D01*
X158244201Y-45285551D01*
X158060180Y-45248947D01*
X157872554Y-45248947D01*
X157688533Y-45285551D01*
X157515189Y-45357352D01*
X157380922Y-45447066D01*
X157254334Y-45320478D01*
X157254334Y-44106273D01*
X157386187Y-44132500D01*
X157573813Y-44132500D01*
X157757834Y-44095896D01*
X157931178Y-44024095D01*
X158087184Y-43919855D01*
X158219855Y-43787184D01*
X158324095Y-43631178D01*
X158395896Y-43457834D01*
X158432500Y-43273813D01*
X158432500Y-43086187D01*
X158395896Y-42902166D01*
X158380056Y-42863925D01*
X158418297Y-42879765D01*
X158602318Y-42916369D01*
X158625001Y-42916369D01*
X158625001Y-43755279D01*
X158621324Y-43792611D01*
X158625001Y-43829944D01*
X158634758Y-43929002D01*
X158635998Y-43941596D01*
X158679454Y-44084857D01*
X158750026Y-44216887D01*
X158783036Y-44257109D01*
X158845000Y-44332612D01*
X158873998Y-44356410D01*
X159708241Y-45190653D01*
X159737771Y-45339112D01*
X159809572Y-45512456D01*
X159913812Y-45668462D01*
X160046483Y-45801133D01*
X160202489Y-45905373D01*
X160375833Y-45977174D01*
X160559854Y-46013778D01*
X160747480Y-46013778D01*
X160931501Y-45977174D01*
X161104845Y-45905373D01*
X161260851Y-45801133D01*
X161393522Y-45668462D01*
X161497762Y-45512456D01*
X161569563Y-45339112D01*
X161606167Y-45155091D01*
X161606167Y-44967465D01*
X161569563Y-44783444D01*
X161497762Y-44610100D01*
X161393522Y-44454094D01*
X161260851Y-44321423D01*
X161249127Y-44313589D01*
X164985000Y-44313589D01*
X164985000Y-44586411D01*
X165038225Y-44853989D01*
X165142629Y-45106043D01*
X165294201Y-45332886D01*
X165487114Y-45525799D01*
X165713957Y-45677371D01*
X165966011Y-45781775D01*
X166233589Y-45835000D01*
X166506411Y-45835000D01*
X166773989Y-45781775D01*
X167026043Y-45677371D01*
X167252886Y-45525799D01*
X167445799Y-45332886D01*
X167597371Y-45106043D01*
X167701775Y-44853989D01*
X167755000Y-44586411D01*
X167755000Y-44313589D01*
X167701775Y-44046011D01*
X167597371Y-43793957D01*
X167445799Y-43567114D01*
X167252886Y-43374201D01*
X167026043Y-43222629D01*
X166773989Y-43118225D01*
X166506411Y-43065000D01*
X166233589Y-43065000D01*
X165966011Y-43118225D01*
X165713957Y-43222629D01*
X165487114Y-43374201D01*
X165294201Y-43567114D01*
X165142629Y-43793957D01*
X165038225Y-44046011D01*
X164985000Y-44313589D01*
X161249127Y-44313589D01*
X161104845Y-44217183D01*
X160931501Y-44145382D01*
X160783042Y-44115852D01*
X160145000Y-43477810D01*
X160145000Y-39433589D01*
X164985000Y-39433589D01*
X164985000Y-39706411D01*
X165038225Y-39973989D01*
X165142629Y-40226043D01*
X165294201Y-40452886D01*
X165487114Y-40645799D01*
X165713957Y-40797371D01*
X165966011Y-40901775D01*
X166233589Y-40955000D01*
X166506411Y-40955000D01*
X166773989Y-40901775D01*
X167026043Y-40797371D01*
X167252886Y-40645799D01*
X167445799Y-40452886D01*
X167597371Y-40226043D01*
X167701775Y-39973989D01*
X167755000Y-39706411D01*
X167755000Y-39433589D01*
X167701775Y-39166011D01*
X167597371Y-38913957D01*
X167445799Y-38687114D01*
X167252886Y-38494201D01*
X167026043Y-38342629D01*
X166773989Y-38238225D01*
X166506411Y-38185000D01*
X166233589Y-38185000D01*
X165966011Y-38238225D01*
X165713957Y-38342629D01*
X165487114Y-38494201D01*
X165294201Y-38687114D01*
X165142629Y-38913957D01*
X165038225Y-39166011D01*
X164985000Y-39433589D01*
X160145000Y-39433589D01*
X160145000Y-39199664D01*
X162839239Y-36505426D01*
X162987697Y-36475896D01*
X163161041Y-36404095D01*
X163317047Y-36299855D01*
X163449718Y-36167184D01*
X163553958Y-36011178D01*
X163625759Y-35837834D01*
X163656160Y-35685000D01*
X164153703Y-35685000D01*
X164184104Y-35837834D01*
G37*
%TD.AperFunction*%
D15*
X154376656Y-40957500D02*
X154211187Y-40957500D01*
X154027166Y-40994104D01*
X153853822Y-41065905D01*
X153697816Y-41170145D01*
X153565145Y-41302816D01*
X153460905Y-41458822D01*
X153389104Y-41632166D01*
X153352500Y-41816187D01*
X153352500Y-42003813D01*
X153389104Y-42187834D01*
X153447173Y-42328025D01*
X151450199Y-44325000D01*
X150106805Y-44325000D01*
X150140896Y-44242697D01*
X150177500Y-44058676D01*
X150177500Y-43871050D01*
X150140896Y-43687029D01*
X150093428Y-43572432D01*
X150140896Y-43457834D01*
X150177500Y-43273813D01*
X150177500Y-43086187D01*
X150140896Y-42902166D01*
X150069095Y-42728822D01*
X149964855Y-42572816D01*
X149832184Y-42440145D01*
X149676178Y-42335905D01*
X149502834Y-42264104D01*
X149318813Y-42227500D01*
X149131187Y-42227500D01*
X148947166Y-42264104D01*
X148773822Y-42335905D01*
X148647965Y-42420000D01*
X147446103Y-42420000D01*
X147477932Y-42343158D01*
X147535000Y-42056260D01*
X147535000Y-41763740D01*
X147477932Y-41476842D01*
X147446103Y-41400000D01*
X152335089Y-41400000D01*
X152372411Y-41403676D01*
X152409733Y-41400000D01*
X152409744Y-41400000D01*
X152521397Y-41389003D01*
X152664658Y-41345546D01*
X152796687Y-41274974D01*
X152912412Y-41180001D01*
X152936215Y-41150998D01*
X153516490Y-40570722D01*
X153664949Y-40541192D01*
X153838293Y-40469391D01*
X153994299Y-40365151D01*
X154126970Y-40232480D01*
X154231210Y-40076474D01*
X154303011Y-39903130D01*
X154339615Y-39719109D01*
X154339615Y-39716934D01*
X154376657Y-39697135D01*
X154376656Y-40957500D01*
%TA.AperFunction,Conductor*%
D16*
G36*
X154376656Y-40957500D02*
G01*
X154211187Y-40957500D01*
X154027166Y-40994104D01*
X153853822Y-41065905D01*
X153697816Y-41170145D01*
X153565145Y-41302816D01*
X153460905Y-41458822D01*
X153389104Y-41632166D01*
X153352500Y-41816187D01*
X153352500Y-42003813D01*
X153389104Y-42187834D01*
X153447173Y-42328025D01*
X151450199Y-44325000D01*
X150106805Y-44325000D01*
X150140896Y-44242697D01*
X150177500Y-44058676D01*
X150177500Y-43871050D01*
X150140896Y-43687029D01*
X150093428Y-43572432D01*
X150140896Y-43457834D01*
X150177500Y-43273813D01*
X150177500Y-43086187D01*
X150140896Y-42902166D01*
X150069095Y-42728822D01*
X149964855Y-42572816D01*
X149832184Y-42440145D01*
X149676178Y-42335905D01*
X149502834Y-42264104D01*
X149318813Y-42227500D01*
X149131187Y-42227500D01*
X148947166Y-42264104D01*
X148773822Y-42335905D01*
X148647965Y-42420000D01*
X147446103Y-42420000D01*
X147477932Y-42343158D01*
X147535000Y-42056260D01*
X147535000Y-41763740D01*
X147477932Y-41476842D01*
X147446103Y-41400000D01*
X152335089Y-41400000D01*
X152372411Y-41403676D01*
X152409733Y-41400000D01*
X152409744Y-41400000D01*
X152521397Y-41389003D01*
X152664658Y-41345546D01*
X152796687Y-41274974D01*
X152912412Y-41180001D01*
X152936215Y-41150998D01*
X153516490Y-40570722D01*
X153664949Y-40541192D01*
X153838293Y-40469391D01*
X153994299Y-40365151D01*
X154126970Y-40232480D01*
X154231210Y-40076474D01*
X154303011Y-39903130D01*
X154339615Y-39719109D01*
X154339615Y-39716934D01*
X154376657Y-39697135D01*
X154376656Y-40957500D01*
G37*
%TD.AperFunction*%
D15*
X158866525Y-33966632D02*
X159073368Y-34173475D01*
X159316589Y-34335990D01*
X159519611Y-34420084D01*
X156968998Y-36970699D01*
X156940000Y-36994497D01*
X156916202Y-37023495D01*
X156916201Y-37023496D01*
X156845026Y-37110222D01*
X156774454Y-37242252D01*
X156756994Y-37299813D01*
X156730998Y-37385512D01*
X156722209Y-37474747D01*
X156716324Y-37534498D01*
X156720001Y-37571830D01*
X156720001Y-37713779D01*
X155984794Y-36978572D01*
X155960991Y-36949569D01*
X155845266Y-36854596D01*
X155713237Y-36784024D01*
X155569976Y-36740567D01*
X155458323Y-36729570D01*
X155458312Y-36729570D01*
X155420990Y-36725894D01*
X155383668Y-36729570D01*
X154561685Y-36729570D01*
X154524363Y-36725894D01*
X154487040Y-36729570D01*
X154487030Y-36729570D01*
X154375377Y-36740567D01*
X154232162Y-36784010D01*
X154232116Y-36784024D01*
X154100086Y-36854596D01*
X154028003Y-36913754D01*
X153984362Y-36949569D01*
X153960564Y-36978567D01*
X153066077Y-37873055D01*
X152189701Y-37873055D01*
X152241349Y-37851662D01*
X152397355Y-37747422D01*
X152530026Y-37614751D01*
X152634266Y-37458745D01*
X152706067Y-37285401D01*
X152742671Y-37101380D01*
X152742671Y-36913754D01*
X152706067Y-36729733D01*
X152634266Y-36556389D01*
X152530026Y-36400383D01*
X152397355Y-36267712D01*
X152241349Y-36163472D01*
X152068005Y-36091671D01*
X151919548Y-36062141D01*
X150301770Y-34444365D01*
X150563411Y-34335990D01*
X150806632Y-34173475D01*
X151013475Y-33966632D01*
X151130000Y-33792240D01*
X151246525Y-33966632D01*
X151453368Y-34173475D01*
X151696589Y-34335990D01*
X151966842Y-34447932D01*
X152253740Y-34505000D01*
X152546260Y-34505000D01*
X152833158Y-34447932D01*
X153103411Y-34335990D01*
X153346632Y-34173475D01*
X153553475Y-33966632D01*
X153670000Y-33792240D01*
X153786525Y-33966632D01*
X153993368Y-34173475D01*
X154236589Y-34335990D01*
X154506842Y-34447932D01*
X154793740Y-34505000D01*
X155086260Y-34505000D01*
X155373158Y-34447932D01*
X155643411Y-34335990D01*
X155886632Y-34173475D01*
X156093475Y-33966632D01*
X156210000Y-33792240D01*
X156326525Y-33966632D01*
X156533368Y-34173475D01*
X156776589Y-34335990D01*
X157046842Y-34447932D01*
X157333740Y-34505000D01*
X157626260Y-34505000D01*
X157913158Y-34447932D01*
X158183411Y-34335990D01*
X158426632Y-34173475D01*
X158633475Y-33966632D01*
X158750000Y-33792240D01*
X158866525Y-33966632D01*
%TA.AperFunction,Conductor*%
D16*
G36*
X158866525Y-33966632D02*
G01*
X159073368Y-34173475D01*
X159316589Y-34335990D01*
X159519611Y-34420084D01*
X156968998Y-36970699D01*
X156940000Y-36994497D01*
X156916202Y-37023495D01*
X156916201Y-37023496D01*
X156845026Y-37110222D01*
X156774454Y-37242252D01*
X156756994Y-37299813D01*
X156730998Y-37385512D01*
X156722209Y-37474747D01*
X156716324Y-37534498D01*
X156720001Y-37571830D01*
X156720001Y-37713779D01*
X155984794Y-36978572D01*
X155960991Y-36949569D01*
X155845266Y-36854596D01*
X155713237Y-36784024D01*
X155569976Y-36740567D01*
X155458323Y-36729570D01*
X155458312Y-36729570D01*
X155420990Y-36725894D01*
X155383668Y-36729570D01*
X154561685Y-36729570D01*
X154524363Y-36725894D01*
X154487040Y-36729570D01*
X154487030Y-36729570D01*
X154375377Y-36740567D01*
X154232162Y-36784010D01*
X154232116Y-36784024D01*
X154100086Y-36854596D01*
X154028003Y-36913754D01*
X153984362Y-36949569D01*
X153960564Y-36978567D01*
X153066077Y-37873055D01*
X152189701Y-37873055D01*
X152241349Y-37851662D01*
X152397355Y-37747422D01*
X152530026Y-37614751D01*
X152634266Y-37458745D01*
X152706067Y-37285401D01*
X152742671Y-37101380D01*
X152742671Y-36913754D01*
X152706067Y-36729733D01*
X152634266Y-36556389D01*
X152530026Y-36400383D01*
X152397355Y-36267712D01*
X152241349Y-36163472D01*
X152068005Y-36091671D01*
X151919548Y-36062141D01*
X150301770Y-34444365D01*
X150563411Y-34335990D01*
X150806632Y-34173475D01*
X151013475Y-33966632D01*
X151130000Y-33792240D01*
X151246525Y-33966632D01*
X151453368Y-34173475D01*
X151696589Y-34335990D01*
X151966842Y-34447932D01*
X152253740Y-34505000D01*
X152546260Y-34505000D01*
X152833158Y-34447932D01*
X153103411Y-34335990D01*
X153346632Y-34173475D01*
X153553475Y-33966632D01*
X153670000Y-33792240D01*
X153786525Y-33966632D01*
X153993368Y-34173475D01*
X154236589Y-34335990D01*
X154506842Y-34447932D01*
X154793740Y-34505000D01*
X155086260Y-34505000D01*
X155373158Y-34447932D01*
X155643411Y-34335990D01*
X155886632Y-34173475D01*
X156093475Y-33966632D01*
X156210000Y-33792240D01*
X156326525Y-33966632D01*
X156533368Y-34173475D01*
X156776589Y-34335990D01*
X157046842Y-34447932D01*
X157333740Y-34505000D01*
X157626260Y-34505000D01*
X157913158Y-34447932D01*
X158183411Y-34335990D01*
X158426632Y-34173475D01*
X158633475Y-33966632D01*
X158750000Y-33792240D01*
X158866525Y-33966632D01*
G37*
%TD.AperFunction*%
D15*
X147511513Y-35808380D02*
X147489502Y-35735820D01*
X147462338Y-35685000D01*
X147634893Y-35685000D01*
X147511513Y-35808380D01*
%TA.AperFunction,Conductor*%
D16*
G36*
X147511513Y-35808380D02*
G01*
X147489502Y-35735820D01*
X147462338Y-35685000D01*
X147634893Y-35685000D01*
X147511513Y-35808380D01*
G37*
%TD.AperFunction*%
D15*
X171477816Y-33759855D02*
X171633822Y-33864095D01*
X171807166Y-33935896D01*
X171955625Y-33965426D01*
X171960000Y-33969802D01*
X171960000Y-34995378D01*
X171874276Y-34925026D01*
X171742247Y-34854454D01*
X171598986Y-34810997D01*
X171487333Y-34800000D01*
X171487322Y-34800000D01*
X171450000Y-34796324D01*
X171412678Y-34800000D01*
X167951291Y-34800000D01*
X167920890Y-34647166D01*
X167856238Y-34491080D01*
X168073158Y-34447932D01*
X168343411Y-34335990D01*
X168586632Y-34173475D01*
X168793475Y-33966632D01*
X168910000Y-33792240D01*
X169026525Y-33966632D01*
X169233368Y-34173475D01*
X169476589Y-34335990D01*
X169746842Y-34447932D01*
X170033740Y-34505000D01*
X170326260Y-34505000D01*
X170613158Y-34447932D01*
X170883411Y-34335990D01*
X171126632Y-34173475D01*
X171333475Y-33966632D01*
X171474113Y-33756152D01*
X171477816Y-33759855D01*
%TA.AperFunction,Conductor*%
D16*
G36*
X171477816Y-33759855D02*
G01*
X171633822Y-33864095D01*
X171807166Y-33935896D01*
X171955625Y-33965426D01*
X171960000Y-33969802D01*
X171960000Y-34995378D01*
X171874276Y-34925026D01*
X171742247Y-34854454D01*
X171598986Y-34810997D01*
X171487333Y-34800000D01*
X171487322Y-34800000D01*
X171450000Y-34796324D01*
X171412678Y-34800000D01*
X167951291Y-34800000D01*
X167920890Y-34647166D01*
X167856238Y-34491080D01*
X168073158Y-34447932D01*
X168343411Y-34335990D01*
X168586632Y-34173475D01*
X168793475Y-33966632D01*
X168910000Y-33792240D01*
X169026525Y-33966632D01*
X169233368Y-34173475D01*
X169476589Y-34335990D01*
X169746842Y-34447932D01*
X170033740Y-34505000D01*
X170326260Y-34505000D01*
X170613158Y-34447932D01*
X170883411Y-34335990D01*
X171126632Y-34173475D01*
X171333475Y-33966632D01*
X171474113Y-33756152D01*
X171477816Y-33759855D01*
G37*
%TD.AperFunction*%
D15*
X148904893Y-34165000D02*
X148732338Y-34165000D01*
X148759502Y-34114180D01*
X148781513Y-34041620D01*
X148904893Y-34165000D01*
%TA.AperFunction,Conductor*%
D16*
G36*
X148904893Y-34165000D02*
G01*
X148732338Y-34165000D01*
X148759502Y-34114180D01*
X148781513Y-34041620D01*
X148904893Y-34165000D01*
G37*
%TD.AperFunction*%
D15*
X161406525Y-33966632D02*
X161604893Y-34165000D01*
X160975107Y-34165000D01*
X161173475Y-33966632D01*
X161290000Y-33792240D01*
X161406525Y-33966632D01*
%TA.AperFunction,Conductor*%
D16*
G36*
X161406525Y-33966632D02*
G01*
X161604893Y-34165000D01*
X160975107Y-34165000D01*
X161173475Y-33966632D01*
X161290000Y-33792240D01*
X161406525Y-33966632D01*
G37*
%TD.AperFunction*%
D15*
X163946525Y-33966632D02*
X164144893Y-34165000D01*
X163515107Y-34165000D01*
X163713475Y-33966632D01*
X163830000Y-33792240D01*
X163946525Y-33966632D01*
%TA.AperFunction,Conductor*%
D16*
G36*
X163946525Y-33966632D02*
G01*
X164144893Y-34165000D01*
X163515107Y-34165000D01*
X163713475Y-33966632D01*
X163830000Y-33792240D01*
X163946525Y-33966632D01*
G37*
%TD.AperFunction*%
D15*
X166486525Y-33966632D02*
X166587037Y-34067144D01*
X166553816Y-34080905D01*
X166427959Y-34165000D01*
X166055107Y-34165000D01*
X166253475Y-33966632D01*
X166370000Y-33792240D01*
X166486525Y-33966632D01*
%TA.AperFunction,Conductor*%
D16*
G36*
X166486525Y-33966632D02*
G01*
X166587037Y-34067144D01*
X166553816Y-34080905D01*
X166427959Y-34165000D01*
X166055107Y-34165000D01*
X166253475Y-33966632D01*
X166370000Y-33792240D01*
X166486525Y-33966632D01*
G37*
%TD.AperFunction*%
%TD*%
M02*
