%TF.GenerationSoftware,KiCad,Pcbnew,(5.1.9)-1*%
%TF.CreationDate,2021-04-29T17:29:05+08:00*%
%TF.ProjectId,arduino_pro_mini,61726475-696e-46f5-9f70-726f5f6d696e,rev?*%
%TF.SameCoordinates,Original*%
%TF.FileFunction,Copper,L1,Top*%
%TF.FilePolarity,Positive*%
%FSLAX46Y46*%
G04 Gerber Fmt 4.6, Leading zero omitted, Abs format (unit mm)*
G04 Created by KiCad (PCBNEW (5.1.9)-1) date 2021-04-29 17:29:05*
%MOMM*%
%LPD*%
G01*
G04 APERTURE LIST*
%TA.AperFunction,ComponentPad*%
%ADD10O,1.700000X1.700000*%
%TD*%
%TA.AperFunction,ComponentPad*%
%ADD11R,1.700000X1.700000*%
%TD*%
%TA.AperFunction,ComponentPad*%
%ADD12C,1.500000*%
%TD*%
%TA.AperFunction,SMDPad,CuDef*%
%ADD13R,0.550000X1.600000*%
%TD*%
%TA.AperFunction,SMDPad,CuDef*%
%ADD14R,1.600000X0.550000*%
%TD*%
%TA.AperFunction,SMDPad,CuDef*%
%ADD15R,1.060000X0.650000*%
%TD*%
%TA.AperFunction,SMDPad,CuDef*%
%ADD16R,1.300000X1.550000*%
%TD*%
%TA.AperFunction,ViaPad*%
%ADD17C,0.635000*%
%TD*%
%TA.AperFunction,Conductor*%
%ADD18C,0.381000*%
%TD*%
%TA.AperFunction,Conductor*%
%ADD19C,0.250000*%
%TD*%
%TA.AperFunction,Conductor*%
%ADD20C,0.254000*%
%TD*%
%TA.AperFunction,Conductor*%
%ADD21C,0.100000*%
%TD*%
G04 APERTURE END LIST*
D10*
%TO.P,J1,6*%
%TO.N,GND*%
X148590000Y-41910000D03*
%TO.P,J1,5*%
%TO.N,RESET*%
X146050000Y-41910000D03*
%TO.P,J1,4*%
%TO.N,MOSI*%
X148590000Y-39370000D03*
%TO.P,J1,3*%
%TO.N,SCK*%
X146050000Y-39370000D03*
%TO.P,J1,2*%
%TO.N,RAW*%
X148590000Y-36830000D03*
D11*
%TO.P,J1,1*%
%TO.N,MISO*%
X146050000Y-36830000D03*
%TD*%
D12*
%TO.P,Y1,2*%
%TO.N,Net-(C7-Pad2)*%
X166370000Y-39570000D03*
%TO.P,Y1,1*%
%TO.N,Net-(C6-Pad1)*%
X166370000Y-44450000D03*
%TD*%
D13*
%TO.P,U2,32*%
%TO.N,D2*%
X159010000Y-44890000D03*
%TO.P,U2,31*%
%TO.N,TX*%
X158210000Y-44890000D03*
%TO.P,U2,30*%
%TO.N,RX*%
X157410000Y-44890000D03*
%TO.P,U2,29*%
%TO.N,RESET*%
X156610000Y-44890000D03*
%TO.P,U2,28*%
%TO.N,Net-(U2-Pad28)*%
X155810000Y-44890000D03*
%TO.P,U2,27*%
%TO.N,Net-(U2-Pad27)*%
X155010000Y-44890000D03*
%TO.P,U2,26*%
%TO.N,A3*%
X154210000Y-44890000D03*
%TO.P,U2,25*%
%TO.N,A2*%
X153410000Y-44890000D03*
D14*
%TO.P,U2,24*%
%TO.N,A1*%
X151960000Y-43440000D03*
%TO.P,U2,23*%
%TO.N,A0*%
X151960000Y-42640000D03*
%TO.P,U2,22*%
%TO.N,A7*%
X151960000Y-41840000D03*
%TO.P,U2,21*%
%TO.N,GND*%
X151960000Y-41040000D03*
%TO.P,U2,20*%
%TO.N,VCC*%
X151960000Y-40240000D03*
%TO.P,U2,19*%
%TO.N,A6*%
X151960000Y-39440000D03*
%TO.P,U2,18*%
%TO.N,VCC*%
X151960000Y-38640000D03*
%TO.P,U2,17*%
%TO.N,SCK*%
X151960000Y-37840000D03*
D13*
%TO.P,U2,16*%
%TO.N,MISO*%
X153410000Y-36390000D03*
%TO.P,U2,15*%
%TO.N,MOSI*%
X154210000Y-36390000D03*
%TO.P,U2,14*%
%TO.N,D10*%
X155010000Y-36390000D03*
%TO.P,U2,13*%
%TO.N,D9*%
X155810000Y-36390000D03*
%TO.P,U2,12*%
%TO.N,D8*%
X156610000Y-36390000D03*
%TO.P,U2,11*%
%TO.N,D7*%
X157410000Y-36390000D03*
%TO.P,U2,10*%
%TO.N,D6*%
X158210000Y-36390000D03*
%TO.P,U2,9*%
%TO.N,D5*%
X159010000Y-36390000D03*
D14*
%TO.P,U2,8*%
%TO.N,Net-(C7-Pad2)*%
X160460000Y-37840000D03*
%TO.P,U2,7*%
%TO.N,Net-(C6-Pad1)*%
X160460000Y-38640000D03*
%TO.P,U2,6*%
%TO.N,VCC*%
X160460000Y-39440000D03*
%TO.P,U2,5*%
%TO.N,GND*%
X160460000Y-40240000D03*
%TO.P,U2,4*%
%TO.N,VCC*%
X160460000Y-41040000D03*
%TO.P,U2,3*%
%TO.N,GND*%
X160460000Y-41840000D03*
%TO.P,U2,2*%
%TO.N,D4*%
X160460000Y-42640000D03*
%TO.P,U2,1*%
%TO.N,D3*%
X160460000Y-43440000D03*
%TD*%
D15*
%TO.P,U1,5*%
%TO.N,Net-(D1-Pad2)*%
X159680000Y-48580000D03*
%TO.P,U1,4*%
%TO.N,Net-(U1-Pad4)*%
X159680000Y-50480000D03*
%TO.P,U1,3*%
%TO.N,RAW*%
X157480000Y-50480000D03*
%TO.P,U1,2*%
%TO.N,GND*%
X157480000Y-49530000D03*
%TO.P,U1,1*%
%TO.N,RAW*%
X157480000Y-48580000D03*
%TD*%
D16*
%TO.P,SW1,2*%
%TO.N,GND*%
X150205000Y-55415000D03*
%TO.P,SW1,1*%
%TO.N,RESET*%
X145705000Y-55415000D03*
X145705000Y-47455000D03*
%TO.P,SW1,2*%
%TO.N,GND*%
X150205000Y-47455000D03*
%TD*%
%TO.P,R2,2*%
%TO.N,RESET*%
%TA.AperFunction,SMDPad,CuDef*%
G36*
G01*
X153945000Y-52915000D02*
X153395000Y-52915000D01*
G75*
G02*
X153195000Y-52715000I0J200000D01*
G01*
X153195000Y-52315000D01*
G75*
G02*
X153395000Y-52115000I200000J0D01*
G01*
X153945000Y-52115000D01*
G75*
G02*
X154145000Y-52315000I0J-200000D01*
G01*
X154145000Y-52715000D01*
G75*
G02*
X153945000Y-52915000I-200000J0D01*
G01*
G37*
%TD.AperFunction*%
%TO.P,R2,1*%
%TO.N,VCC*%
%TA.AperFunction,SMDPad,CuDef*%
G36*
G01*
X153945000Y-54565000D02*
X153395000Y-54565000D01*
G75*
G02*
X153195000Y-54365000I0J200000D01*
G01*
X153195000Y-53965000D01*
G75*
G02*
X153395000Y-53765000I200000J0D01*
G01*
X153945000Y-53765000D01*
G75*
G02*
X154145000Y-53965000I0J-200000D01*
G01*
X154145000Y-54365000D01*
G75*
G02*
X153945000Y-54565000I-200000J0D01*
G01*
G37*
%TD.AperFunction*%
%TD*%
%TO.P,R1,2*%
%TO.N,GND*%
%TA.AperFunction,SMDPad,CuDef*%
G36*
G01*
X170455000Y-46565000D02*
X169905000Y-46565000D01*
G75*
G02*
X169705000Y-46365000I0J200000D01*
G01*
X169705000Y-45965000D01*
G75*
G02*
X169905000Y-45765000I200000J0D01*
G01*
X170455000Y-45765000D01*
G75*
G02*
X170655000Y-45965000I0J-200000D01*
G01*
X170655000Y-46365000D01*
G75*
G02*
X170455000Y-46565000I-200000J0D01*
G01*
G37*
%TD.AperFunction*%
%TO.P,R1,1*%
%TO.N,Net-(D1-Pad1)*%
%TA.AperFunction,SMDPad,CuDef*%
G36*
G01*
X170455000Y-48215000D02*
X169905000Y-48215000D01*
G75*
G02*
X169705000Y-48015000I0J200000D01*
G01*
X169705000Y-47615000D01*
G75*
G02*
X169905000Y-47415000I200000J0D01*
G01*
X170455000Y-47415000D01*
G75*
G02*
X170655000Y-47615000I0J-200000D01*
G01*
X170655000Y-48015000D01*
G75*
G02*
X170455000Y-48215000I-200000J0D01*
G01*
G37*
%TD.AperFunction*%
%TD*%
D10*
%TO.P,J3,10*%
%TO.N,D10*%
X142240000Y-55880000D03*
%TO.P,J3,9*%
%TO.N,A7*%
X142240000Y-53340000D03*
%TO.P,J3,8*%
%TO.N,A6*%
X142240000Y-50800000D03*
%TO.P,J3,7*%
%TO.N,A3*%
X142240000Y-48260000D03*
%TO.P,J3,6*%
%TO.N,A2*%
X142240000Y-45720000D03*
%TO.P,J3,5*%
%TO.N,A1*%
X142240000Y-43180000D03*
%TO.P,J3,4*%
%TO.N,A0*%
X142240000Y-40640000D03*
%TO.P,J3,3*%
%TO.N,VCC*%
X142240000Y-38100000D03*
%TO.P,J3,2*%
%TO.N,GND*%
X142240000Y-35560000D03*
D11*
%TO.P,J3,1*%
%TO.N,RAW*%
X142240000Y-33020000D03*
%TD*%
D10*
%TO.P,J2,10*%
%TO.N,TX*%
X170180000Y-33020000D03*
%TO.P,J2,9*%
%TO.N,RX*%
X167640000Y-33020000D03*
%TO.P,J2,8*%
%TO.N,D2*%
X165100000Y-33020000D03*
%TO.P,J2,7*%
%TO.N,D3*%
X162560000Y-33020000D03*
%TO.P,J2,6*%
%TO.N,D4*%
X160020000Y-33020000D03*
%TO.P,J2,5*%
%TO.N,D5*%
X157480000Y-33020000D03*
%TO.P,J2,4*%
%TO.N,D6*%
X154940000Y-33020000D03*
%TO.P,J2,3*%
%TO.N,D7*%
X152400000Y-33020000D03*
%TO.P,J2,2*%
%TO.N,D8*%
X149860000Y-33020000D03*
D11*
%TO.P,J2,1*%
%TO.N,D9*%
X147320000Y-33020000D03*
%TD*%
%TO.P,D1,2*%
%TO.N,Net-(D1-Pad2)*%
%TA.AperFunction,SMDPad,CuDef*%
G36*
G01*
X163480000Y-49273750D02*
X163480000Y-49786250D01*
G75*
G02*
X163261250Y-50005000I-218750J0D01*
G01*
X162823750Y-50005000D01*
G75*
G02*
X162605000Y-49786250I0J218750D01*
G01*
X162605000Y-49273750D01*
G75*
G02*
X162823750Y-49055000I218750J0D01*
G01*
X163261250Y-49055000D01*
G75*
G02*
X163480000Y-49273750I0J-218750D01*
G01*
G37*
%TD.AperFunction*%
%TO.P,D1,1*%
%TO.N,Net-(D1-Pad1)*%
%TA.AperFunction,SMDPad,CuDef*%
G36*
G01*
X165055000Y-49273750D02*
X165055000Y-49786250D01*
G75*
G02*
X164836250Y-50005000I-218750J0D01*
G01*
X164398750Y-50005000D01*
G75*
G02*
X164180000Y-49786250I0J218750D01*
G01*
X164180000Y-49273750D01*
G75*
G02*
X164398750Y-49055000I218750J0D01*
G01*
X164836250Y-49055000D01*
G75*
G02*
X165055000Y-49273750I0J-218750D01*
G01*
G37*
%TD.AperFunction*%
%TD*%
%TO.P,C7,2*%
%TO.N,Net-(C7-Pad2)*%
%TA.AperFunction,SMDPad,CuDef*%
G36*
G01*
X169930000Y-38425000D02*
X170430000Y-38425000D01*
G75*
G02*
X170655000Y-38650000I0J-225000D01*
G01*
X170655000Y-39100000D01*
G75*
G02*
X170430000Y-39325000I-225000J0D01*
G01*
X169930000Y-39325000D01*
G75*
G02*
X169705000Y-39100000I0J225000D01*
G01*
X169705000Y-38650000D01*
G75*
G02*
X169930000Y-38425000I225000J0D01*
G01*
G37*
%TD.AperFunction*%
%TO.P,C7,1*%
%TO.N,GND*%
%TA.AperFunction,SMDPad,CuDef*%
G36*
G01*
X169930000Y-36875000D02*
X170430000Y-36875000D01*
G75*
G02*
X170655000Y-37100000I0J-225000D01*
G01*
X170655000Y-37550000D01*
G75*
G02*
X170430000Y-37775000I-225000J0D01*
G01*
X169930000Y-37775000D01*
G75*
G02*
X169705000Y-37550000I0J225000D01*
G01*
X169705000Y-37100000D01*
G75*
G02*
X169930000Y-36875000I225000J0D01*
G01*
G37*
%TD.AperFunction*%
%TD*%
%TO.P,C6,2*%
%TO.N,GND*%
%TA.AperFunction,SMDPad,CuDef*%
G36*
G01*
X169930000Y-43505000D02*
X170430000Y-43505000D01*
G75*
G02*
X170655000Y-43730000I0J-225000D01*
G01*
X170655000Y-44180000D01*
G75*
G02*
X170430000Y-44405000I-225000J0D01*
G01*
X169930000Y-44405000D01*
G75*
G02*
X169705000Y-44180000I0J225000D01*
G01*
X169705000Y-43730000D01*
G75*
G02*
X169930000Y-43505000I225000J0D01*
G01*
G37*
%TD.AperFunction*%
%TO.P,C6,1*%
%TO.N,Net-(C6-Pad1)*%
%TA.AperFunction,SMDPad,CuDef*%
G36*
G01*
X169930000Y-41955000D02*
X170430000Y-41955000D01*
G75*
G02*
X170655000Y-42180000I0J-225000D01*
G01*
X170655000Y-42630000D01*
G75*
G02*
X170430000Y-42855000I-225000J0D01*
G01*
X169930000Y-42855000D01*
G75*
G02*
X169705000Y-42630000I0J225000D01*
G01*
X169705000Y-42180000D01*
G75*
G02*
X169930000Y-41955000I225000J0D01*
G01*
G37*
%TD.AperFunction*%
%TD*%
%TO.P,C5,2*%
%TO.N,VCC*%
%TA.AperFunction,SMDPad,CuDef*%
G36*
G01*
X159770000Y-53665000D02*
X160270000Y-53665000D01*
G75*
G02*
X160495000Y-53890000I0J-225000D01*
G01*
X160495000Y-54340000D01*
G75*
G02*
X160270000Y-54565000I-225000J0D01*
G01*
X159770000Y-54565000D01*
G75*
G02*
X159545000Y-54340000I0J225000D01*
G01*
X159545000Y-53890000D01*
G75*
G02*
X159770000Y-53665000I225000J0D01*
G01*
G37*
%TD.AperFunction*%
%TO.P,C5,1*%
%TO.N,GND*%
%TA.AperFunction,SMDPad,CuDef*%
G36*
G01*
X159770000Y-52115000D02*
X160270000Y-52115000D01*
G75*
G02*
X160495000Y-52340000I0J-225000D01*
G01*
X160495000Y-52790000D01*
G75*
G02*
X160270000Y-53015000I-225000J0D01*
G01*
X159770000Y-53015000D01*
G75*
G02*
X159545000Y-52790000I0J225000D01*
G01*
X159545000Y-52340000D01*
G75*
G02*
X159770000Y-52115000I225000J0D01*
G01*
G37*
%TD.AperFunction*%
%TD*%
%TO.P,C4,2*%
%TO.N,VCC*%
%TA.AperFunction,SMDPad,CuDef*%
G36*
G01*
X157230000Y-53665000D02*
X157730000Y-53665000D01*
G75*
G02*
X157955000Y-53890000I0J-225000D01*
G01*
X157955000Y-54340000D01*
G75*
G02*
X157730000Y-54565000I-225000J0D01*
G01*
X157230000Y-54565000D01*
G75*
G02*
X157005000Y-54340000I0J225000D01*
G01*
X157005000Y-53890000D01*
G75*
G02*
X157230000Y-53665000I225000J0D01*
G01*
G37*
%TD.AperFunction*%
%TO.P,C4,1*%
%TO.N,GND*%
%TA.AperFunction,SMDPad,CuDef*%
G36*
G01*
X157230000Y-52115000D02*
X157730000Y-52115000D01*
G75*
G02*
X157955000Y-52340000I0J-225000D01*
G01*
X157955000Y-52790000D01*
G75*
G02*
X157730000Y-53015000I-225000J0D01*
G01*
X157230000Y-53015000D01*
G75*
G02*
X157005000Y-52790000I0J225000D01*
G01*
X157005000Y-52340000D01*
G75*
G02*
X157230000Y-52115000I225000J0D01*
G01*
G37*
%TD.AperFunction*%
%TD*%
%TO.P,C3,2*%
%TO.N,GND*%
%TA.AperFunction,SMDPad,CuDef*%
G36*
G01*
X170010000Y-54860000D02*
X170010000Y-54360000D01*
G75*
G02*
X170235000Y-54135000I225000J0D01*
G01*
X170685000Y-54135000D01*
G75*
G02*
X170910000Y-54360000I0J-225000D01*
G01*
X170910000Y-54860000D01*
G75*
G02*
X170685000Y-55085000I-225000J0D01*
G01*
X170235000Y-55085000D01*
G75*
G02*
X170010000Y-54860000I0J225000D01*
G01*
G37*
%TD.AperFunction*%
%TO.P,C3,1*%
%TO.N,VCC*%
%TA.AperFunction,SMDPad,CuDef*%
G36*
G01*
X168460000Y-54860000D02*
X168460000Y-54360000D01*
G75*
G02*
X168685000Y-54135000I225000J0D01*
G01*
X169135000Y-54135000D01*
G75*
G02*
X169360000Y-54360000I0J-225000D01*
G01*
X169360000Y-54860000D01*
G75*
G02*
X169135000Y-55085000I-225000J0D01*
G01*
X168685000Y-55085000D01*
G75*
G02*
X168460000Y-54860000I0J225000D01*
G01*
G37*
%TD.AperFunction*%
%TD*%
%TO.P,C2,2*%
%TO.N,GND*%
%TA.AperFunction,SMDPad,CuDef*%
G36*
G01*
X170010000Y-51050000D02*
X170010000Y-50550000D01*
G75*
G02*
X170235000Y-50325000I225000J0D01*
G01*
X170685000Y-50325000D01*
G75*
G02*
X170910000Y-50550000I0J-225000D01*
G01*
X170910000Y-51050000D01*
G75*
G02*
X170685000Y-51275000I-225000J0D01*
G01*
X170235000Y-51275000D01*
G75*
G02*
X170010000Y-51050000I0J225000D01*
G01*
G37*
%TD.AperFunction*%
%TO.P,C2,1*%
%TO.N,VCC*%
%TA.AperFunction,SMDPad,CuDef*%
G36*
G01*
X168460000Y-51050000D02*
X168460000Y-50550000D01*
G75*
G02*
X168685000Y-50325000I225000J0D01*
G01*
X169135000Y-50325000D01*
G75*
G02*
X169360000Y-50550000I0J-225000D01*
G01*
X169360000Y-51050000D01*
G75*
G02*
X169135000Y-51275000I-225000J0D01*
G01*
X168685000Y-51275000D01*
G75*
G02*
X168460000Y-51050000I0J225000D01*
G01*
G37*
%TD.AperFunction*%
%TD*%
%TO.P,C1,2*%
%TO.N,GND*%
%TA.AperFunction,SMDPad,CuDef*%
G36*
G01*
X153420000Y-49855000D02*
X153920000Y-49855000D01*
G75*
G02*
X154145000Y-50080000I0J-225000D01*
G01*
X154145000Y-50530000D01*
G75*
G02*
X153920000Y-50755000I-225000J0D01*
G01*
X153420000Y-50755000D01*
G75*
G02*
X153195000Y-50530000I0J225000D01*
G01*
X153195000Y-50080000D01*
G75*
G02*
X153420000Y-49855000I225000J0D01*
G01*
G37*
%TD.AperFunction*%
%TO.P,C1,1*%
%TO.N,RAW*%
%TA.AperFunction,SMDPad,CuDef*%
G36*
G01*
X153420000Y-48305000D02*
X153920000Y-48305000D01*
G75*
G02*
X154145000Y-48530000I0J-225000D01*
G01*
X154145000Y-48980000D01*
G75*
G02*
X153920000Y-49205000I-225000J0D01*
G01*
X153420000Y-49205000D01*
G75*
G02*
X153195000Y-48980000I0J225000D01*
G01*
X153195000Y-48530000D01*
G75*
G02*
X153420000Y-48305000I225000J0D01*
G01*
G37*
%TD.AperFunction*%
%TD*%
D17*
%TO.N,GND*%
X160655000Y-57150000D03*
X155575000Y-57150000D03*
X171450000Y-56515000D03*
X172085000Y-51435000D03*
X144780000Y-31750000D03*
X166370000Y-57150000D03*
X158115000Y-42545000D03*
X142875000Y-36830000D03*
X147320000Y-41275000D03*
X159703067Y-46240788D03*
%TO.N,RAW*%
X161290000Y-51435000D03*
%TO.N,VCC*%
X149860000Y-38735000D03*
%TO.N,RESET*%
X156210000Y-46227640D03*
X154940000Y-51435000D03*
%TO.N,MOSI*%
X154305000Y-38735000D03*
%TO.N,SCK*%
X144145000Y-39370000D03*
X151790171Y-37007567D03*
%TO.N,TX*%
X172085000Y-33020000D03*
X157966367Y-46201447D03*
%TO.N,RX*%
X157480000Y-43180000D03*
X167004994Y-34925000D03*
%TO.N,D2*%
X165100000Y-35560000D03*
X158750791Y-46227640D03*
%TO.N,D3*%
X162709863Y-35560000D03*
X160653667Y-45061278D03*
%TO.N,D4*%
X161898562Y-35533563D03*
X158696131Y-41963869D03*
%TO.N,D10*%
X144145000Y-55880000D03*
X155136656Y-38081931D03*
%TO.N,A7*%
X143510000Y-52070000D03*
X154305000Y-41910000D03*
%TO.N,A6*%
X145415000Y-40640000D03*
X153387115Y-39625296D03*
%TO.N,A3*%
X154305000Y-46227640D03*
%TO.N,A2*%
X147955000Y-44450000D03*
%TO.N,A1*%
X142772501Y-44450000D03*
X149225000Y-43964863D03*
%TO.N,A0*%
X142875000Y-41910000D03*
X149225000Y-43180000D03*
%TD*%
D18*
%TO.N,GND*%
X170180000Y-37325000D02*
X171450000Y-38595000D01*
X171450000Y-42685000D02*
X170180000Y-43955000D01*
X171450000Y-38595000D02*
X171450000Y-42685000D01*
X170180000Y-43955000D02*
X170180000Y-46165000D01*
X170995370Y-50264630D02*
X170460000Y-50800000D01*
X170995370Y-46505370D02*
X170995370Y-50264630D01*
X170655000Y-46165000D02*
X170995370Y-46505370D01*
X170180000Y-46165000D02*
X170655000Y-46165000D01*
X170460000Y-50800000D02*
X170460000Y-54610000D01*
X157480000Y-52565000D02*
X160020000Y-52565000D01*
X150840000Y-46820000D02*
X150960000Y-46820000D01*
X153670000Y-50029556D02*
X153670000Y-50305000D01*
D19*
X157480000Y-49530000D02*
X156700000Y-49530000D01*
X154445000Y-49530000D02*
X153670000Y-50305000D01*
X149460000Y-41040000D02*
X151960000Y-41040000D01*
X148590000Y-41910000D02*
X149460000Y-41040000D01*
X142240000Y-36195000D02*
X142875000Y-36830000D01*
X142240000Y-35560000D02*
X142240000Y-36195000D01*
X147320000Y-41275000D02*
X147320000Y-39370000D01*
X146589934Y-38245139D02*
X147320000Y-38975205D01*
X144290139Y-38245139D02*
X146589934Y-38245139D01*
X142875000Y-36830000D02*
X144290139Y-38245139D01*
X147320000Y-38975205D02*
X147320000Y-39370000D01*
X159850000Y-46387721D02*
X159703067Y-46240788D01*
X159850000Y-46820000D02*
X159850000Y-46387721D01*
X163754870Y-49069284D02*
X161632948Y-46947362D01*
X163754870Y-50034284D02*
X163754870Y-49069284D01*
X161632948Y-46947362D02*
X159977362Y-46947362D01*
X164520586Y-50800000D02*
X163754870Y-50034284D01*
X166370000Y-50800000D02*
X164520586Y-50800000D01*
X167640000Y-49530000D02*
X166370000Y-50800000D01*
X169611568Y-49530000D02*
X167640000Y-49530000D01*
X170929870Y-48211698D02*
X169611568Y-49530000D01*
X159977362Y-46947362D02*
X159850000Y-46820000D01*
X170929870Y-44704870D02*
X170929870Y-48211698D01*
X170180000Y-43955000D02*
X170929870Y-44704870D01*
X150205000Y-55415000D02*
X150205000Y-53770000D01*
X150205000Y-53770000D02*
X153670000Y-50305000D01*
X156210000Y-51295000D02*
X157480000Y-52565000D01*
X156210000Y-49530000D02*
X154445000Y-49530000D01*
X156700000Y-49530000D02*
X156210000Y-49530000D01*
X156210000Y-50020000D02*
X156210000Y-50165000D01*
X156210000Y-50165000D02*
X156210000Y-51295000D01*
X156210000Y-50165000D02*
X156210000Y-49530000D01*
X151905000Y-50305000D02*
X150205000Y-48605000D01*
X150205000Y-48605000D02*
X150205000Y-47455000D01*
X153670000Y-50305000D02*
X151905000Y-50305000D01*
X159410000Y-41840000D02*
X158845000Y-41275000D01*
X160460000Y-41840000D02*
X159410000Y-41840000D01*
X159410000Y-40240000D02*
X160460000Y-40240000D01*
X158845000Y-40805000D02*
X159410000Y-40240000D01*
X158845000Y-41275000D02*
X158845000Y-40805000D01*
X157797501Y-40957499D02*
X157797501Y-42227501D01*
X157797501Y-42227501D02*
X158115000Y-42545000D01*
X157950000Y-40805000D02*
X157797501Y-40957499D01*
X158845000Y-40805000D02*
X157950000Y-40805000D01*
X147320000Y-43180000D02*
X148590000Y-41910000D01*
X147320000Y-45720000D02*
X147320000Y-43180000D01*
X147955000Y-46355000D02*
X147320000Y-45720000D01*
X150375000Y-46355000D02*
X147955000Y-46355000D01*
X150840000Y-46820000D02*
X150375000Y-46355000D01*
X151010000Y-46990000D02*
X150840000Y-46820000D01*
X159680000Y-46990000D02*
X151010000Y-46990000D01*
X159850000Y-46820000D02*
X159680000Y-46990000D01*
%TO.N,RAW*%
X153845000Y-48580000D02*
X153670000Y-48755000D01*
X157480000Y-48580000D02*
X153845000Y-48580000D01*
X144780000Y-33020000D02*
X142240000Y-33020000D01*
X148590000Y-36830000D02*
X144780000Y-33020000D01*
X148590000Y-36830000D02*
X146195139Y-34435139D01*
X157480000Y-50480000D02*
X157795000Y-50480000D01*
X158435000Y-51435000D02*
X161290000Y-51435000D01*
X157480000Y-50480000D02*
X158435000Y-51435000D01*
X158260000Y-48580000D02*
X157480000Y-48580000D01*
X158750000Y-49070000D02*
X158260000Y-48580000D01*
X158750000Y-49990000D02*
X158750000Y-49070000D01*
X158260000Y-50480000D02*
X158750000Y-49990000D01*
X157480000Y-50480000D02*
X158260000Y-50480000D01*
D18*
%TO.N,VCC*%
X168910000Y-50800000D02*
X168910000Y-54610000D01*
X160145000Y-53990000D02*
X160020000Y-54115000D01*
X163830000Y-53990000D02*
X160145000Y-53990000D01*
X157480000Y-54115000D02*
X160020000Y-54115000D01*
X157430000Y-54165000D02*
X157480000Y-54115000D01*
X153670000Y-54165000D02*
X157430000Y-54165000D01*
D19*
X151960000Y-40240000D02*
X151365000Y-40240000D01*
X151190250Y-38640000D02*
X151960000Y-38640000D01*
X150885139Y-38945111D02*
X151190250Y-38640000D01*
X150885139Y-40215139D02*
X150885139Y-38945111D01*
X150910000Y-40240000D02*
X150885139Y-40215139D01*
X151960000Y-40240000D02*
X150910000Y-40240000D01*
X150675028Y-38735000D02*
X150885139Y-38945111D01*
X149860000Y-38735000D02*
X150675028Y-38735000D01*
X154133303Y-39440000D02*
X153333303Y-38640000D01*
X160460000Y-39440000D02*
X154133303Y-39440000D01*
X153333303Y-38640000D02*
X151960000Y-38640000D01*
X153670000Y-55245000D02*
X153670000Y-54165000D01*
X151429870Y-57485130D02*
X153670000Y-55245000D01*
X141305130Y-57485130D02*
X151429870Y-57485130D01*
X140335000Y-56515000D02*
X141305130Y-57485130D01*
X140335000Y-40005000D02*
X140335000Y-56515000D01*
X142240000Y-38100000D02*
X140335000Y-40005000D01*
D18*
X165085000Y-55245000D02*
X163830000Y-53990000D01*
X168275000Y-55245000D02*
X165085000Y-55245000D01*
X168910000Y-54610000D02*
X168275000Y-55245000D01*
D19*
X161510000Y-41040000D02*
X160460000Y-41040000D01*
X161925000Y-40625000D02*
X161510000Y-41040000D01*
X161925000Y-40028133D02*
X161925000Y-40625000D01*
X161336867Y-39440000D02*
X161925000Y-40028133D01*
X160460000Y-39440000D02*
X161336867Y-39440000D01*
D18*
%TO.N,Net-(C6-Pad1)*%
X166370000Y-43815000D02*
X166370000Y-44450000D01*
X167005000Y-43180000D02*
X166370000Y-43815000D01*
X169405000Y-43180000D02*
X167005000Y-43180000D01*
X170180000Y-42405000D02*
X169405000Y-43180000D01*
X165100000Y-44450000D02*
X166370000Y-44450000D01*
X163830000Y-43180000D02*
X165100000Y-44450000D01*
X163830000Y-40005000D02*
X163830000Y-43180000D01*
X160460000Y-38640000D02*
X162465000Y-38640000D01*
X162465000Y-38640000D02*
X163830000Y-40005000D01*
%TO.N,Net-(C7-Pad2)*%
X169685000Y-39370000D02*
X170180000Y-38875000D01*
X166570000Y-39370000D02*
X169685000Y-39370000D01*
X166370000Y-39570000D02*
X166570000Y-39370000D01*
X164145762Y-39570000D02*
X166370000Y-39570000D01*
X162415762Y-37840000D02*
X164145762Y-39570000D01*
X160460000Y-37840000D02*
X162415762Y-37840000D01*
%TO.N,Net-(D1-Pad2)*%
X162560000Y-50012500D02*
X163042500Y-49530000D01*
X162560000Y-50012500D02*
X161772500Y-50012500D01*
X160340000Y-48580000D02*
X159680000Y-48580000D01*
X161772500Y-50012500D02*
X160340000Y-48580000D01*
D19*
%TO.N,Net-(D1-Pad1)*%
X164617500Y-49530000D02*
X166370000Y-49530000D01*
X168085000Y-47815000D02*
X170180000Y-47815000D01*
X166370000Y-49530000D02*
X168085000Y-47815000D01*
%TO.N,RESET*%
X156610000Y-45827640D02*
X156210000Y-46227640D01*
X156610000Y-44890000D02*
X156610000Y-45827640D01*
X154750000Y-51435000D02*
X153670000Y-52515000D01*
X154940000Y-51435000D02*
X154750000Y-51435000D01*
D18*
X153670000Y-52515000D02*
X153670000Y-52925802D01*
D19*
X145705000Y-42255000D02*
X146050000Y-41910000D01*
X145705000Y-47455000D02*
X145705000Y-42255000D01*
X152780000Y-52515000D02*
X153670000Y-52515000D01*
X152400000Y-55880000D02*
X152400000Y-52895000D01*
X147375259Y-57085259D02*
X151194741Y-57085259D01*
X145815009Y-55525009D02*
X147375259Y-57085259D01*
X151194741Y-57085259D02*
X152400000Y-55880000D01*
X145815009Y-55304991D02*
X145815009Y-55525009D01*
X147320000Y-48260000D02*
X147320000Y-53800000D01*
X146515000Y-47455000D02*
X147320000Y-48260000D01*
X152400000Y-52895000D02*
X152780000Y-52515000D01*
X147320000Y-53800000D02*
X145815009Y-55304991D01*
X145705000Y-47455000D02*
X146515000Y-47455000D01*
%TO.N,MOSI*%
X154210000Y-36390000D02*
X154305000Y-36485000D01*
X154305000Y-36485000D02*
X154305000Y-38735000D01*
%TO.N,SCK*%
X146050000Y-39370000D02*
X146497221Y-39370000D01*
X152142638Y-37657362D02*
X151960000Y-37840000D01*
X146050000Y-39370000D02*
X144145000Y-39370000D01*
X151960000Y-37840000D02*
X151960000Y-37177396D01*
X151960000Y-37177396D02*
X151790171Y-37007567D01*
%TO.N,MISO*%
X153215000Y-36195000D02*
X153410000Y-36390000D01*
X151447500Y-36195000D02*
X153215000Y-36195000D01*
X149687639Y-37954861D02*
X151447500Y-36195000D01*
X147955000Y-37954861D02*
X149687639Y-37954861D01*
X146830139Y-36830000D02*
X147955000Y-37954861D01*
X146050000Y-36830000D02*
X146830139Y-36830000D01*
%TO.N,TX*%
X170180000Y-33020000D02*
X172085000Y-33020000D01*
X157966367Y-45133633D02*
X157966367Y-46201447D01*
X158210000Y-44890000D02*
X157966367Y-45133633D01*
%TO.N,RX*%
X157480000Y-44820000D02*
X157410000Y-44890000D01*
X157480000Y-43180000D02*
X157480000Y-44820000D01*
X167640000Y-34289994D02*
X167004994Y-34925000D01*
X167640000Y-33020000D02*
X167640000Y-34289994D01*
%TO.N,D2*%
X165100000Y-33020000D02*
X165100000Y-35560000D01*
X159010000Y-45968431D02*
X159010000Y-44890000D01*
X158750791Y-46227640D02*
X159010000Y-45968431D01*
%TO.N,D3*%
X162560000Y-35410137D02*
X162709863Y-35560000D01*
X162560000Y-33020000D02*
X162560000Y-35410137D01*
X160460000Y-44867611D02*
X160653667Y-45061278D01*
X160460000Y-43440000D02*
X160460000Y-44867611D01*
%TO.N,D4*%
X161898562Y-34898562D02*
X161898562Y-35533563D01*
X160020000Y-33020000D02*
X161898562Y-34898562D01*
X160460000Y-42640000D02*
X159372262Y-42640000D01*
X159372262Y-42640000D02*
X158696131Y-41963869D01*
%TO.N,D5*%
X157679750Y-33020000D02*
X157480000Y-33020000D01*
X159010000Y-34550000D02*
X159010000Y-36390000D01*
X157480000Y-33020000D02*
X159010000Y-34550000D01*
%TO.N,D6*%
X158210000Y-35574499D02*
X158210000Y-36390000D01*
X155655501Y-33020000D02*
X158210000Y-35574499D01*
X154940000Y-33020000D02*
X155655501Y-33020000D01*
%TO.N,D7*%
X156214861Y-34144861D02*
X157410000Y-35340000D01*
X153275205Y-33020000D02*
X154400066Y-34144861D01*
X157410000Y-35340000D02*
X157410000Y-36390000D01*
X154400066Y-34144861D02*
X156214861Y-34144861D01*
X152400000Y-33020000D02*
X153275205Y-33020000D01*
%TO.N,D8*%
X154234435Y-34544732D02*
X155814732Y-34544732D01*
X154214832Y-34525129D02*
X154234435Y-34544732D01*
X151365129Y-34525129D02*
X154214832Y-34525129D01*
X156610000Y-35340000D02*
X156610000Y-36390000D01*
X149860000Y-33020000D02*
X151365129Y-34525129D01*
X155814732Y-34544732D02*
X156610000Y-35340000D01*
%TO.N,D9*%
X155810000Y-35340000D02*
X155810000Y-36390000D01*
X155414603Y-34944603D02*
X155810000Y-35340000D01*
X154068804Y-34944603D02*
X155414603Y-34944603D01*
X154049201Y-34925000D02*
X154068804Y-34944603D01*
X149225000Y-34925000D02*
X154049201Y-34925000D01*
X147320000Y-33020000D02*
X149225000Y-34925000D01*
%TO.N,D10*%
X142240000Y-55880000D02*
X144145000Y-55880000D01*
X155010000Y-36390000D02*
X155010000Y-37955275D01*
X155010000Y-37955275D02*
X155136656Y-38081931D01*
%TO.N,A7*%
X142240000Y-53340000D02*
X143510000Y-52070000D01*
X152030000Y-41910000D02*
X151960000Y-41840000D01*
X154305000Y-41910000D02*
X152030000Y-41910000D01*
%TO.N,A6*%
X151960000Y-39440000D02*
X153201819Y-39440000D01*
X153201819Y-39440000D02*
X153387115Y-39625296D01*
X144145000Y-41910000D02*
X145415000Y-40640000D01*
X144145000Y-50165000D02*
X144145000Y-41910000D01*
X143510000Y-50800000D02*
X144145000Y-50165000D01*
X142240000Y-50800000D02*
X143510000Y-50800000D01*
%TO.N,A3*%
X154305000Y-44985000D02*
X154210000Y-44890000D01*
X154305000Y-46227640D02*
X154305000Y-44985000D01*
%TO.N,A2*%
X148395000Y-44890000D02*
X153410000Y-44890000D01*
X147955000Y-44450000D02*
X148395000Y-44890000D01*
%TO.N,A1*%
X142240000Y-43917499D02*
X142772501Y-44450000D01*
X142240000Y-43180000D02*
X142240000Y-43917499D01*
X151435137Y-43964863D02*
X149225000Y-43964863D01*
X151960000Y-43440000D02*
X151435137Y-43964863D01*
%TO.N,A0*%
X142240000Y-41275000D02*
X142875000Y-41910000D01*
X142240000Y-40640000D02*
X142240000Y-41275000D01*
X149765000Y-42640000D02*
X151960000Y-42640000D01*
X149225000Y-43180000D02*
X149765000Y-42640000D01*
%TD*%
D20*
%TO.N,GND*%
X172695000Y-55847721D02*
X172656091Y-56244545D01*
X172550220Y-56595206D01*
X172378257Y-56918623D01*
X172146748Y-57202482D01*
X171864514Y-57435965D01*
X171542304Y-57610184D01*
X171192385Y-57718502D01*
X170797557Y-57760000D01*
X152229801Y-57760000D01*
X154181004Y-55808798D01*
X154210001Y-55785001D01*
X154304974Y-55669276D01*
X154375546Y-55537247D01*
X154419003Y-55393986D01*
X154430000Y-55282333D01*
X154430000Y-55282324D01*
X154433676Y-55245001D01*
X154430000Y-55207678D01*
X154430000Y-55045916D01*
X154497525Y-54990500D01*
X156668719Y-54990500D01*
X156750503Y-55057618D01*
X156899717Y-55137375D01*
X157061623Y-55186488D01*
X157230000Y-55203072D01*
X157730000Y-55203072D01*
X157898377Y-55186488D01*
X158060283Y-55137375D01*
X158209497Y-55057618D01*
X158340284Y-54950284D01*
X158348314Y-54940500D01*
X159151686Y-54940500D01*
X159159716Y-54950284D01*
X159290503Y-55057618D01*
X159439717Y-55137375D01*
X159601623Y-55186488D01*
X159770000Y-55203072D01*
X160270000Y-55203072D01*
X160438377Y-55186488D01*
X160600283Y-55137375D01*
X160749497Y-55057618D01*
X160880284Y-54950284D01*
X160987618Y-54819497D01*
X160989754Y-54815500D01*
X163488068Y-54815500D01*
X164472606Y-55800039D01*
X164498459Y-55831541D01*
X164560319Y-55882308D01*
X164624157Y-55934699D01*
X164697334Y-55973813D01*
X164767566Y-56011353D01*
X164923174Y-56058556D01*
X165044447Y-56070500D01*
X165044449Y-56070500D01*
X165084999Y-56074494D01*
X165125550Y-56070500D01*
X168234450Y-56070500D01*
X168275000Y-56074494D01*
X168315550Y-56070500D01*
X168315553Y-56070500D01*
X168436826Y-56058556D01*
X168592434Y-56011353D01*
X168735842Y-55934699D01*
X168861541Y-55831541D01*
X168887397Y-55800035D01*
X168964360Y-55723072D01*
X169135000Y-55723072D01*
X169303377Y-55706488D01*
X169465283Y-55657375D01*
X169614497Y-55577618D01*
X169745284Y-55470284D01*
X169852618Y-55339497D01*
X169932375Y-55190283D01*
X169981488Y-55028377D01*
X169998072Y-54860000D01*
X169998072Y-54360000D01*
X169981488Y-54191623D01*
X169932375Y-54029717D01*
X169852618Y-53880503D01*
X169745284Y-53749716D01*
X169735500Y-53741686D01*
X169735500Y-51668314D01*
X169745284Y-51660284D01*
X169852618Y-51529497D01*
X169932375Y-51380283D01*
X169981488Y-51218377D01*
X169998072Y-51050000D01*
X169998072Y-50550000D01*
X169981488Y-50381623D01*
X169932375Y-50219717D01*
X169852618Y-50070503D01*
X169745284Y-49939716D01*
X169614497Y-49832382D01*
X169465283Y-49752625D01*
X169303377Y-49703512D01*
X169135000Y-49686928D01*
X168685000Y-49686928D01*
X168516623Y-49703512D01*
X168354717Y-49752625D01*
X168205503Y-49832382D01*
X168074716Y-49939716D01*
X167967382Y-50070503D01*
X167887625Y-50219717D01*
X167838512Y-50381623D01*
X167821928Y-50550000D01*
X167821928Y-51050000D01*
X167838512Y-51218377D01*
X167887625Y-51380283D01*
X167967382Y-51529497D01*
X168074716Y-51660284D01*
X168084500Y-51668314D01*
X168084501Y-53741686D01*
X168074716Y-53749716D01*
X167967382Y-53880503D01*
X167887625Y-54029717D01*
X167838512Y-54191623D01*
X167821928Y-54360000D01*
X167821928Y-54419500D01*
X165426933Y-54419500D01*
X164442398Y-53434966D01*
X164416541Y-53403459D01*
X164290842Y-53300301D01*
X164147434Y-53223647D01*
X163991826Y-53176444D01*
X163870553Y-53164500D01*
X163870550Y-53164500D01*
X163830000Y-53160506D01*
X163789450Y-53164500D01*
X160734751Y-53164500D01*
X160600283Y-53092625D01*
X160438377Y-53043512D01*
X160270000Y-53026928D01*
X159770000Y-53026928D01*
X159601623Y-53043512D01*
X159439717Y-53092625D01*
X159290503Y-53172382D01*
X159159716Y-53279716D01*
X159151686Y-53289500D01*
X158348314Y-53289500D01*
X158340284Y-53279716D01*
X158209497Y-53172382D01*
X158060283Y-53092625D01*
X157898377Y-53043512D01*
X157730000Y-53026928D01*
X157230000Y-53026928D01*
X157061623Y-53043512D01*
X156899717Y-53092625D01*
X156750503Y-53172382D01*
X156619716Y-53279716D01*
X156570653Y-53339500D01*
X154498743Y-53339500D01*
X154537606Y-53307606D01*
X154641831Y-53180608D01*
X154719278Y-53035716D01*
X154766969Y-52878500D01*
X154783072Y-52715000D01*
X154783072Y-52476730D01*
X154872302Y-52387500D01*
X155033813Y-52387500D01*
X155217834Y-52350896D01*
X155391178Y-52279095D01*
X155547184Y-52174855D01*
X155679855Y-52042184D01*
X155784095Y-51886178D01*
X155855896Y-51712834D01*
X155892500Y-51528813D01*
X155892500Y-51341187D01*
X155855896Y-51157166D01*
X155784095Y-50983822D01*
X155679855Y-50827816D01*
X155547184Y-50695145D01*
X155391178Y-50590905D01*
X155217834Y-50519104D01*
X155033813Y-50482500D01*
X154846187Y-50482500D01*
X154662166Y-50519104D01*
X154488822Y-50590905D01*
X154332816Y-50695145D01*
X154200145Y-50827816D01*
X154095905Y-50983822D01*
X154074359Y-51035839D01*
X153633271Y-51476928D01*
X153395000Y-51476928D01*
X153231500Y-51493031D01*
X153074284Y-51540722D01*
X152929392Y-51618169D01*
X152802394Y-51722394D01*
X152778533Y-51751468D01*
X152742676Y-51755000D01*
X152742667Y-51755000D01*
X152631014Y-51765997D01*
X152487753Y-51809454D01*
X152355724Y-51880026D01*
X152239999Y-51974999D01*
X152216196Y-52004003D01*
X151888998Y-52331201D01*
X151860000Y-52354999D01*
X151836202Y-52383997D01*
X151836201Y-52383998D01*
X151765026Y-52470724D01*
X151694454Y-52602754D01*
X151650998Y-52746015D01*
X151636324Y-52895000D01*
X151640001Y-52932332D01*
X151640000Y-55565198D01*
X150879940Y-56325259D01*
X147690061Y-56325259D01*
X146993072Y-55628271D01*
X146993072Y-55201729D01*
X147831003Y-54363799D01*
X147860001Y-54340001D01*
X147954974Y-54224276D01*
X148025546Y-54092247D01*
X148069003Y-53948986D01*
X148080000Y-53837333D01*
X148080000Y-53837325D01*
X148083676Y-53800000D01*
X148080000Y-53762675D01*
X148080000Y-48530000D01*
X152556928Y-48530000D01*
X152556928Y-48980000D01*
X152573512Y-49148377D01*
X152622625Y-49310283D01*
X152702382Y-49459497D01*
X152809716Y-49590284D01*
X152940503Y-49697618D01*
X153089717Y-49777375D01*
X153251623Y-49826488D01*
X153420000Y-49843072D01*
X153920000Y-49843072D01*
X154088377Y-49826488D01*
X154250283Y-49777375D01*
X154399497Y-49697618D01*
X154530284Y-49590284D01*
X154637618Y-49459497D01*
X154701491Y-49340000D01*
X156485532Y-49340000D01*
X156498815Y-49356185D01*
X156595506Y-49435537D01*
X156705820Y-49494502D01*
X156822841Y-49530000D01*
X156705820Y-49565498D01*
X156595506Y-49624463D01*
X156498815Y-49703815D01*
X156419463Y-49800506D01*
X156360498Y-49910820D01*
X156324188Y-50030518D01*
X156311928Y-50155000D01*
X156311928Y-50805000D01*
X156324188Y-50929482D01*
X156360498Y-51049180D01*
X156419463Y-51159494D01*
X156498815Y-51256185D01*
X156595506Y-51335537D01*
X156705820Y-51394502D01*
X156825518Y-51430812D01*
X156950000Y-51443072D01*
X157368271Y-51443072D01*
X157871201Y-51946003D01*
X157894999Y-51975001D01*
X157923997Y-51998799D01*
X158010723Y-52069974D01*
X158125498Y-52131323D01*
X158142753Y-52140546D01*
X158286014Y-52184003D01*
X158397667Y-52195000D01*
X158397677Y-52195000D01*
X158435000Y-52198676D01*
X158472323Y-52195000D01*
X160712965Y-52195000D01*
X160838822Y-52279095D01*
X161012166Y-52350896D01*
X161196187Y-52387500D01*
X161383813Y-52387500D01*
X161567834Y-52350896D01*
X161741178Y-52279095D01*
X161897184Y-52174855D01*
X162029855Y-52042184D01*
X162134095Y-51886178D01*
X162205896Y-51712834D01*
X162242500Y-51528813D01*
X162242500Y-51341187D01*
X162205896Y-51157166D01*
X162134095Y-50983822D01*
X162036660Y-50838000D01*
X162519450Y-50838000D01*
X162560000Y-50841994D01*
X162600550Y-50838000D01*
X162600553Y-50838000D01*
X162721826Y-50826056D01*
X162877434Y-50778853D01*
X163020842Y-50702199D01*
X163092889Y-50643072D01*
X163261250Y-50643072D01*
X163428408Y-50626608D01*
X163589142Y-50577850D01*
X163737275Y-50498671D01*
X163830000Y-50422574D01*
X163922725Y-50498671D01*
X164070858Y-50577850D01*
X164231592Y-50626608D01*
X164398750Y-50643072D01*
X164836250Y-50643072D01*
X165003408Y-50626608D01*
X165164142Y-50577850D01*
X165312275Y-50498671D01*
X165442115Y-50392115D01*
X165525918Y-50290000D01*
X166332678Y-50290000D01*
X166370000Y-50293676D01*
X166407322Y-50290000D01*
X166407333Y-50290000D01*
X166518986Y-50279003D01*
X166662247Y-50235546D01*
X166794276Y-50164974D01*
X166910001Y-50070001D01*
X166933804Y-50040997D01*
X168399802Y-48575000D01*
X169285635Y-48575000D01*
X169312394Y-48607606D01*
X169439392Y-48711831D01*
X169584284Y-48789278D01*
X169741500Y-48836969D01*
X169905000Y-48853072D01*
X170455000Y-48853072D01*
X170618500Y-48836969D01*
X170775716Y-48789278D01*
X170920608Y-48711831D01*
X171047606Y-48607606D01*
X171151831Y-48480608D01*
X171229278Y-48335716D01*
X171276969Y-48178500D01*
X171293072Y-48015000D01*
X171293072Y-47615000D01*
X171276969Y-47451500D01*
X171229278Y-47294284D01*
X171151831Y-47149392D01*
X171047606Y-47022394D01*
X170920608Y-46918169D01*
X170775716Y-46840722D01*
X170618500Y-46793031D01*
X170455000Y-46776928D01*
X169905000Y-46776928D01*
X169741500Y-46793031D01*
X169584284Y-46840722D01*
X169439392Y-46918169D01*
X169312394Y-47022394D01*
X169285635Y-47055000D01*
X168122322Y-47055000D01*
X168084999Y-47051324D01*
X168047676Y-47055000D01*
X168047667Y-47055000D01*
X167936014Y-47065997D01*
X167792753Y-47109454D01*
X167660724Y-47180026D01*
X167544999Y-47274999D01*
X167521201Y-47303997D01*
X166055199Y-48770000D01*
X165525918Y-48770000D01*
X165442115Y-48667885D01*
X165312275Y-48561329D01*
X165164142Y-48482150D01*
X165003408Y-48433392D01*
X164836250Y-48416928D01*
X164398750Y-48416928D01*
X164231592Y-48433392D01*
X164070858Y-48482150D01*
X163922725Y-48561329D01*
X163830000Y-48637426D01*
X163737275Y-48561329D01*
X163589142Y-48482150D01*
X163428408Y-48433392D01*
X163261250Y-48416928D01*
X162823750Y-48416928D01*
X162656592Y-48433392D01*
X162495858Y-48482150D01*
X162347725Y-48561329D01*
X162217885Y-48667885D01*
X162111329Y-48797725D01*
X162032150Y-48945858D01*
X161995177Y-49067743D01*
X160952398Y-48024966D01*
X160926541Y-47993459D01*
X160800842Y-47890301D01*
X160678491Y-47824902D01*
X160661185Y-47803815D01*
X160564494Y-47724463D01*
X160454180Y-47665498D01*
X160334482Y-47629188D01*
X160210000Y-47616928D01*
X159150000Y-47616928D01*
X159025518Y-47629188D01*
X158905820Y-47665498D01*
X158795506Y-47724463D01*
X158698815Y-47803815D01*
X158619463Y-47900506D01*
X158615357Y-47908188D01*
X158552247Y-47874454D01*
X158508189Y-47861089D01*
X158461185Y-47803815D01*
X158364494Y-47724463D01*
X158254180Y-47665498D01*
X158134482Y-47629188D01*
X158010000Y-47616928D01*
X156950000Y-47616928D01*
X156825518Y-47629188D01*
X156705820Y-47665498D01*
X156595506Y-47724463D01*
X156498815Y-47803815D01*
X156485532Y-47820000D01*
X154408780Y-47820000D01*
X154399497Y-47812382D01*
X154250283Y-47732625D01*
X154088377Y-47683512D01*
X153920000Y-47666928D01*
X153420000Y-47666928D01*
X153251623Y-47683512D01*
X153089717Y-47732625D01*
X152940503Y-47812382D01*
X152809716Y-47919716D01*
X152702382Y-48050503D01*
X152622625Y-48199717D01*
X152573512Y-48361623D01*
X152556928Y-48530000D01*
X148080000Y-48530000D01*
X148080000Y-48297323D01*
X148083676Y-48260000D01*
X148080000Y-48222677D01*
X148080000Y-48222667D01*
X148069003Y-48111014D01*
X148025546Y-47967753D01*
X148013398Y-47945026D01*
X147954974Y-47835723D01*
X147883799Y-47748997D01*
X147860001Y-47719999D01*
X147831004Y-47696202D01*
X147078803Y-46944002D01*
X147055001Y-46914999D01*
X146993072Y-46864175D01*
X146993072Y-46680000D01*
X146980812Y-46555518D01*
X146944502Y-46435820D01*
X146885537Y-46325506D01*
X146806185Y-46228815D01*
X146709494Y-46149463D01*
X146599180Y-46090498D01*
X146479482Y-46054188D01*
X146465000Y-46052762D01*
X146465000Y-43341544D01*
X146483158Y-43337932D01*
X146753411Y-43225990D01*
X146996632Y-43063475D01*
X147203475Y-42856632D01*
X147365990Y-42613411D01*
X147477932Y-42343158D01*
X147535000Y-42056260D01*
X147535000Y-41763740D01*
X147477932Y-41476842D01*
X147365990Y-41206589D01*
X147203475Y-40963368D01*
X146996632Y-40756525D01*
X146822240Y-40640000D01*
X146996632Y-40523475D01*
X147203475Y-40316632D01*
X147320000Y-40142240D01*
X147436525Y-40316632D01*
X147643368Y-40523475D01*
X147886589Y-40685990D01*
X148156842Y-40797932D01*
X148443740Y-40855000D01*
X148736260Y-40855000D01*
X149023158Y-40797932D01*
X149293411Y-40685990D01*
X149536632Y-40523475D01*
X149743475Y-40316632D01*
X149905990Y-40073411D01*
X150017932Y-39803158D01*
X150044527Y-39669456D01*
X150125139Y-39653421D01*
X150125139Y-40177816D01*
X150121463Y-40215139D01*
X150125139Y-40252461D01*
X150125139Y-40252471D01*
X150136136Y-40364124D01*
X150166992Y-40465843D01*
X150179593Y-40507385D01*
X150250165Y-40639415D01*
X150288389Y-40685990D01*
X150345138Y-40755140D01*
X150358793Y-40766346D01*
X150369999Y-40780001D01*
X150485724Y-40874974D01*
X150617753Y-40945546D01*
X150722315Y-40977264D01*
X150798759Y-41040000D01*
X150708815Y-41113815D01*
X150629463Y-41210506D01*
X150570498Y-41320820D01*
X150534188Y-41440518D01*
X150521928Y-41565000D01*
X150521928Y-41880000D01*
X149802322Y-41880000D01*
X149764999Y-41876324D01*
X149727676Y-41880000D01*
X149727667Y-41880000D01*
X149616014Y-41890997D01*
X149472753Y-41934454D01*
X149340724Y-42005026D01*
X149224999Y-42099999D01*
X149201201Y-42128997D01*
X149095624Y-42234574D01*
X148947166Y-42264104D01*
X148773822Y-42335905D01*
X148617816Y-42440145D01*
X148485145Y-42572816D01*
X148380905Y-42728822D01*
X148309104Y-42902166D01*
X148272500Y-43086187D01*
X148272500Y-43273813D01*
X148309104Y-43457834D01*
X148356572Y-43572432D01*
X148352002Y-43583465D01*
X148232834Y-43534104D01*
X148048813Y-43497500D01*
X147861187Y-43497500D01*
X147677166Y-43534104D01*
X147503822Y-43605905D01*
X147347816Y-43710145D01*
X147215145Y-43842816D01*
X147110905Y-43998822D01*
X147039104Y-44172166D01*
X147002500Y-44356187D01*
X147002500Y-44543813D01*
X147039104Y-44727834D01*
X147110905Y-44901178D01*
X147215145Y-45057184D01*
X147347816Y-45189855D01*
X147503822Y-45294095D01*
X147677166Y-45365896D01*
X147825625Y-45395426D01*
X147831196Y-45400997D01*
X147854999Y-45430001D01*
X147922689Y-45485553D01*
X147970723Y-45524974D01*
X148061957Y-45573740D01*
X148102753Y-45595546D01*
X148246014Y-45639003D01*
X148357667Y-45650000D01*
X148357677Y-45650000D01*
X148395000Y-45653676D01*
X148432323Y-45650000D01*
X152496928Y-45650000D01*
X152496928Y-45690000D01*
X152509188Y-45814482D01*
X152545498Y-45934180D01*
X152604463Y-46044494D01*
X152683815Y-46141185D01*
X152780506Y-46220537D01*
X152890820Y-46279502D01*
X153010518Y-46315812D01*
X153135000Y-46328072D01*
X153353817Y-46328072D01*
X153389104Y-46505474D01*
X153460905Y-46678818D01*
X153565145Y-46834824D01*
X153697816Y-46967495D01*
X153853822Y-47071735D01*
X154027166Y-47143536D01*
X154211187Y-47180140D01*
X154398813Y-47180140D01*
X154582834Y-47143536D01*
X154756178Y-47071735D01*
X154912184Y-46967495D01*
X155044855Y-46834824D01*
X155149095Y-46678818D01*
X155220896Y-46505474D01*
X155256183Y-46328072D01*
X155258817Y-46328072D01*
X155294104Y-46505474D01*
X155365905Y-46678818D01*
X155470145Y-46834824D01*
X155602816Y-46967495D01*
X155758822Y-47071735D01*
X155932166Y-47143536D01*
X156116187Y-47180140D01*
X156303813Y-47180140D01*
X156487834Y-47143536D01*
X156661178Y-47071735D01*
X156817184Y-46967495D01*
X156949855Y-46834824D01*
X157054095Y-46678818D01*
X157093608Y-46583424D01*
X157122272Y-46652625D01*
X157226512Y-46808631D01*
X157359183Y-46941302D01*
X157515189Y-47045542D01*
X157688533Y-47117343D01*
X157872554Y-47153947D01*
X158060180Y-47153947D01*
X158244201Y-47117343D01*
X158326961Y-47083063D01*
X158472957Y-47143536D01*
X158656978Y-47180140D01*
X158844604Y-47180140D01*
X159028625Y-47143536D01*
X159201969Y-47071735D01*
X159357975Y-46967495D01*
X159490646Y-46834824D01*
X159594886Y-46678818D01*
X159666687Y-46505474D01*
X159703291Y-46321453D01*
X159703291Y-46283605D01*
X159715546Y-46260678D01*
X159759003Y-46117417D01*
X159759455Y-46112831D01*
X159815537Y-46044494D01*
X159874502Y-45934180D01*
X159910812Y-45814482D01*
X159923072Y-45690000D01*
X159923072Y-45677722D01*
X160046483Y-45801133D01*
X160202489Y-45905373D01*
X160375833Y-45977174D01*
X160559854Y-46013778D01*
X160747480Y-46013778D01*
X160931501Y-45977174D01*
X161104845Y-45905373D01*
X161260851Y-45801133D01*
X161393522Y-45668462D01*
X161497762Y-45512456D01*
X161569563Y-45339112D01*
X161606167Y-45155091D01*
X161606167Y-44967465D01*
X161569563Y-44783444D01*
X161497762Y-44610100D01*
X161393522Y-44454094D01*
X161289586Y-44350158D01*
X161384482Y-44340812D01*
X161504180Y-44304502D01*
X161614494Y-44245537D01*
X161711185Y-44166185D01*
X161790537Y-44069494D01*
X161849502Y-43959180D01*
X161885812Y-43839482D01*
X161898072Y-43715000D01*
X161898072Y-43165000D01*
X161885812Y-43040518D01*
X161885655Y-43040000D01*
X161885812Y-43039482D01*
X161898072Y-42915000D01*
X161898072Y-42365000D01*
X161885812Y-42240518D01*
X161849502Y-42120820D01*
X161790537Y-42010506D01*
X161711185Y-41913815D01*
X161621241Y-41840000D01*
X161697685Y-41777264D01*
X161802247Y-41745546D01*
X161934276Y-41674974D01*
X162050001Y-41580001D01*
X162073804Y-41550997D01*
X162435997Y-41188804D01*
X162465001Y-41165001D01*
X162559974Y-41049276D01*
X162630546Y-40917247D01*
X162674003Y-40773986D01*
X162685000Y-40662333D01*
X162688677Y-40625000D01*
X162685000Y-40587667D01*
X162685000Y-40065458D01*
X162688409Y-40030842D01*
X163004500Y-40346934D01*
X163004501Y-43139440D01*
X163000506Y-43180000D01*
X163016445Y-43341826D01*
X163063647Y-43497433D01*
X163140301Y-43640842D01*
X163197177Y-43710145D01*
X163243460Y-43766541D01*
X163274961Y-43792393D01*
X164487606Y-45005039D01*
X164513459Y-45036541D01*
X164564755Y-45078638D01*
X164639157Y-45139699D01*
X164676872Y-45159858D01*
X164782566Y-45216353D01*
X164938174Y-45263556D01*
X165059447Y-45275500D01*
X165059449Y-45275500D01*
X165099999Y-45279494D01*
X165140550Y-45275500D01*
X165255857Y-45275500D01*
X165294201Y-45332886D01*
X165487114Y-45525799D01*
X165713957Y-45677371D01*
X165966011Y-45781775D01*
X166233589Y-45835000D01*
X166506411Y-45835000D01*
X166773989Y-45781775D01*
X167026043Y-45677371D01*
X167252886Y-45525799D01*
X167445799Y-45332886D01*
X167597371Y-45106043D01*
X167701775Y-44853989D01*
X167755000Y-44586411D01*
X167755000Y-44313589D01*
X167701775Y-44046011D01*
X167684995Y-44005500D01*
X169364450Y-44005500D01*
X169405000Y-44009494D01*
X169445550Y-44005500D01*
X169445553Y-44005500D01*
X169566826Y-43993556D01*
X169722434Y-43946353D01*
X169865842Y-43869699D01*
X169991541Y-43766541D01*
X170017397Y-43735035D01*
X170259361Y-43493072D01*
X170430000Y-43493072D01*
X170598377Y-43476488D01*
X170760283Y-43427375D01*
X170909497Y-43347618D01*
X171040284Y-43240284D01*
X171147618Y-43109497D01*
X171227375Y-42960283D01*
X171276488Y-42798377D01*
X171293072Y-42630000D01*
X171293072Y-42180000D01*
X171276488Y-42011623D01*
X171227375Y-41849717D01*
X171147618Y-41700503D01*
X171040284Y-41569716D01*
X170909497Y-41462382D01*
X170760283Y-41382625D01*
X170598377Y-41333512D01*
X170430000Y-41316928D01*
X169930000Y-41316928D01*
X169761623Y-41333512D01*
X169599717Y-41382625D01*
X169450503Y-41462382D01*
X169319716Y-41569716D01*
X169212382Y-41700503D01*
X169132625Y-41849717D01*
X169083512Y-42011623D01*
X169066928Y-42180000D01*
X169066928Y-42350639D01*
X169063067Y-42354500D01*
X167045550Y-42354500D01*
X167005000Y-42350506D01*
X166964449Y-42354500D01*
X166964447Y-42354500D01*
X166843174Y-42366444D01*
X166687566Y-42413647D01*
X166544157Y-42490301D01*
X166449958Y-42567608D01*
X166449957Y-42567609D01*
X166418459Y-42593459D01*
X166392610Y-42624956D01*
X165852201Y-43165366D01*
X165713957Y-43222629D01*
X165487114Y-43374201D01*
X165339374Y-43521941D01*
X164655500Y-42838068D01*
X164655500Y-40395500D01*
X165255857Y-40395500D01*
X165294201Y-40452886D01*
X165487114Y-40645799D01*
X165713957Y-40797371D01*
X165966011Y-40901775D01*
X166233589Y-40955000D01*
X166506411Y-40955000D01*
X166773989Y-40901775D01*
X167026043Y-40797371D01*
X167252886Y-40645799D01*
X167445799Y-40452886D01*
X167597371Y-40226043D01*
X167610022Y-40195500D01*
X169644450Y-40195500D01*
X169685000Y-40199494D01*
X169725550Y-40195500D01*
X169725553Y-40195500D01*
X169846826Y-40183556D01*
X170002434Y-40136353D01*
X170145842Y-40059699D01*
X170263583Y-39963072D01*
X170430000Y-39963072D01*
X170598377Y-39946488D01*
X170760283Y-39897375D01*
X170909497Y-39817618D01*
X171040284Y-39710284D01*
X171147618Y-39579497D01*
X171227375Y-39430283D01*
X171276488Y-39268377D01*
X171293072Y-39100000D01*
X171293072Y-38650000D01*
X171276488Y-38481623D01*
X171227375Y-38319717D01*
X171147618Y-38170503D01*
X171040284Y-38039716D01*
X170909497Y-37932382D01*
X170760283Y-37852625D01*
X170598377Y-37803512D01*
X170430000Y-37786928D01*
X169930000Y-37786928D01*
X169761623Y-37803512D01*
X169599717Y-37852625D01*
X169450503Y-37932382D01*
X169319716Y-38039716D01*
X169212382Y-38170503D01*
X169132625Y-38319717D01*
X169083512Y-38481623D01*
X169077319Y-38544500D01*
X167303185Y-38544500D01*
X167252886Y-38494201D01*
X167026043Y-38342629D01*
X166773989Y-38238225D01*
X166506411Y-38185000D01*
X166233589Y-38185000D01*
X165966011Y-38238225D01*
X165713957Y-38342629D01*
X165487114Y-38494201D01*
X165294201Y-38687114D01*
X165255857Y-38744500D01*
X164487695Y-38744500D01*
X163028160Y-37284966D01*
X163002303Y-37253459D01*
X162876604Y-37150301D01*
X162733196Y-37073647D01*
X162577588Y-37026444D01*
X162456315Y-37014500D01*
X162456312Y-37014500D01*
X162415762Y-37010506D01*
X162375212Y-37014500D01*
X161577146Y-37014500D01*
X161504180Y-36975498D01*
X161384482Y-36939188D01*
X161260000Y-36926928D01*
X159923072Y-36926928D01*
X159923072Y-35590000D01*
X159910812Y-35465518D01*
X159874502Y-35345820D01*
X159815537Y-35235506D01*
X159770000Y-35180019D01*
X159770000Y-34587325D01*
X159773676Y-34550000D01*
X159770000Y-34512675D01*
X159770000Y-34512667D01*
X159767157Y-34483799D01*
X159873740Y-34505000D01*
X160166260Y-34505000D01*
X160386408Y-34461209D01*
X161040735Y-35115537D01*
X160982666Y-35255729D01*
X160946062Y-35439750D01*
X160946062Y-35627376D01*
X160982666Y-35811397D01*
X161054467Y-35984741D01*
X161158707Y-36140747D01*
X161291378Y-36273418D01*
X161447384Y-36377658D01*
X161620728Y-36449459D01*
X161804749Y-36486063D01*
X161992375Y-36486063D01*
X162176396Y-36449459D01*
X162272300Y-36409734D01*
X162432029Y-36475896D01*
X162616050Y-36512500D01*
X162803676Y-36512500D01*
X162987697Y-36475896D01*
X163161041Y-36404095D01*
X163317047Y-36299855D01*
X163449718Y-36167184D01*
X163553958Y-36011178D01*
X163625759Y-35837834D01*
X163662363Y-35653813D01*
X163662363Y-35466187D01*
X163625759Y-35282166D01*
X163553958Y-35108822D01*
X163449718Y-34952816D01*
X163320000Y-34823098D01*
X163320000Y-34298178D01*
X163506632Y-34173475D01*
X163713475Y-33966632D01*
X163830000Y-33792240D01*
X163946525Y-33966632D01*
X164153368Y-34173475D01*
X164340001Y-34298179D01*
X164340001Y-34982964D01*
X164255905Y-35108822D01*
X164184104Y-35282166D01*
X164147500Y-35466187D01*
X164147500Y-35653813D01*
X164184104Y-35837834D01*
X164255905Y-36011178D01*
X164360145Y-36167184D01*
X164492816Y-36299855D01*
X164648822Y-36404095D01*
X164822166Y-36475896D01*
X165006187Y-36512500D01*
X165193813Y-36512500D01*
X165377834Y-36475896D01*
X165551178Y-36404095D01*
X165707184Y-36299855D01*
X165839855Y-36167184D01*
X165944095Y-36011178D01*
X166015896Y-35837834D01*
X166052500Y-35653813D01*
X166052500Y-35466187D01*
X166015896Y-35282166D01*
X165944095Y-35108822D01*
X165860000Y-34982965D01*
X165860000Y-34298178D01*
X166046632Y-34173475D01*
X166253475Y-33966632D01*
X166370000Y-33792240D01*
X166486525Y-33966632D01*
X166587037Y-34067144D01*
X166553816Y-34080905D01*
X166397810Y-34185145D01*
X166265139Y-34317816D01*
X166160899Y-34473822D01*
X166089098Y-34647166D01*
X166052494Y-34831187D01*
X166052494Y-35018813D01*
X166089098Y-35202834D01*
X166160899Y-35376178D01*
X166265139Y-35532184D01*
X166397810Y-35664855D01*
X166553816Y-35769095D01*
X166727160Y-35840896D01*
X166911181Y-35877500D01*
X167098807Y-35877500D01*
X167282828Y-35840896D01*
X167456172Y-35769095D01*
X167612178Y-35664855D01*
X167744849Y-35532184D01*
X167849089Y-35376178D01*
X167920890Y-35202834D01*
X167950420Y-35054375D01*
X168151002Y-34853794D01*
X168180001Y-34829995D01*
X168224302Y-34776014D01*
X168274974Y-34714271D01*
X168345546Y-34582241D01*
X168362870Y-34525129D01*
X168389003Y-34438980D01*
X168400000Y-34327327D01*
X168400000Y-34327318D01*
X168403072Y-34296126D01*
X168586632Y-34173475D01*
X168793475Y-33966632D01*
X168910000Y-33792240D01*
X169026525Y-33966632D01*
X169233368Y-34173475D01*
X169476589Y-34335990D01*
X169746842Y-34447932D01*
X170033740Y-34505000D01*
X170326260Y-34505000D01*
X170613158Y-34447932D01*
X170883411Y-34335990D01*
X171126632Y-34173475D01*
X171333475Y-33966632D01*
X171458178Y-33780000D01*
X171507965Y-33780000D01*
X171633822Y-33864095D01*
X171807166Y-33935896D01*
X171991187Y-33972500D01*
X172178813Y-33972500D01*
X172362834Y-33935896D01*
X172536178Y-33864095D01*
X172692184Y-33759855D01*
X172695001Y-33757038D01*
X172695000Y-55847721D01*
%TA.AperFunction,Conductor*%
D21*
G36*
X172695000Y-55847721D02*
G01*
X172656091Y-56244545D01*
X172550220Y-56595206D01*
X172378257Y-56918623D01*
X172146748Y-57202482D01*
X171864514Y-57435965D01*
X171542304Y-57610184D01*
X171192385Y-57718502D01*
X170797557Y-57760000D01*
X152229801Y-57760000D01*
X154181004Y-55808798D01*
X154210001Y-55785001D01*
X154304974Y-55669276D01*
X154375546Y-55537247D01*
X154419003Y-55393986D01*
X154430000Y-55282333D01*
X154430000Y-55282324D01*
X154433676Y-55245001D01*
X154430000Y-55207678D01*
X154430000Y-55045916D01*
X154497525Y-54990500D01*
X156668719Y-54990500D01*
X156750503Y-55057618D01*
X156899717Y-55137375D01*
X157061623Y-55186488D01*
X157230000Y-55203072D01*
X157730000Y-55203072D01*
X157898377Y-55186488D01*
X158060283Y-55137375D01*
X158209497Y-55057618D01*
X158340284Y-54950284D01*
X158348314Y-54940500D01*
X159151686Y-54940500D01*
X159159716Y-54950284D01*
X159290503Y-55057618D01*
X159439717Y-55137375D01*
X159601623Y-55186488D01*
X159770000Y-55203072D01*
X160270000Y-55203072D01*
X160438377Y-55186488D01*
X160600283Y-55137375D01*
X160749497Y-55057618D01*
X160880284Y-54950284D01*
X160987618Y-54819497D01*
X160989754Y-54815500D01*
X163488068Y-54815500D01*
X164472606Y-55800039D01*
X164498459Y-55831541D01*
X164560319Y-55882308D01*
X164624157Y-55934699D01*
X164697334Y-55973813D01*
X164767566Y-56011353D01*
X164923174Y-56058556D01*
X165044447Y-56070500D01*
X165044449Y-56070500D01*
X165084999Y-56074494D01*
X165125550Y-56070500D01*
X168234450Y-56070500D01*
X168275000Y-56074494D01*
X168315550Y-56070500D01*
X168315553Y-56070500D01*
X168436826Y-56058556D01*
X168592434Y-56011353D01*
X168735842Y-55934699D01*
X168861541Y-55831541D01*
X168887397Y-55800035D01*
X168964360Y-55723072D01*
X169135000Y-55723072D01*
X169303377Y-55706488D01*
X169465283Y-55657375D01*
X169614497Y-55577618D01*
X169745284Y-55470284D01*
X169852618Y-55339497D01*
X169932375Y-55190283D01*
X169981488Y-55028377D01*
X169998072Y-54860000D01*
X169998072Y-54360000D01*
X169981488Y-54191623D01*
X169932375Y-54029717D01*
X169852618Y-53880503D01*
X169745284Y-53749716D01*
X169735500Y-53741686D01*
X169735500Y-51668314D01*
X169745284Y-51660284D01*
X169852618Y-51529497D01*
X169932375Y-51380283D01*
X169981488Y-51218377D01*
X169998072Y-51050000D01*
X169998072Y-50550000D01*
X169981488Y-50381623D01*
X169932375Y-50219717D01*
X169852618Y-50070503D01*
X169745284Y-49939716D01*
X169614497Y-49832382D01*
X169465283Y-49752625D01*
X169303377Y-49703512D01*
X169135000Y-49686928D01*
X168685000Y-49686928D01*
X168516623Y-49703512D01*
X168354717Y-49752625D01*
X168205503Y-49832382D01*
X168074716Y-49939716D01*
X167967382Y-50070503D01*
X167887625Y-50219717D01*
X167838512Y-50381623D01*
X167821928Y-50550000D01*
X167821928Y-51050000D01*
X167838512Y-51218377D01*
X167887625Y-51380283D01*
X167967382Y-51529497D01*
X168074716Y-51660284D01*
X168084500Y-51668314D01*
X168084501Y-53741686D01*
X168074716Y-53749716D01*
X167967382Y-53880503D01*
X167887625Y-54029717D01*
X167838512Y-54191623D01*
X167821928Y-54360000D01*
X167821928Y-54419500D01*
X165426933Y-54419500D01*
X164442398Y-53434966D01*
X164416541Y-53403459D01*
X164290842Y-53300301D01*
X164147434Y-53223647D01*
X163991826Y-53176444D01*
X163870553Y-53164500D01*
X163870550Y-53164500D01*
X163830000Y-53160506D01*
X163789450Y-53164500D01*
X160734751Y-53164500D01*
X160600283Y-53092625D01*
X160438377Y-53043512D01*
X160270000Y-53026928D01*
X159770000Y-53026928D01*
X159601623Y-53043512D01*
X159439717Y-53092625D01*
X159290503Y-53172382D01*
X159159716Y-53279716D01*
X159151686Y-53289500D01*
X158348314Y-53289500D01*
X158340284Y-53279716D01*
X158209497Y-53172382D01*
X158060283Y-53092625D01*
X157898377Y-53043512D01*
X157730000Y-53026928D01*
X157230000Y-53026928D01*
X157061623Y-53043512D01*
X156899717Y-53092625D01*
X156750503Y-53172382D01*
X156619716Y-53279716D01*
X156570653Y-53339500D01*
X154498743Y-53339500D01*
X154537606Y-53307606D01*
X154641831Y-53180608D01*
X154719278Y-53035716D01*
X154766969Y-52878500D01*
X154783072Y-52715000D01*
X154783072Y-52476730D01*
X154872302Y-52387500D01*
X155033813Y-52387500D01*
X155217834Y-52350896D01*
X155391178Y-52279095D01*
X155547184Y-52174855D01*
X155679855Y-52042184D01*
X155784095Y-51886178D01*
X155855896Y-51712834D01*
X155892500Y-51528813D01*
X155892500Y-51341187D01*
X155855896Y-51157166D01*
X155784095Y-50983822D01*
X155679855Y-50827816D01*
X155547184Y-50695145D01*
X155391178Y-50590905D01*
X155217834Y-50519104D01*
X155033813Y-50482500D01*
X154846187Y-50482500D01*
X154662166Y-50519104D01*
X154488822Y-50590905D01*
X154332816Y-50695145D01*
X154200145Y-50827816D01*
X154095905Y-50983822D01*
X154074359Y-51035839D01*
X153633271Y-51476928D01*
X153395000Y-51476928D01*
X153231500Y-51493031D01*
X153074284Y-51540722D01*
X152929392Y-51618169D01*
X152802394Y-51722394D01*
X152778533Y-51751468D01*
X152742676Y-51755000D01*
X152742667Y-51755000D01*
X152631014Y-51765997D01*
X152487753Y-51809454D01*
X152355724Y-51880026D01*
X152239999Y-51974999D01*
X152216196Y-52004003D01*
X151888998Y-52331201D01*
X151860000Y-52354999D01*
X151836202Y-52383997D01*
X151836201Y-52383998D01*
X151765026Y-52470724D01*
X151694454Y-52602754D01*
X151650998Y-52746015D01*
X151636324Y-52895000D01*
X151640001Y-52932332D01*
X151640000Y-55565198D01*
X150879940Y-56325259D01*
X147690061Y-56325259D01*
X146993072Y-55628271D01*
X146993072Y-55201729D01*
X147831003Y-54363799D01*
X147860001Y-54340001D01*
X147954974Y-54224276D01*
X148025546Y-54092247D01*
X148069003Y-53948986D01*
X148080000Y-53837333D01*
X148080000Y-53837325D01*
X148083676Y-53800000D01*
X148080000Y-53762675D01*
X148080000Y-48530000D01*
X152556928Y-48530000D01*
X152556928Y-48980000D01*
X152573512Y-49148377D01*
X152622625Y-49310283D01*
X152702382Y-49459497D01*
X152809716Y-49590284D01*
X152940503Y-49697618D01*
X153089717Y-49777375D01*
X153251623Y-49826488D01*
X153420000Y-49843072D01*
X153920000Y-49843072D01*
X154088377Y-49826488D01*
X154250283Y-49777375D01*
X154399497Y-49697618D01*
X154530284Y-49590284D01*
X154637618Y-49459497D01*
X154701491Y-49340000D01*
X156485532Y-49340000D01*
X156498815Y-49356185D01*
X156595506Y-49435537D01*
X156705820Y-49494502D01*
X156822841Y-49530000D01*
X156705820Y-49565498D01*
X156595506Y-49624463D01*
X156498815Y-49703815D01*
X156419463Y-49800506D01*
X156360498Y-49910820D01*
X156324188Y-50030518D01*
X156311928Y-50155000D01*
X156311928Y-50805000D01*
X156324188Y-50929482D01*
X156360498Y-51049180D01*
X156419463Y-51159494D01*
X156498815Y-51256185D01*
X156595506Y-51335537D01*
X156705820Y-51394502D01*
X156825518Y-51430812D01*
X156950000Y-51443072D01*
X157368271Y-51443072D01*
X157871201Y-51946003D01*
X157894999Y-51975001D01*
X157923997Y-51998799D01*
X158010723Y-52069974D01*
X158125498Y-52131323D01*
X158142753Y-52140546D01*
X158286014Y-52184003D01*
X158397667Y-52195000D01*
X158397677Y-52195000D01*
X158435000Y-52198676D01*
X158472323Y-52195000D01*
X160712965Y-52195000D01*
X160838822Y-52279095D01*
X161012166Y-52350896D01*
X161196187Y-52387500D01*
X161383813Y-52387500D01*
X161567834Y-52350896D01*
X161741178Y-52279095D01*
X161897184Y-52174855D01*
X162029855Y-52042184D01*
X162134095Y-51886178D01*
X162205896Y-51712834D01*
X162242500Y-51528813D01*
X162242500Y-51341187D01*
X162205896Y-51157166D01*
X162134095Y-50983822D01*
X162036660Y-50838000D01*
X162519450Y-50838000D01*
X162560000Y-50841994D01*
X162600550Y-50838000D01*
X162600553Y-50838000D01*
X162721826Y-50826056D01*
X162877434Y-50778853D01*
X163020842Y-50702199D01*
X163092889Y-50643072D01*
X163261250Y-50643072D01*
X163428408Y-50626608D01*
X163589142Y-50577850D01*
X163737275Y-50498671D01*
X163830000Y-50422574D01*
X163922725Y-50498671D01*
X164070858Y-50577850D01*
X164231592Y-50626608D01*
X164398750Y-50643072D01*
X164836250Y-50643072D01*
X165003408Y-50626608D01*
X165164142Y-50577850D01*
X165312275Y-50498671D01*
X165442115Y-50392115D01*
X165525918Y-50290000D01*
X166332678Y-50290000D01*
X166370000Y-50293676D01*
X166407322Y-50290000D01*
X166407333Y-50290000D01*
X166518986Y-50279003D01*
X166662247Y-50235546D01*
X166794276Y-50164974D01*
X166910001Y-50070001D01*
X166933804Y-50040997D01*
X168399802Y-48575000D01*
X169285635Y-48575000D01*
X169312394Y-48607606D01*
X169439392Y-48711831D01*
X169584284Y-48789278D01*
X169741500Y-48836969D01*
X169905000Y-48853072D01*
X170455000Y-48853072D01*
X170618500Y-48836969D01*
X170775716Y-48789278D01*
X170920608Y-48711831D01*
X171047606Y-48607606D01*
X171151831Y-48480608D01*
X171229278Y-48335716D01*
X171276969Y-48178500D01*
X171293072Y-48015000D01*
X171293072Y-47615000D01*
X171276969Y-47451500D01*
X171229278Y-47294284D01*
X171151831Y-47149392D01*
X171047606Y-47022394D01*
X170920608Y-46918169D01*
X170775716Y-46840722D01*
X170618500Y-46793031D01*
X170455000Y-46776928D01*
X169905000Y-46776928D01*
X169741500Y-46793031D01*
X169584284Y-46840722D01*
X169439392Y-46918169D01*
X169312394Y-47022394D01*
X169285635Y-47055000D01*
X168122322Y-47055000D01*
X168084999Y-47051324D01*
X168047676Y-47055000D01*
X168047667Y-47055000D01*
X167936014Y-47065997D01*
X167792753Y-47109454D01*
X167660724Y-47180026D01*
X167544999Y-47274999D01*
X167521201Y-47303997D01*
X166055199Y-48770000D01*
X165525918Y-48770000D01*
X165442115Y-48667885D01*
X165312275Y-48561329D01*
X165164142Y-48482150D01*
X165003408Y-48433392D01*
X164836250Y-48416928D01*
X164398750Y-48416928D01*
X164231592Y-48433392D01*
X164070858Y-48482150D01*
X163922725Y-48561329D01*
X163830000Y-48637426D01*
X163737275Y-48561329D01*
X163589142Y-48482150D01*
X163428408Y-48433392D01*
X163261250Y-48416928D01*
X162823750Y-48416928D01*
X162656592Y-48433392D01*
X162495858Y-48482150D01*
X162347725Y-48561329D01*
X162217885Y-48667885D01*
X162111329Y-48797725D01*
X162032150Y-48945858D01*
X161995177Y-49067743D01*
X160952398Y-48024966D01*
X160926541Y-47993459D01*
X160800842Y-47890301D01*
X160678491Y-47824902D01*
X160661185Y-47803815D01*
X160564494Y-47724463D01*
X160454180Y-47665498D01*
X160334482Y-47629188D01*
X160210000Y-47616928D01*
X159150000Y-47616928D01*
X159025518Y-47629188D01*
X158905820Y-47665498D01*
X158795506Y-47724463D01*
X158698815Y-47803815D01*
X158619463Y-47900506D01*
X158615357Y-47908188D01*
X158552247Y-47874454D01*
X158508189Y-47861089D01*
X158461185Y-47803815D01*
X158364494Y-47724463D01*
X158254180Y-47665498D01*
X158134482Y-47629188D01*
X158010000Y-47616928D01*
X156950000Y-47616928D01*
X156825518Y-47629188D01*
X156705820Y-47665498D01*
X156595506Y-47724463D01*
X156498815Y-47803815D01*
X156485532Y-47820000D01*
X154408780Y-47820000D01*
X154399497Y-47812382D01*
X154250283Y-47732625D01*
X154088377Y-47683512D01*
X153920000Y-47666928D01*
X153420000Y-47666928D01*
X153251623Y-47683512D01*
X153089717Y-47732625D01*
X152940503Y-47812382D01*
X152809716Y-47919716D01*
X152702382Y-48050503D01*
X152622625Y-48199717D01*
X152573512Y-48361623D01*
X152556928Y-48530000D01*
X148080000Y-48530000D01*
X148080000Y-48297323D01*
X148083676Y-48260000D01*
X148080000Y-48222677D01*
X148080000Y-48222667D01*
X148069003Y-48111014D01*
X148025546Y-47967753D01*
X148013398Y-47945026D01*
X147954974Y-47835723D01*
X147883799Y-47748997D01*
X147860001Y-47719999D01*
X147831004Y-47696202D01*
X147078803Y-46944002D01*
X147055001Y-46914999D01*
X146993072Y-46864175D01*
X146993072Y-46680000D01*
X146980812Y-46555518D01*
X146944502Y-46435820D01*
X146885537Y-46325506D01*
X146806185Y-46228815D01*
X146709494Y-46149463D01*
X146599180Y-46090498D01*
X146479482Y-46054188D01*
X146465000Y-46052762D01*
X146465000Y-43341544D01*
X146483158Y-43337932D01*
X146753411Y-43225990D01*
X146996632Y-43063475D01*
X147203475Y-42856632D01*
X147365990Y-42613411D01*
X147477932Y-42343158D01*
X147535000Y-42056260D01*
X147535000Y-41763740D01*
X147477932Y-41476842D01*
X147365990Y-41206589D01*
X147203475Y-40963368D01*
X146996632Y-40756525D01*
X146822240Y-40640000D01*
X146996632Y-40523475D01*
X147203475Y-40316632D01*
X147320000Y-40142240D01*
X147436525Y-40316632D01*
X147643368Y-40523475D01*
X147886589Y-40685990D01*
X148156842Y-40797932D01*
X148443740Y-40855000D01*
X148736260Y-40855000D01*
X149023158Y-40797932D01*
X149293411Y-40685990D01*
X149536632Y-40523475D01*
X149743475Y-40316632D01*
X149905990Y-40073411D01*
X150017932Y-39803158D01*
X150044527Y-39669456D01*
X150125139Y-39653421D01*
X150125139Y-40177816D01*
X150121463Y-40215139D01*
X150125139Y-40252461D01*
X150125139Y-40252471D01*
X150136136Y-40364124D01*
X150166992Y-40465843D01*
X150179593Y-40507385D01*
X150250165Y-40639415D01*
X150288389Y-40685990D01*
X150345138Y-40755140D01*
X150358793Y-40766346D01*
X150369999Y-40780001D01*
X150485724Y-40874974D01*
X150617753Y-40945546D01*
X150722315Y-40977264D01*
X150798759Y-41040000D01*
X150708815Y-41113815D01*
X150629463Y-41210506D01*
X150570498Y-41320820D01*
X150534188Y-41440518D01*
X150521928Y-41565000D01*
X150521928Y-41880000D01*
X149802322Y-41880000D01*
X149764999Y-41876324D01*
X149727676Y-41880000D01*
X149727667Y-41880000D01*
X149616014Y-41890997D01*
X149472753Y-41934454D01*
X149340724Y-42005026D01*
X149224999Y-42099999D01*
X149201201Y-42128997D01*
X149095624Y-42234574D01*
X148947166Y-42264104D01*
X148773822Y-42335905D01*
X148617816Y-42440145D01*
X148485145Y-42572816D01*
X148380905Y-42728822D01*
X148309104Y-42902166D01*
X148272500Y-43086187D01*
X148272500Y-43273813D01*
X148309104Y-43457834D01*
X148356572Y-43572432D01*
X148352002Y-43583465D01*
X148232834Y-43534104D01*
X148048813Y-43497500D01*
X147861187Y-43497500D01*
X147677166Y-43534104D01*
X147503822Y-43605905D01*
X147347816Y-43710145D01*
X147215145Y-43842816D01*
X147110905Y-43998822D01*
X147039104Y-44172166D01*
X147002500Y-44356187D01*
X147002500Y-44543813D01*
X147039104Y-44727834D01*
X147110905Y-44901178D01*
X147215145Y-45057184D01*
X147347816Y-45189855D01*
X147503822Y-45294095D01*
X147677166Y-45365896D01*
X147825625Y-45395426D01*
X147831196Y-45400997D01*
X147854999Y-45430001D01*
X147922689Y-45485553D01*
X147970723Y-45524974D01*
X148061957Y-45573740D01*
X148102753Y-45595546D01*
X148246014Y-45639003D01*
X148357667Y-45650000D01*
X148357677Y-45650000D01*
X148395000Y-45653676D01*
X148432323Y-45650000D01*
X152496928Y-45650000D01*
X152496928Y-45690000D01*
X152509188Y-45814482D01*
X152545498Y-45934180D01*
X152604463Y-46044494D01*
X152683815Y-46141185D01*
X152780506Y-46220537D01*
X152890820Y-46279502D01*
X153010518Y-46315812D01*
X153135000Y-46328072D01*
X153353817Y-46328072D01*
X153389104Y-46505474D01*
X153460905Y-46678818D01*
X153565145Y-46834824D01*
X153697816Y-46967495D01*
X153853822Y-47071735D01*
X154027166Y-47143536D01*
X154211187Y-47180140D01*
X154398813Y-47180140D01*
X154582834Y-47143536D01*
X154756178Y-47071735D01*
X154912184Y-46967495D01*
X155044855Y-46834824D01*
X155149095Y-46678818D01*
X155220896Y-46505474D01*
X155256183Y-46328072D01*
X155258817Y-46328072D01*
X155294104Y-46505474D01*
X155365905Y-46678818D01*
X155470145Y-46834824D01*
X155602816Y-46967495D01*
X155758822Y-47071735D01*
X155932166Y-47143536D01*
X156116187Y-47180140D01*
X156303813Y-47180140D01*
X156487834Y-47143536D01*
X156661178Y-47071735D01*
X156817184Y-46967495D01*
X156949855Y-46834824D01*
X157054095Y-46678818D01*
X157093608Y-46583424D01*
X157122272Y-46652625D01*
X157226512Y-46808631D01*
X157359183Y-46941302D01*
X157515189Y-47045542D01*
X157688533Y-47117343D01*
X157872554Y-47153947D01*
X158060180Y-47153947D01*
X158244201Y-47117343D01*
X158326961Y-47083063D01*
X158472957Y-47143536D01*
X158656978Y-47180140D01*
X158844604Y-47180140D01*
X159028625Y-47143536D01*
X159201969Y-47071735D01*
X159357975Y-46967495D01*
X159490646Y-46834824D01*
X159594886Y-46678818D01*
X159666687Y-46505474D01*
X159703291Y-46321453D01*
X159703291Y-46283605D01*
X159715546Y-46260678D01*
X159759003Y-46117417D01*
X159759455Y-46112831D01*
X159815537Y-46044494D01*
X159874502Y-45934180D01*
X159910812Y-45814482D01*
X159923072Y-45690000D01*
X159923072Y-45677722D01*
X160046483Y-45801133D01*
X160202489Y-45905373D01*
X160375833Y-45977174D01*
X160559854Y-46013778D01*
X160747480Y-46013778D01*
X160931501Y-45977174D01*
X161104845Y-45905373D01*
X161260851Y-45801133D01*
X161393522Y-45668462D01*
X161497762Y-45512456D01*
X161569563Y-45339112D01*
X161606167Y-45155091D01*
X161606167Y-44967465D01*
X161569563Y-44783444D01*
X161497762Y-44610100D01*
X161393522Y-44454094D01*
X161289586Y-44350158D01*
X161384482Y-44340812D01*
X161504180Y-44304502D01*
X161614494Y-44245537D01*
X161711185Y-44166185D01*
X161790537Y-44069494D01*
X161849502Y-43959180D01*
X161885812Y-43839482D01*
X161898072Y-43715000D01*
X161898072Y-43165000D01*
X161885812Y-43040518D01*
X161885655Y-43040000D01*
X161885812Y-43039482D01*
X161898072Y-42915000D01*
X161898072Y-42365000D01*
X161885812Y-42240518D01*
X161849502Y-42120820D01*
X161790537Y-42010506D01*
X161711185Y-41913815D01*
X161621241Y-41840000D01*
X161697685Y-41777264D01*
X161802247Y-41745546D01*
X161934276Y-41674974D01*
X162050001Y-41580001D01*
X162073804Y-41550997D01*
X162435997Y-41188804D01*
X162465001Y-41165001D01*
X162559974Y-41049276D01*
X162630546Y-40917247D01*
X162674003Y-40773986D01*
X162685000Y-40662333D01*
X162688677Y-40625000D01*
X162685000Y-40587667D01*
X162685000Y-40065458D01*
X162688409Y-40030842D01*
X163004500Y-40346934D01*
X163004501Y-43139440D01*
X163000506Y-43180000D01*
X163016445Y-43341826D01*
X163063647Y-43497433D01*
X163140301Y-43640842D01*
X163197177Y-43710145D01*
X163243460Y-43766541D01*
X163274961Y-43792393D01*
X164487606Y-45005039D01*
X164513459Y-45036541D01*
X164564755Y-45078638D01*
X164639157Y-45139699D01*
X164676872Y-45159858D01*
X164782566Y-45216353D01*
X164938174Y-45263556D01*
X165059447Y-45275500D01*
X165059449Y-45275500D01*
X165099999Y-45279494D01*
X165140550Y-45275500D01*
X165255857Y-45275500D01*
X165294201Y-45332886D01*
X165487114Y-45525799D01*
X165713957Y-45677371D01*
X165966011Y-45781775D01*
X166233589Y-45835000D01*
X166506411Y-45835000D01*
X166773989Y-45781775D01*
X167026043Y-45677371D01*
X167252886Y-45525799D01*
X167445799Y-45332886D01*
X167597371Y-45106043D01*
X167701775Y-44853989D01*
X167755000Y-44586411D01*
X167755000Y-44313589D01*
X167701775Y-44046011D01*
X167684995Y-44005500D01*
X169364450Y-44005500D01*
X169405000Y-44009494D01*
X169445550Y-44005500D01*
X169445553Y-44005500D01*
X169566826Y-43993556D01*
X169722434Y-43946353D01*
X169865842Y-43869699D01*
X169991541Y-43766541D01*
X170017397Y-43735035D01*
X170259361Y-43493072D01*
X170430000Y-43493072D01*
X170598377Y-43476488D01*
X170760283Y-43427375D01*
X170909497Y-43347618D01*
X171040284Y-43240284D01*
X171147618Y-43109497D01*
X171227375Y-42960283D01*
X171276488Y-42798377D01*
X171293072Y-42630000D01*
X171293072Y-42180000D01*
X171276488Y-42011623D01*
X171227375Y-41849717D01*
X171147618Y-41700503D01*
X171040284Y-41569716D01*
X170909497Y-41462382D01*
X170760283Y-41382625D01*
X170598377Y-41333512D01*
X170430000Y-41316928D01*
X169930000Y-41316928D01*
X169761623Y-41333512D01*
X169599717Y-41382625D01*
X169450503Y-41462382D01*
X169319716Y-41569716D01*
X169212382Y-41700503D01*
X169132625Y-41849717D01*
X169083512Y-42011623D01*
X169066928Y-42180000D01*
X169066928Y-42350639D01*
X169063067Y-42354500D01*
X167045550Y-42354500D01*
X167005000Y-42350506D01*
X166964449Y-42354500D01*
X166964447Y-42354500D01*
X166843174Y-42366444D01*
X166687566Y-42413647D01*
X166544157Y-42490301D01*
X166449958Y-42567608D01*
X166449957Y-42567609D01*
X166418459Y-42593459D01*
X166392610Y-42624956D01*
X165852201Y-43165366D01*
X165713957Y-43222629D01*
X165487114Y-43374201D01*
X165339374Y-43521941D01*
X164655500Y-42838068D01*
X164655500Y-40395500D01*
X165255857Y-40395500D01*
X165294201Y-40452886D01*
X165487114Y-40645799D01*
X165713957Y-40797371D01*
X165966011Y-40901775D01*
X166233589Y-40955000D01*
X166506411Y-40955000D01*
X166773989Y-40901775D01*
X167026043Y-40797371D01*
X167252886Y-40645799D01*
X167445799Y-40452886D01*
X167597371Y-40226043D01*
X167610022Y-40195500D01*
X169644450Y-40195500D01*
X169685000Y-40199494D01*
X169725550Y-40195500D01*
X169725553Y-40195500D01*
X169846826Y-40183556D01*
X170002434Y-40136353D01*
X170145842Y-40059699D01*
X170263583Y-39963072D01*
X170430000Y-39963072D01*
X170598377Y-39946488D01*
X170760283Y-39897375D01*
X170909497Y-39817618D01*
X171040284Y-39710284D01*
X171147618Y-39579497D01*
X171227375Y-39430283D01*
X171276488Y-39268377D01*
X171293072Y-39100000D01*
X171293072Y-38650000D01*
X171276488Y-38481623D01*
X171227375Y-38319717D01*
X171147618Y-38170503D01*
X171040284Y-38039716D01*
X170909497Y-37932382D01*
X170760283Y-37852625D01*
X170598377Y-37803512D01*
X170430000Y-37786928D01*
X169930000Y-37786928D01*
X169761623Y-37803512D01*
X169599717Y-37852625D01*
X169450503Y-37932382D01*
X169319716Y-38039716D01*
X169212382Y-38170503D01*
X169132625Y-38319717D01*
X169083512Y-38481623D01*
X169077319Y-38544500D01*
X167303185Y-38544500D01*
X167252886Y-38494201D01*
X167026043Y-38342629D01*
X166773989Y-38238225D01*
X166506411Y-38185000D01*
X166233589Y-38185000D01*
X165966011Y-38238225D01*
X165713957Y-38342629D01*
X165487114Y-38494201D01*
X165294201Y-38687114D01*
X165255857Y-38744500D01*
X164487695Y-38744500D01*
X163028160Y-37284966D01*
X163002303Y-37253459D01*
X162876604Y-37150301D01*
X162733196Y-37073647D01*
X162577588Y-37026444D01*
X162456315Y-37014500D01*
X162456312Y-37014500D01*
X162415762Y-37010506D01*
X162375212Y-37014500D01*
X161577146Y-37014500D01*
X161504180Y-36975498D01*
X161384482Y-36939188D01*
X161260000Y-36926928D01*
X159923072Y-36926928D01*
X159923072Y-35590000D01*
X159910812Y-35465518D01*
X159874502Y-35345820D01*
X159815537Y-35235506D01*
X159770000Y-35180019D01*
X159770000Y-34587325D01*
X159773676Y-34550000D01*
X159770000Y-34512675D01*
X159770000Y-34512667D01*
X159767157Y-34483799D01*
X159873740Y-34505000D01*
X160166260Y-34505000D01*
X160386408Y-34461209D01*
X161040735Y-35115537D01*
X160982666Y-35255729D01*
X160946062Y-35439750D01*
X160946062Y-35627376D01*
X160982666Y-35811397D01*
X161054467Y-35984741D01*
X161158707Y-36140747D01*
X161291378Y-36273418D01*
X161447384Y-36377658D01*
X161620728Y-36449459D01*
X161804749Y-36486063D01*
X161992375Y-36486063D01*
X162176396Y-36449459D01*
X162272300Y-36409734D01*
X162432029Y-36475896D01*
X162616050Y-36512500D01*
X162803676Y-36512500D01*
X162987697Y-36475896D01*
X163161041Y-36404095D01*
X163317047Y-36299855D01*
X163449718Y-36167184D01*
X163553958Y-36011178D01*
X163625759Y-35837834D01*
X163662363Y-35653813D01*
X163662363Y-35466187D01*
X163625759Y-35282166D01*
X163553958Y-35108822D01*
X163449718Y-34952816D01*
X163320000Y-34823098D01*
X163320000Y-34298178D01*
X163506632Y-34173475D01*
X163713475Y-33966632D01*
X163830000Y-33792240D01*
X163946525Y-33966632D01*
X164153368Y-34173475D01*
X164340001Y-34298179D01*
X164340001Y-34982964D01*
X164255905Y-35108822D01*
X164184104Y-35282166D01*
X164147500Y-35466187D01*
X164147500Y-35653813D01*
X164184104Y-35837834D01*
X164255905Y-36011178D01*
X164360145Y-36167184D01*
X164492816Y-36299855D01*
X164648822Y-36404095D01*
X164822166Y-36475896D01*
X165006187Y-36512500D01*
X165193813Y-36512500D01*
X165377834Y-36475896D01*
X165551178Y-36404095D01*
X165707184Y-36299855D01*
X165839855Y-36167184D01*
X165944095Y-36011178D01*
X166015896Y-35837834D01*
X166052500Y-35653813D01*
X166052500Y-35466187D01*
X166015896Y-35282166D01*
X165944095Y-35108822D01*
X165860000Y-34982965D01*
X165860000Y-34298178D01*
X166046632Y-34173475D01*
X166253475Y-33966632D01*
X166370000Y-33792240D01*
X166486525Y-33966632D01*
X166587037Y-34067144D01*
X166553816Y-34080905D01*
X166397810Y-34185145D01*
X166265139Y-34317816D01*
X166160899Y-34473822D01*
X166089098Y-34647166D01*
X166052494Y-34831187D01*
X166052494Y-35018813D01*
X166089098Y-35202834D01*
X166160899Y-35376178D01*
X166265139Y-35532184D01*
X166397810Y-35664855D01*
X166553816Y-35769095D01*
X166727160Y-35840896D01*
X166911181Y-35877500D01*
X167098807Y-35877500D01*
X167282828Y-35840896D01*
X167456172Y-35769095D01*
X167612178Y-35664855D01*
X167744849Y-35532184D01*
X167849089Y-35376178D01*
X167920890Y-35202834D01*
X167950420Y-35054375D01*
X168151002Y-34853794D01*
X168180001Y-34829995D01*
X168224302Y-34776014D01*
X168274974Y-34714271D01*
X168345546Y-34582241D01*
X168362870Y-34525129D01*
X168389003Y-34438980D01*
X168400000Y-34327327D01*
X168400000Y-34327318D01*
X168403072Y-34296126D01*
X168586632Y-34173475D01*
X168793475Y-33966632D01*
X168910000Y-33792240D01*
X169026525Y-33966632D01*
X169233368Y-34173475D01*
X169476589Y-34335990D01*
X169746842Y-34447932D01*
X170033740Y-34505000D01*
X170326260Y-34505000D01*
X170613158Y-34447932D01*
X170883411Y-34335990D01*
X171126632Y-34173475D01*
X171333475Y-33966632D01*
X171458178Y-33780000D01*
X171507965Y-33780000D01*
X171633822Y-33864095D01*
X171807166Y-33935896D01*
X171991187Y-33972500D01*
X172178813Y-33972500D01*
X172362834Y-33935896D01*
X172536178Y-33864095D01*
X172692184Y-33759855D01*
X172695001Y-33757038D01*
X172695000Y-55847721D01*
G37*
%TD.AperFunction*%
D20*
X159298759Y-40240000D02*
X159208815Y-40313815D01*
X159129463Y-40410506D01*
X159070498Y-40520820D01*
X159034188Y-40640518D01*
X159021928Y-40765000D01*
X159021928Y-41067840D01*
X158973965Y-41047973D01*
X158789944Y-41011369D01*
X158602318Y-41011369D01*
X158418297Y-41047973D01*
X158244953Y-41119774D01*
X158088947Y-41224014D01*
X157956276Y-41356685D01*
X157852036Y-41512691D01*
X157780235Y-41686035D01*
X157743631Y-41870056D01*
X157743631Y-42057682D01*
X157780235Y-42241703D01*
X157796075Y-42279944D01*
X157757834Y-42264104D01*
X157573813Y-42227500D01*
X157386187Y-42227500D01*
X157202166Y-42264104D01*
X157028822Y-42335905D01*
X156872816Y-42440145D01*
X156740145Y-42572816D01*
X156635905Y-42728822D01*
X156564104Y-42902166D01*
X156527500Y-43086187D01*
X156527500Y-43273813D01*
X156562929Y-43451928D01*
X156335000Y-43451928D01*
X156210518Y-43464188D01*
X156210000Y-43464345D01*
X156209482Y-43464188D01*
X156085000Y-43451928D01*
X155535000Y-43451928D01*
X155410518Y-43464188D01*
X155410000Y-43464345D01*
X155409482Y-43464188D01*
X155285000Y-43451928D01*
X154735000Y-43451928D01*
X154610518Y-43464188D01*
X154610000Y-43464345D01*
X154609482Y-43464188D01*
X154485000Y-43451928D01*
X153935000Y-43451928D01*
X153810518Y-43464188D01*
X153810000Y-43464345D01*
X153809482Y-43464188D01*
X153685000Y-43451928D01*
X153398072Y-43451928D01*
X153398072Y-43165000D01*
X153385812Y-43040518D01*
X153385655Y-43040000D01*
X153385812Y-43039482D01*
X153398072Y-42915000D01*
X153398072Y-42670000D01*
X153727965Y-42670000D01*
X153853822Y-42754095D01*
X154027166Y-42825896D01*
X154211187Y-42862500D01*
X154398813Y-42862500D01*
X154582834Y-42825896D01*
X154756178Y-42754095D01*
X154912184Y-42649855D01*
X155044855Y-42517184D01*
X155149095Y-42361178D01*
X155220896Y-42187834D01*
X155257500Y-42003813D01*
X155257500Y-41816187D01*
X155220896Y-41632166D01*
X155149095Y-41458822D01*
X155044855Y-41302816D01*
X154912184Y-41170145D01*
X154756178Y-41065905D01*
X154582834Y-40994104D01*
X154398813Y-40957500D01*
X154211187Y-40957500D01*
X154027166Y-40994104D01*
X153853822Y-41065905D01*
X153727965Y-41150000D01*
X153240881Y-41150000D01*
X153211185Y-41113815D01*
X153121241Y-41040000D01*
X153211185Y-40966185D01*
X153290537Y-40869494D01*
X153349502Y-40759180D01*
X153385812Y-40639482D01*
X153391887Y-40577796D01*
X153480928Y-40577796D01*
X153664949Y-40541192D01*
X153838293Y-40469391D01*
X153994299Y-40365151D01*
X154126970Y-40232480D01*
X154147126Y-40202315D01*
X154170626Y-40200000D01*
X159250019Y-40200000D01*
X159298759Y-40240000D01*
%TA.AperFunction,Conductor*%
D21*
G36*
X159298759Y-40240000D02*
G01*
X159208815Y-40313815D01*
X159129463Y-40410506D01*
X159070498Y-40520820D01*
X159034188Y-40640518D01*
X159021928Y-40765000D01*
X159021928Y-41067840D01*
X158973965Y-41047973D01*
X158789944Y-41011369D01*
X158602318Y-41011369D01*
X158418297Y-41047973D01*
X158244953Y-41119774D01*
X158088947Y-41224014D01*
X157956276Y-41356685D01*
X157852036Y-41512691D01*
X157780235Y-41686035D01*
X157743631Y-41870056D01*
X157743631Y-42057682D01*
X157780235Y-42241703D01*
X157796075Y-42279944D01*
X157757834Y-42264104D01*
X157573813Y-42227500D01*
X157386187Y-42227500D01*
X157202166Y-42264104D01*
X157028822Y-42335905D01*
X156872816Y-42440145D01*
X156740145Y-42572816D01*
X156635905Y-42728822D01*
X156564104Y-42902166D01*
X156527500Y-43086187D01*
X156527500Y-43273813D01*
X156562929Y-43451928D01*
X156335000Y-43451928D01*
X156210518Y-43464188D01*
X156210000Y-43464345D01*
X156209482Y-43464188D01*
X156085000Y-43451928D01*
X155535000Y-43451928D01*
X155410518Y-43464188D01*
X155410000Y-43464345D01*
X155409482Y-43464188D01*
X155285000Y-43451928D01*
X154735000Y-43451928D01*
X154610518Y-43464188D01*
X154610000Y-43464345D01*
X154609482Y-43464188D01*
X154485000Y-43451928D01*
X153935000Y-43451928D01*
X153810518Y-43464188D01*
X153810000Y-43464345D01*
X153809482Y-43464188D01*
X153685000Y-43451928D01*
X153398072Y-43451928D01*
X153398072Y-43165000D01*
X153385812Y-43040518D01*
X153385655Y-43040000D01*
X153385812Y-43039482D01*
X153398072Y-42915000D01*
X153398072Y-42670000D01*
X153727965Y-42670000D01*
X153853822Y-42754095D01*
X154027166Y-42825896D01*
X154211187Y-42862500D01*
X154398813Y-42862500D01*
X154582834Y-42825896D01*
X154756178Y-42754095D01*
X154912184Y-42649855D01*
X155044855Y-42517184D01*
X155149095Y-42361178D01*
X155220896Y-42187834D01*
X155257500Y-42003813D01*
X155257500Y-41816187D01*
X155220896Y-41632166D01*
X155149095Y-41458822D01*
X155044855Y-41302816D01*
X154912184Y-41170145D01*
X154756178Y-41065905D01*
X154582834Y-40994104D01*
X154398813Y-40957500D01*
X154211187Y-40957500D01*
X154027166Y-40994104D01*
X153853822Y-41065905D01*
X153727965Y-41150000D01*
X153240881Y-41150000D01*
X153211185Y-41113815D01*
X153121241Y-41040000D01*
X153211185Y-40966185D01*
X153290537Y-40869494D01*
X153349502Y-40759180D01*
X153385812Y-40639482D01*
X153391887Y-40577796D01*
X153480928Y-40577796D01*
X153664949Y-40541192D01*
X153838293Y-40469391D01*
X153994299Y-40365151D01*
X154126970Y-40232480D01*
X154147126Y-40202315D01*
X154170626Y-40200000D01*
X159250019Y-40200000D01*
X159298759Y-40240000D01*
G37*
%TD.AperFunction*%
D20*
X171179545Y-31178909D02*
X171530208Y-31284780D01*
X171853625Y-31456744D01*
X172137484Y-31688254D01*
X172370965Y-31970486D01*
X172466410Y-32147006D01*
X172362834Y-32104104D01*
X172178813Y-32067500D01*
X171991187Y-32067500D01*
X171807166Y-32104104D01*
X171633822Y-32175905D01*
X171507965Y-32260000D01*
X171458178Y-32260000D01*
X171333475Y-32073368D01*
X171126632Y-31866525D01*
X170883411Y-31704010D01*
X170613158Y-31592068D01*
X170326260Y-31535000D01*
X170033740Y-31535000D01*
X169746842Y-31592068D01*
X169476589Y-31704010D01*
X169233368Y-31866525D01*
X169026525Y-32073368D01*
X168910000Y-32247760D01*
X168793475Y-32073368D01*
X168586632Y-31866525D01*
X168343411Y-31704010D01*
X168073158Y-31592068D01*
X167786260Y-31535000D01*
X167493740Y-31535000D01*
X167206842Y-31592068D01*
X166936589Y-31704010D01*
X166693368Y-31866525D01*
X166486525Y-32073368D01*
X166370000Y-32247760D01*
X166253475Y-32073368D01*
X166046632Y-31866525D01*
X165803411Y-31704010D01*
X165533158Y-31592068D01*
X165246260Y-31535000D01*
X164953740Y-31535000D01*
X164666842Y-31592068D01*
X164396589Y-31704010D01*
X164153368Y-31866525D01*
X163946525Y-32073368D01*
X163830000Y-32247760D01*
X163713475Y-32073368D01*
X163506632Y-31866525D01*
X163263411Y-31704010D01*
X162993158Y-31592068D01*
X162706260Y-31535000D01*
X162413740Y-31535000D01*
X162126842Y-31592068D01*
X161856589Y-31704010D01*
X161613368Y-31866525D01*
X161406525Y-32073368D01*
X161290000Y-32247760D01*
X161173475Y-32073368D01*
X160966632Y-31866525D01*
X160723411Y-31704010D01*
X160453158Y-31592068D01*
X160166260Y-31535000D01*
X159873740Y-31535000D01*
X159586842Y-31592068D01*
X159316589Y-31704010D01*
X159073368Y-31866525D01*
X158866525Y-32073368D01*
X158750000Y-32247760D01*
X158633475Y-32073368D01*
X158426632Y-31866525D01*
X158183411Y-31704010D01*
X157913158Y-31592068D01*
X157626260Y-31535000D01*
X157333740Y-31535000D01*
X157046842Y-31592068D01*
X156776589Y-31704010D01*
X156533368Y-31866525D01*
X156326525Y-32073368D01*
X156210000Y-32247760D01*
X156093475Y-32073368D01*
X155886632Y-31866525D01*
X155643411Y-31704010D01*
X155373158Y-31592068D01*
X155086260Y-31535000D01*
X154793740Y-31535000D01*
X154506842Y-31592068D01*
X154236589Y-31704010D01*
X153993368Y-31866525D01*
X153786525Y-32073368D01*
X153670000Y-32247760D01*
X153553475Y-32073368D01*
X153346632Y-31866525D01*
X153103411Y-31704010D01*
X152833158Y-31592068D01*
X152546260Y-31535000D01*
X152253740Y-31535000D01*
X151966842Y-31592068D01*
X151696589Y-31704010D01*
X151453368Y-31866525D01*
X151246525Y-32073368D01*
X151130000Y-32247760D01*
X151013475Y-32073368D01*
X150806632Y-31866525D01*
X150563411Y-31704010D01*
X150293158Y-31592068D01*
X150006260Y-31535000D01*
X149713740Y-31535000D01*
X149426842Y-31592068D01*
X149156589Y-31704010D01*
X148913368Y-31866525D01*
X148781513Y-31998380D01*
X148759502Y-31925820D01*
X148700537Y-31815506D01*
X148621185Y-31718815D01*
X148524494Y-31639463D01*
X148414180Y-31580498D01*
X148294482Y-31544188D01*
X148170000Y-31531928D01*
X146470000Y-31531928D01*
X146345518Y-31544188D01*
X146225820Y-31580498D01*
X146115506Y-31639463D01*
X146018815Y-31718815D01*
X145939463Y-31815506D01*
X145880498Y-31925820D01*
X145844188Y-32045518D01*
X145831928Y-32170000D01*
X145831928Y-32997127D01*
X145343804Y-32509003D01*
X145320001Y-32479999D01*
X145204276Y-32385026D01*
X145072247Y-32314454D01*
X144928986Y-32270997D01*
X144817333Y-32260000D01*
X144817322Y-32260000D01*
X144780000Y-32256324D01*
X144742678Y-32260000D01*
X143728072Y-32260000D01*
X143728072Y-32170000D01*
X143715812Y-32045518D01*
X143679502Y-31925820D01*
X143620537Y-31815506D01*
X143541185Y-31718815D01*
X143444494Y-31639463D01*
X143334180Y-31580498D01*
X143214482Y-31544188D01*
X143090000Y-31531928D01*
X141390000Y-31531928D01*
X141265518Y-31544188D01*
X141145820Y-31580498D01*
X141035506Y-31639463D01*
X140938815Y-31718815D01*
X140859463Y-31815506D01*
X140800498Y-31925820D01*
X140764188Y-32045518D01*
X140751928Y-32170000D01*
X140751928Y-33870000D01*
X140764188Y-33994482D01*
X140800498Y-34114180D01*
X140859463Y-34224494D01*
X140938815Y-34321185D01*
X141035506Y-34400537D01*
X141145820Y-34459502D01*
X141265518Y-34495812D01*
X141390000Y-34508072D01*
X143090000Y-34508072D01*
X143214482Y-34495812D01*
X143334180Y-34459502D01*
X143444494Y-34400537D01*
X143541185Y-34321185D01*
X143620537Y-34224494D01*
X143679502Y-34114180D01*
X143715812Y-33994482D01*
X143728072Y-33870000D01*
X143728072Y-33780000D01*
X144465199Y-33780000D01*
X146027127Y-35341928D01*
X145200000Y-35341928D01*
X145075518Y-35354188D01*
X144955820Y-35390498D01*
X144845506Y-35449463D01*
X144748815Y-35528815D01*
X144669463Y-35625506D01*
X144610498Y-35735820D01*
X144574188Y-35855518D01*
X144561928Y-35980000D01*
X144561928Y-37680000D01*
X144574188Y-37804482D01*
X144610498Y-37924180D01*
X144669463Y-38034494D01*
X144748815Y-38131185D01*
X144845506Y-38210537D01*
X144955820Y-38269502D01*
X145028380Y-38291513D01*
X144896525Y-38423368D01*
X144771822Y-38610000D01*
X144722035Y-38610000D01*
X144596178Y-38525905D01*
X144422834Y-38454104D01*
X144238813Y-38417500D01*
X144051187Y-38417500D01*
X143867166Y-38454104D01*
X143693822Y-38525905D01*
X143662178Y-38547049D01*
X143667932Y-38533158D01*
X143725000Y-38246260D01*
X143725000Y-37953740D01*
X143667932Y-37666842D01*
X143555990Y-37396589D01*
X143393475Y-37153368D01*
X143186632Y-36946525D01*
X142943411Y-36784010D01*
X142673158Y-36672068D01*
X142386260Y-36615000D01*
X142093740Y-36615000D01*
X141806842Y-36672068D01*
X141536589Y-36784010D01*
X141293368Y-36946525D01*
X141086525Y-37153368D01*
X140924010Y-37396589D01*
X140812068Y-37666842D01*
X140755000Y-37953740D01*
X140755000Y-38246260D01*
X140798790Y-38466408D01*
X140360000Y-38905199D01*
X140360000Y-33052279D01*
X140398909Y-32655455D01*
X140504780Y-32304792D01*
X140676744Y-31981375D01*
X140908254Y-31697516D01*
X141190486Y-31464035D01*
X141512695Y-31289817D01*
X141862614Y-31181498D01*
X142257443Y-31140000D01*
X170782721Y-31140000D01*
X171179545Y-31178909D01*
%TA.AperFunction,Conductor*%
D21*
G36*
X171179545Y-31178909D02*
G01*
X171530208Y-31284780D01*
X171853625Y-31456744D01*
X172137484Y-31688254D01*
X172370965Y-31970486D01*
X172466410Y-32147006D01*
X172362834Y-32104104D01*
X172178813Y-32067500D01*
X171991187Y-32067500D01*
X171807166Y-32104104D01*
X171633822Y-32175905D01*
X171507965Y-32260000D01*
X171458178Y-32260000D01*
X171333475Y-32073368D01*
X171126632Y-31866525D01*
X170883411Y-31704010D01*
X170613158Y-31592068D01*
X170326260Y-31535000D01*
X170033740Y-31535000D01*
X169746842Y-31592068D01*
X169476589Y-31704010D01*
X169233368Y-31866525D01*
X169026525Y-32073368D01*
X168910000Y-32247760D01*
X168793475Y-32073368D01*
X168586632Y-31866525D01*
X168343411Y-31704010D01*
X168073158Y-31592068D01*
X167786260Y-31535000D01*
X167493740Y-31535000D01*
X167206842Y-31592068D01*
X166936589Y-31704010D01*
X166693368Y-31866525D01*
X166486525Y-32073368D01*
X166370000Y-32247760D01*
X166253475Y-32073368D01*
X166046632Y-31866525D01*
X165803411Y-31704010D01*
X165533158Y-31592068D01*
X165246260Y-31535000D01*
X164953740Y-31535000D01*
X164666842Y-31592068D01*
X164396589Y-31704010D01*
X164153368Y-31866525D01*
X163946525Y-32073368D01*
X163830000Y-32247760D01*
X163713475Y-32073368D01*
X163506632Y-31866525D01*
X163263411Y-31704010D01*
X162993158Y-31592068D01*
X162706260Y-31535000D01*
X162413740Y-31535000D01*
X162126842Y-31592068D01*
X161856589Y-31704010D01*
X161613368Y-31866525D01*
X161406525Y-32073368D01*
X161290000Y-32247760D01*
X161173475Y-32073368D01*
X160966632Y-31866525D01*
X160723411Y-31704010D01*
X160453158Y-31592068D01*
X160166260Y-31535000D01*
X159873740Y-31535000D01*
X159586842Y-31592068D01*
X159316589Y-31704010D01*
X159073368Y-31866525D01*
X158866525Y-32073368D01*
X158750000Y-32247760D01*
X158633475Y-32073368D01*
X158426632Y-31866525D01*
X158183411Y-31704010D01*
X157913158Y-31592068D01*
X157626260Y-31535000D01*
X157333740Y-31535000D01*
X157046842Y-31592068D01*
X156776589Y-31704010D01*
X156533368Y-31866525D01*
X156326525Y-32073368D01*
X156210000Y-32247760D01*
X156093475Y-32073368D01*
X155886632Y-31866525D01*
X155643411Y-31704010D01*
X155373158Y-31592068D01*
X155086260Y-31535000D01*
X154793740Y-31535000D01*
X154506842Y-31592068D01*
X154236589Y-31704010D01*
X153993368Y-31866525D01*
X153786525Y-32073368D01*
X153670000Y-32247760D01*
X153553475Y-32073368D01*
X153346632Y-31866525D01*
X153103411Y-31704010D01*
X152833158Y-31592068D01*
X152546260Y-31535000D01*
X152253740Y-31535000D01*
X151966842Y-31592068D01*
X151696589Y-31704010D01*
X151453368Y-31866525D01*
X151246525Y-32073368D01*
X151130000Y-32247760D01*
X151013475Y-32073368D01*
X150806632Y-31866525D01*
X150563411Y-31704010D01*
X150293158Y-31592068D01*
X150006260Y-31535000D01*
X149713740Y-31535000D01*
X149426842Y-31592068D01*
X149156589Y-31704010D01*
X148913368Y-31866525D01*
X148781513Y-31998380D01*
X148759502Y-31925820D01*
X148700537Y-31815506D01*
X148621185Y-31718815D01*
X148524494Y-31639463D01*
X148414180Y-31580498D01*
X148294482Y-31544188D01*
X148170000Y-31531928D01*
X146470000Y-31531928D01*
X146345518Y-31544188D01*
X146225820Y-31580498D01*
X146115506Y-31639463D01*
X146018815Y-31718815D01*
X145939463Y-31815506D01*
X145880498Y-31925820D01*
X145844188Y-32045518D01*
X145831928Y-32170000D01*
X145831928Y-32997127D01*
X145343804Y-32509003D01*
X145320001Y-32479999D01*
X145204276Y-32385026D01*
X145072247Y-32314454D01*
X144928986Y-32270997D01*
X144817333Y-32260000D01*
X144817322Y-32260000D01*
X144780000Y-32256324D01*
X144742678Y-32260000D01*
X143728072Y-32260000D01*
X143728072Y-32170000D01*
X143715812Y-32045518D01*
X143679502Y-31925820D01*
X143620537Y-31815506D01*
X143541185Y-31718815D01*
X143444494Y-31639463D01*
X143334180Y-31580498D01*
X143214482Y-31544188D01*
X143090000Y-31531928D01*
X141390000Y-31531928D01*
X141265518Y-31544188D01*
X141145820Y-31580498D01*
X141035506Y-31639463D01*
X140938815Y-31718815D01*
X140859463Y-31815506D01*
X140800498Y-31925820D01*
X140764188Y-32045518D01*
X140751928Y-32170000D01*
X140751928Y-33870000D01*
X140764188Y-33994482D01*
X140800498Y-34114180D01*
X140859463Y-34224494D01*
X140938815Y-34321185D01*
X141035506Y-34400537D01*
X141145820Y-34459502D01*
X141265518Y-34495812D01*
X141390000Y-34508072D01*
X143090000Y-34508072D01*
X143214482Y-34495812D01*
X143334180Y-34459502D01*
X143444494Y-34400537D01*
X143541185Y-34321185D01*
X143620537Y-34224494D01*
X143679502Y-34114180D01*
X143715812Y-33994482D01*
X143728072Y-33870000D01*
X143728072Y-33780000D01*
X144465199Y-33780000D01*
X146027127Y-35341928D01*
X145200000Y-35341928D01*
X145075518Y-35354188D01*
X144955820Y-35390498D01*
X144845506Y-35449463D01*
X144748815Y-35528815D01*
X144669463Y-35625506D01*
X144610498Y-35735820D01*
X144574188Y-35855518D01*
X144561928Y-35980000D01*
X144561928Y-37680000D01*
X144574188Y-37804482D01*
X144610498Y-37924180D01*
X144669463Y-38034494D01*
X144748815Y-38131185D01*
X144845506Y-38210537D01*
X144955820Y-38269502D01*
X145028380Y-38291513D01*
X144896525Y-38423368D01*
X144771822Y-38610000D01*
X144722035Y-38610000D01*
X144596178Y-38525905D01*
X144422834Y-38454104D01*
X144238813Y-38417500D01*
X144051187Y-38417500D01*
X143867166Y-38454104D01*
X143693822Y-38525905D01*
X143662178Y-38547049D01*
X143667932Y-38533158D01*
X143725000Y-38246260D01*
X143725000Y-37953740D01*
X143667932Y-37666842D01*
X143555990Y-37396589D01*
X143393475Y-37153368D01*
X143186632Y-36946525D01*
X142943411Y-36784010D01*
X142673158Y-36672068D01*
X142386260Y-36615000D01*
X142093740Y-36615000D01*
X141806842Y-36672068D01*
X141536589Y-36784010D01*
X141293368Y-36946525D01*
X141086525Y-37153368D01*
X140924010Y-37396589D01*
X140812068Y-37666842D01*
X140755000Y-37953740D01*
X140755000Y-38246260D01*
X140798790Y-38466408D01*
X140360000Y-38905199D01*
X140360000Y-33052279D01*
X140398909Y-32655455D01*
X140504780Y-32304792D01*
X140676744Y-31981375D01*
X140908254Y-31697516D01*
X141190486Y-31464035D01*
X141512695Y-31289817D01*
X141862614Y-31181498D01*
X142257443Y-31140000D01*
X170782721Y-31140000D01*
X171179545Y-31178909D01*
G37*
%TD.AperFunction*%
%TD*%
M02*
