%TF.GenerationSoftware,KiCad,Pcbnew,(5.1.9)-1*%
%TF.CreationDate,2021-04-29T17:29:05+08:00*%
%TF.ProjectId,arduino_pro_mini,61726475-696e-46f5-9f70-726f5f6d696e,rev?*%
%TF.SameCoordinates,Original*%
%TF.FileFunction,Legend,Top*%
%TF.FilePolarity,Positive*%
%FSLAX46Y46*%
G04 Gerber Fmt 4.6, Leading zero omitted, Abs format (unit mm)*
G04 Created by KiCad (PCBNEW (5.1.9)-1) date 2021-04-29 17:29:05*
%MOMM*%
%LPD*%
G01*
G04 APERTURE LIST*
%ADD10C,0.120000*%
%ADD11C,0.150000*%
G04 APERTURE END LIST*
D10*
%TO.C,J1*%
X144720000Y-43240000D02*
X149920000Y-43240000D01*
X144720000Y-38100000D02*
X144720000Y-43240000D01*
X149920000Y-35500000D02*
X149920000Y-43240000D01*
X144720000Y-38100000D02*
X147320000Y-38100000D01*
X147320000Y-38100000D02*
X147320000Y-35500000D01*
X147320000Y-35500000D02*
X149920000Y-35500000D01*
X144720000Y-36830000D02*
X144720000Y-35500000D01*
X144720000Y-35500000D02*
X146050000Y-35500000D01*
%TO.C,Y1*%
X163845000Y-45135000D02*
X163845000Y-38885000D01*
X168895000Y-45135000D02*
X168895000Y-38885000D01*
X168895000Y-38885000D02*
G75*
G03*
X163845000Y-38885000I-2525000J0D01*
G01*
X168895000Y-45135000D02*
G75*
G02*
X163845000Y-45135000I-2525000J0D01*
G01*
D11*
%TO.C,U2*%
X159835000Y-44265000D02*
X159835000Y-44040000D01*
X152585000Y-44265000D02*
X152585000Y-43940000D01*
X152585000Y-37015000D02*
X152585000Y-37340000D01*
X159835000Y-37015000D02*
X159835000Y-37340000D01*
X159835000Y-44265000D02*
X159510000Y-44265000D01*
X159835000Y-37015000D02*
X159510000Y-37015000D01*
X152585000Y-37015000D02*
X152910000Y-37015000D01*
X152585000Y-44265000D02*
X152910000Y-44265000D01*
X159835000Y-44040000D02*
X161260000Y-44040000D01*
D10*
%TO.C,U1*%
X157680000Y-51140000D02*
X159480000Y-51140000D01*
X159480000Y-47920000D02*
X157030000Y-47920000D01*
%TO.C,SW1*%
X151185000Y-54665000D02*
X151185000Y-48205000D01*
X146655000Y-54665000D02*
X149255000Y-54665000D01*
X144725000Y-54665000D02*
X144725000Y-48205000D01*
X146655000Y-48205000D02*
X149255000Y-48205000D01*
X144755000Y-54665000D02*
X144725000Y-54665000D01*
X151185000Y-54665000D02*
X151155000Y-54665000D01*
X151185000Y-48205000D02*
X151155000Y-48205000D01*
X144725000Y-48205000D02*
X144755000Y-48205000D01*
%TO.C,R2*%
X153147500Y-53577258D02*
X153147500Y-53102742D01*
X154192500Y-53577258D02*
X154192500Y-53102742D01*
%TO.C,R1*%
X169657500Y-47227258D02*
X169657500Y-46752742D01*
X170702500Y-47227258D02*
X170702500Y-46752742D01*
%TO.C,J3*%
X140910000Y-57210000D02*
X143570000Y-57210000D01*
X140910000Y-34290000D02*
X140910000Y-57210000D01*
X143570000Y-34290000D02*
X143570000Y-57210000D01*
X140910000Y-34290000D02*
X143570000Y-34290000D01*
X140910000Y-33020000D02*
X140910000Y-31690000D01*
X140910000Y-31690000D02*
X142240000Y-31690000D01*
%TO.C,J2*%
X171510000Y-34350000D02*
X171510000Y-31690000D01*
X148590000Y-34350000D02*
X171510000Y-34350000D01*
X148590000Y-31690000D02*
X171510000Y-31690000D01*
X148590000Y-34350000D02*
X148590000Y-31690000D01*
X147320000Y-34350000D02*
X145990000Y-34350000D01*
X145990000Y-34350000D02*
X145990000Y-33020000D01*
%TO.C,D1*%
X163030000Y-50265000D02*
X165315000Y-50265000D01*
X165315000Y-50265000D02*
X165315000Y-48795000D01*
X165315000Y-48795000D02*
X163030000Y-48795000D01*
%TO.C,C7*%
X170690000Y-37959420D02*
X170690000Y-38240580D01*
X169670000Y-37959420D02*
X169670000Y-38240580D01*
%TO.C,C6*%
X170690000Y-43039420D02*
X170690000Y-43320580D01*
X169670000Y-43039420D02*
X169670000Y-43320580D01*
%TO.C,C5*%
X160530000Y-53199420D02*
X160530000Y-53480580D01*
X159510000Y-53199420D02*
X159510000Y-53480580D01*
%TO.C,C4*%
X157990000Y-53199420D02*
X157990000Y-53480580D01*
X156970000Y-53199420D02*
X156970000Y-53480580D01*
%TO.C,C3*%
X169544420Y-54100000D02*
X169825580Y-54100000D01*
X169544420Y-55120000D02*
X169825580Y-55120000D01*
%TO.C,C2*%
X169544420Y-50290000D02*
X169825580Y-50290000D01*
X169544420Y-51310000D02*
X169825580Y-51310000D01*
%TO.C,C1*%
X154180000Y-49389420D02*
X154180000Y-49670580D01*
X153160000Y-49389420D02*
X153160000Y-49670580D01*
%TD*%
M02*
